<?xml version="1.0" encoding="UTF-8" standalone="no"?>
<!DOCTYPE svg PUBLIC "-//W3C//DTD SVG 1.1//EN" "http://www.w3.org/Graphics/SVG/1.1/DTD/svg11.dtd">
<svg width="100%" height="100%" viewBox="0 0 1288 36" version="1.1" xmlns="http://www.w3.org/2000/svg" xmlns:xlink="http://www.w3.org/1999/xlink" xml:space="preserve" xmlns:serif="http://www.serif.com/" style="fill-rule:evenodd;clip-rule:evenodd;stroke-linecap:round;stroke-linejoin:round;">
    <g transform="matrix(1,0,0,1,0,-208.878)">
        <g id="weld" transform="matrix(1,0,0,1,3.97,51.0645)">
            <rect x="-3.97" y="157.814" width="1287.48" height="35.9" style="fill:none;"/>
            <clipPath id="_clip1">
                <rect x="-3.97" y="157.814" width="1287.48" height="35.9"/>
            </clipPath>
            <g clip-path="url(#_clip1)">
                <g transform="matrix(1,0,0,1,627.03,-692.186)">
                    <path d="M-93.49,873.681L-93.73,872.584L-93.61,873.01L-93.904,873.46L-93.402,873.259L-88.781,869.23L-87.227,868.184L-86.546,868.053L-83.104,864.704L-81.574,862.335L-81.345,861.645L-81.726,861.663L-81.606,861.894L-81.418,861.401L-81.69,862.27L-80.912,868.632L-79.301,876.154L-78.454,877.628L-78.249,877.419L-78.451,877.843L-78.462,877.277L-78.145,877.321L-76.633,875.521L-73.891,871.63L-71.627,865.506L-71.08,865.116L-70.281,863.729L-70.318,864.315L-69.923,864.245L-67.338,866.892L-65.608,869.196L-64.614,871.383L-64.201,871.689L-63.489,874.308L-61.569,878.436L-60.962,879.194L-60.807,878.916L-61.031,879.393L-61.112,879.14L-61.046,879.518L-59.131,875.777L-56.774,869.112L-55.92,867.696L-54.077,865.766L-52.993,865.522L-52.843,866.101L-52.725,865.479L-51.591,865.333L-47.398,868.156L-47.027,868.741L-45.902,868.954L-44.914,869.599L-44.163,871.541L-43.794,871.451L-43.781,871.71L-40.554,870.211L-39.291,867.484L-39.323,864.606L-39.895,863.553L-40.949,863.003L-43.205,864.024L-44.525,865.236L-45.65,867.029L-46.082,869.681L-46.002,872.367L-45.51,874.027L-44.155,876.358L-41.948,879.061L-39.05,880.775L-36.392,880.722L-35.797,880.204L-35.106,880.338L-31.636,879.23L-29.246,877.94L-26.442,874.763L-24.731,871.254L-23.869,867.911L-22.816,859.484L-22.945,860.322L-23.061,859.937L-24.189,861.283L-25.081,864.571L-25.075,867.331L-24.389,871.405L-23.388,874.646L-22.704,875.667L-20.995,877.106L-18.527,878.238L-13.673,879.227L-12.746,878.819L-10.69,879.102L-9.938,878.771L-8.135,878.908L-6.203,877.69L-4.599,875.887L-3.328,873.129L-3.462,868.718L-3.691,867.048L-4.268,865.718L-6.177,865.94L-6.588,866.374L-8.177,866.7L-9.852,867.685L-13.78,870.82L-15.156,873.181L-15.456,874.199L-15.326,875.525L-13.251,878.312L-10.301,879.96L-8.472,879.969L-5.911,878.884L-3.747,877.384L0.059,873.621L0.731,872.341L2.102,868.431L3.355,862.448L3.099,859.925L2.622,858.843L1.642,857.742L1.239,857.79L-0.05,859.795L-0.863,862.659L-0.852,866.198L0.537,872.782L1.555,875.742L2.347,876.945L4.239,878.896L4.69,878.931L6.589,881.313L7.884,881.002" style="fill:none;fill-rule:nonzero;stroke:black;stroke-width:4px;"/>
                </g>
                <g transform="matrix(1,0,0,1,627.03,-692.186)">
                    <path d="M545.091,867.906L544.974,867.623L544.27,867.864L544.427,868.153L544.752,868.05L546.493,865.779L551.575,862.874L552.308,862.887L553.572,861.692L554.889,860.134L555.996,858.023L556.383,856.698L556.282,855.938L555.987,856.306L556.152,856.066L556.172,856.886L554.924,859.518L554.884,865.914L557.195,874.86L558.717,878.042L558.708,877.625L559.01,877.596L558.628,877.439L559.251,877.174L560.943,875.438L562.649,873.099L564.191,866.837L565.974,862.484L566.634,861.892L566.531,861.365L566.425,862.371L566.498,862.147L567.136,862.355L568.779,863.325L570.566,865.204L574.364,870.898L576.991,874.249L578.225,877.389L580.655,872.112L582.443,865.243L585.581,859.627L585.527,860.417L588.036,862.406L589.676,864.355L592.03,866.128L592.958,867.589L594.552,868.102L596.232,869.687L597.226,869.888L598.341,869.012L599.771,868.926L600.517,867.408L602.531,865.565L603.198,863.85L603.312,862.164L602.748,860.275L601.855,859.372L601.329,859.728L600.839,859.503L600.533,859.878L599.628,859.991L598.78,861.809L598.205,864.81L598.192,872.09L599.356,875.559L601.242,877.044L602.231,878.653L603.854,879.36L605.365,879.43L607.189,879.055L609.323,878.052L612.328,875.484L615.921,869.24L618.155,863.842L618.971,860.57L618.592,858.165L617.334,856.349L616.747,856.579L616.23,856.382L614.102,857.597L612.908,860.451L612.843,865.356L613.337,869.542L614.346,873.017L616.222,876.342L618.223,878.594L620.365,880.178L623.229,881.256L626.859,881.463L629.132,881.06L631.793,880.053L635.773,877.875L641.015,872.664L643.112,869.77L643.858,867.552L643.314,866.099L642.071,864.972L638.103,864L635.116,864.216L629.973,866.701L628.636,868.025L627.608,869.913L627.13,872.219L627.353,875.51L628.247,878.285L629.153,879.159L632.481,880.064L635.431,879.873L638.737,879.025L642.893,876.067L646.872,872.689L648.225,870.284L648.725,866.871L648.105,855.768L648.454,854.798L648.49,855.678L647.522,857.749L646.933,860.954L646.727,865.295L647.831,872.757L649.127,876.517L652.066,880.335L654.508,880.256" style="fill:none;fill-rule:nonzero;stroke:black;stroke-width:4px;"/>
                </g>
                <g transform="matrix(1,0,0,1,627.03,-692.186)">
                    <path d="M-628.97,869.87L-628.418,869.87L-628.917,870.467L-627.525,870.142L-621.015,864.735L-618.975,862.663L-617.414,859.546L-617.728,859.972L-617.243,861.031L-616.783,863.945L-614.113,871.431L-613.431,876.605L-613.089,877.894L-612.044,879.736L-612.5,879.663L-611.909,879.723L-605.925,867.842L-602.589,864.211L-597.345,876.675L-595.653,878.655L-595.666,879.061L-595.867,878.726L-595.425,878.685L-595.667,878.621L-595.347,878.417L-595.524,878.235L-595.145,877.098L-593.616,875.665L-591.987,872.895L-590.769,869.287L-590.625,867.536L-588.047,865.034L-589.02,865.025L-588.3,865.188L-587.145,866.544L-586.557,866.603L-582.181,869.78L-581.619,870.49L-578.65,871.946L-577.034,871.797L-576.097,870.464L-573.961,869.362L-573.201,867.542L-573.314,866.601L-574.565,863.317L-575.539,862.406L-576.524,862.174L-577.875,862.816L-580.377,866.289L-580.765,869.293L-580.219,873.217L-579.675,874.597L-579.129,875.667L-577.8,877.101L-575.41,878.452L-573.243,879.032L-569.581,878.988L-566.994,878.28L-564.05,876.498L-562.099,874.625L-560.207,872.016L-558.624,868.676L-557.93,866.184L-557.593,862.429L-557.814,860.347L-558.051,860.248L-558.906,860.467L-558.49,860.686L-560.413,863.145L-561.62,866.458L-560.992,872.147L-560.322,874.387L-558.017,877.984L-555.522,880.33L-552.599,882.029L-549.056,882.697L-543.333,881.286L-541.383,879.667L-539.296,877.269L-538.883,875.866L-538.375,875.229L-538.928,872.371L-539.349,871.954L-539.756,870.1L-540.855,869.259L-543.425,870.275L-547.266,873.727L-548.814,876.584L-548.292,878.66L-547.362,879.754L-545.335,881.129L-541.559,880.635L-538.825,879.676L-536.238,877.828L-533.148,875.048L-531.674,873.015L-530.753,872.266L-529.677,869.188L-529.641,865.285L-530.078,864.277L-530.741,859.903L-532.424,858.327L-533.043,858.514L-533.12,858.964L-533.771,859.5L-533.653,859.837L-534.806,861.446L-535.387,863.074L-535.627,868.243L-534.525,874.545L-534.74,875.119L-532.891,877.759L-530.142,879.735L-528.833,880.143L-528.212,880.727L-526.674,880.829L-526.274,880.748L-526.058,880.259L-525.579,880.411" style="fill:none;fill-rule:nonzero;stroke:black;stroke-width:4px;"/>
                </g>
                <g transform="matrix(1,0,0,1,627.03,-692.186)">
                    <path d="M390.929,872.459L390.093,872.128L390.275,872.889L390.508,872.096L390.633,872.693L390.826,872.588L391.127,871.59L392.804,869.669L394.833,867.78L396.543,866.885L399.009,864.55L400.268,862.375L400.303,860.944L400.418,861.16L400.127,861.247L400.522,861.361L401.073,866.129L401.864,869.723L402.326,878.369L403.379,881.419L403.333,880.675L403.116,880.939L403.578,880.905L404.967,878.716L405.539,878.331L407.411,875.05L409.865,867.762L412.03,863.401L412.012,864.057L413.223,864.889L416.133,869.467L416.625,869.658L419.196,875.929L421.082,878.24L421.567,878.611L421.682,878.425L421.567,878.898L421.653,878.157L422.449,877.647L422.775,876.975L423.257,876.907L423.593,876.09L424.327,875.407L425.134,869.81L426.587,865.825L427.554,864.273L427.66,864.554L427.704,863.685L427.824,864.079L427.925,863.564L427.946,864.068L430.142,865.413L434.529,869.326L435.082,869.131L435.701,869.607L436.553,871.005L437.383,870.603L437.882,871.046L438.867,871.051L439.205,870.178L439.463,870.507L441.07,869.993L441.458,870.209L442.561,869.619L443.683,868.54L444.14,867.285L444.619,867.184L445.673,863.091L445.554,863.307L445.375,862.407L444.626,861.706L443.156,861.248L442.399,861.201L440.684,861.924L439.198,863.928L438.294,868.096L438.652,872.944L439.687,875.67L440.988,876.995L443.359,878.378L446.639,879.154L449.916,877.873L450.636,877.019L452.636,876.074L454.045,874.927L455.906,872.637L457.14,869.964L459.225,863.247L460.608,857.228L460.711,855.814L460.35,855.315L460.543,855.977L460.1,855.977L459.134,856.786L458.107,858.223L457.116,861.182L457.235,868.926L458.124,874.489L458.809,876.238L460.41,878.927L463.437,881.25L466.341,882.116L471.358,881.722L474.191,880.968L476.366,879.186L477.064,879.25L478.605,877.038L479.607,873.901L479.783,872.22L479.568,869.229L479.171,868.288L477.597,866.975L474.003,866.717L472.323,867.561L471.465,868.37L470.718,868.359L467.676,869.703L467.147,869.658L466.301,871.269L465.134,875.026L465.277,876.823L466.141,878.586L467.594,879.891L469.035,880.544L471.941,881.14L473.95,880.959L476.335,879.783L477.991,878.405L481.292,874.608L483.021,871.555L484.08,868.615L484.572,863.758L483.877,856.247L482.469,859.405L481.998,863.499L482.354,867.483L484.132,874.132L486.353,880.409L487.419,882.382L489.277,883.118L491.258,882.529" style="fill:none;fill-rule:nonzero;stroke:black;stroke-width:4px;"/>
                </g>
                <g transform="matrix(1,0,0,1,627.03,-692.186)">
                    <path d="M237.688,872.192L237.372,872.039L237.742,872.156L238.09,870.289L238.585,870.002L239.1,868.986L242.251,867.044L244.884,864.609L247.261,861.843L248.138,860.372L247.87,860.425L248.064,859.926L247.84,860.77L248.052,860.677L248.304,861.665L249.517,868.419L250.346,875.163L251.825,881.02L252.195,879.822L252.703,879.656L254.253,878.069L256.625,874.789L259.252,867.926L261.099,864.092L260.881,864.576L261.246,865.519L262.4,867.004L262.873,866.942L263.441,868.283L263.817,868.362L267.213,876.14L267.403,877.148L268.21,877.875L268.483,878.811L268.675,878.475L268.932,879.372L269.117,878.496L269.207,878.752L270.241,877.948L272.359,875.679L273.503,873.331L275.463,864.927L275.668,865.892L277.435,865.947L278.02,866.566L279.167,866.433L280.773,867.319L281.355,866.916L282.04,867.844L284.705,869.92L287,870.963L289.386,871.671L290.633,871.404L290.887,870.976L291.729,870.934L292.122,871.236L292.869,870.497L293.715,870.293L295.743,868.199L297.222,865.874L297.403,864.175L297.045,862.139L296.233,860.964L295.401,860.479L295.028,860.704L294.445,860.522L294.187,860.86L293.438,860.75L293.164,861.351L293.026,861.178L292.404,861.682L291.228,863.16L290.858,863.069L289.485,866.795L289.281,869.76L290.439,874.343L292.099,876.68L292.399,877.809L293.042,877.842L293.385,878.402L298.557,879.176L302.833,878.652L304.745,877.734L305.45,877.737L307.807,875.433L310.82,872.116L311.995,869.204L312.541,868.737L313.819,864.494L314.81,857.88L315.17,854.538L315.064,853.729L314.65,853.626L314.555,853.216L314.159,854.22L313.25,854.996L311.981,857.953L311.734,862.192L312.448,866.618L314.112,872.238L315.146,875.202L316.401,877.348L320.043,879.804L323.23,880.362L328.369,879.666L331.007,878.872L333.078,877.736L334.7,875.979L335.036,876.047L337.082,871.123L337.614,868.691L337.467,865.777L336.965,864.273L335.281,863.698L331.766,864.487L331.005,865.265L328.873,866.033L328.56,866.524L326.118,868.067L324.658,870.792L324.334,873.02L324.531,875.824L324.853,876.556L325.773,878.141L327.144,879.278L328.603,879.758L331.025,879.945L331.769,879.466L333.908,879.65L336.536,877.99L340.446,874.18L341.583,872.51L343.034,869.269L344.16,863.328L344.38,858.424L343.443,854.228L342.562,852.814L342.567,853.476L341.634,855.151L340.847,857.551L340.546,861.204L341.314,865.857L343.467,873.16L346.626,880.73L347.598,881.953L349.415,883.244L352.568,882.914" style="fill:none;fill-rule:nonzero;stroke:black;stroke-width:4px;"/>
                </g>
                <g transform="matrix(1,0,0,1,627.03,-692.186)">
                    <path d="M-269.97,867.727L-269.054,868.014L-270.479,868.654L-270.59,868.968L-271.124,868.817L-271.174,869.023L-271.744,868.492L-271.733,869.278L-271.083,868.844L-270.232,866.674L-264.216,861.959L-262.814,859.462L-263.033,859.125L-262.773,858.694L-262.888,859.227L-262.777,858.869L-263.07,858.91L-262.783,858.94L-263.055,862.475L-262.672,864.476L-262.766,865.712L-260.116,878.834L-259.941,878.15L-259.901,878.363L-260.265,878.333L-260.005,878.504L-258.758,876.742L-257.229,873.996L-255.91,870.239L-255.354,866.906L-254.794,865.559L-253.334,864.212L-253.42,863.753L-253.464,864.415L-253.049,864.466L-250.339,866.927L-249.222,868.875L-248.737,868.83L-246.551,874.388L-246.332,875.757L-242.986,880.143L-243.022,879.64L-242.822,879.885L-242.877,879.31L-242.697,879.411L-242.288,878.381L-240.986,877.31L-239.583,875.216L-238.62,872.738L-237.411,867.644L-235.571,863.611L-235.033,863.071L-234.976,863.524L-234.698,863.254L-234.608,863.537L-234.07,862.909L-233.867,863.314L-232.035,864.113L-231.209,864.762L-230.918,865.552L-226.1,869.121L-225.22,870.126L-224.743,870.107L-223.966,871.482L-222.728,872.436L-222.358,872.385L-222.01,871.724L-221.938,872.075L-221.769,871.507L-221.305,871.767L-219.017,870.377L-217.58,868.162L-216.981,866.028L-217.157,863.959L-217.897,862.148L-218.4,862.003L-218.831,860.737L-219.45,860.798L-219.826,860.462L-221.977,861.66L-222.866,862.902L-223.314,864.193L-223.88,870.075L-223.424,873.949L-222.272,876.438L-220.322,878.346L-219.288,878.951L-217.268,879.573L-213.116,879.507L-210.223,878.651L-208.435,877.33L-207.29,876.005L-206.865,874.95L-206.156,874.469L-204.9,872.735L-204.092,871.03L-203.644,868.902L-203.033,862.893L-202.98,859.099L-202.75,858.914L-202.617,859.357L-202.642,858.738L-203.097,858.899L-203.381,859.46L-204.387,862.923L-204.46,866.34L-203.713,870.389L-202.851,872.875L-201.554,875.205L-199.181,877.276L-196.196,879.091L-195.452,879.002L-193.212,880.322L-191.303,880.641L-190.678,881.09L-188.528,881.184L-186.48,880.5L-183.482,878.501L-183.056,877.659L-182.123,876.947L-181.232,874.751L-180.937,871.099L-181.601,867.514L-182.247,866.795L-183.257,866.643L-185.371,866.989L-186.042,867.468L-188.186,867.959L-190.504,869.243L-192.6,871.648L-193.482,874.446L-193.436,876.267L-193.08,877.296L-191.341,879.804L-190.036,880.417L-189.642,880.953L-187.829,881.115L-183.319,879.265L-182.499,878.254L-181.379,877.942L-178.753,875.198L-176.647,871.464L-174.876,865.77L-174.367,862.042L-174.629,857.246L-175.264,854.971L-175.499,855.499L-175.336,856.406L-176.507,857.642L-177.948,860.47L-178.588,865.018L-178.528,868.545L-177.327,875.297L-174.973,879.399L-174.488,879.564L-173.503,881.55L-171.961,883.153L-170.129,883.754L-167.464,882.884" style="fill:none;fill-rule:nonzero;stroke:black;stroke-width:4px;"/>
                </g>
                <g transform="matrix(1,0,0,1,627.03,-692.186)">
                    <path d="M-445.197,875.316L-446.689,875.648L-446.639,875.938L-445.528,875.74L-445.514,876.075L-445.408,875.563L-442.082,872.993L-441.358,871.88L-439.392,871.041L-437.031,868.866L-435.704,865.657L-435.196,863.169L-434.768,863.082L-435.313,863.93L-435.469,863.661L-435.267,863.164L-434.941,863.91L-434.642,869.305L-433.403,876.149L-432.864,877.084L-432.295,879.958L-431.982,882.847L-431.253,884.547L-431.519,884.568L-430.688,884.446L-429.382,881.795L-428.593,880.895L-428.045,878.703L-427.373,877.76L-426.661,873.983L-425.828,871.408L-425.989,870.333L-425.272,868.852L-425.405,868.509L-424.755,868.23L-424.538,868.786L-424.805,869.377L-424.666,868.95L-421.186,872.17L-417.532,876.889L-417.589,877.396L-414.2,880.606L-413.79,881.45L-413.342,881.581L-413.291,882.352L-413.696,881.343L-413.281,881.784L-411.346,878.252L-409.927,873.36L-409.274,871.989L-408.9,871.876L-408.642,869.913L-407.707,867.457L-407.179,867.806L-406.968,867.593L-405.284,867.833L-402.933,868.71L-400.813,870.573L-400.213,871.642L-399.326,871.842L-398.366,873.691L-397.108,874.648L-397.111,875.069L-396.15,875.383L-394.603,876.646L-392.49,876.777L-392.021,877.066L-390.284,875.996L-389.082,874.317L-388.654,874.25L-387.961,871.974L-388.359,869.559L-388.222,867.975L-389.333,865.56L-391.209,865.114L-391.601,865.306L-392.616,864.893L-393.899,865.745L-395.185,868.699L-395.951,872.222L-395.425,875.091L-394.477,876.964L-391.818,880.572L-389.729,882.153L-386.1,882.794L-382.421,882.508L-378.962,881.676L-377.015,880.876L-373.627,877.928L-371.714,875.644L-370.207,872.252L-369.856,868.789L-370.614,863.264L-371.361,861.423L-371.444,861.739L-372.22,861.391L-373.678,861.752L-375.322,864.26L-375.582,865.886L-376.441,867.596L-376.977,871.245L-376.247,874.439L-375.374,876.178L-371.558,881.003L-369.307,882.43L-367.112,883.201L-362.339,883.759L-360.491,883.643L-359.582,884.077L-355.423,881.973L-354.163,880.642L-352.79,878.468L-352.749,873.414L-353.156,872.188L-352.95,871.547L-353.505,870.187L-354.302,869.288L-356.3,869.322L-359.201,870.684L-361.448,874.055L-362.448,876.621L-362.986,879.733L-362.59,881.581L-361.673,882.251L-359.913,882.394L-357.292,881.426L-354.264,879.781L-353.203,879.556L-351.489,877.869L-350.683,877.547L-347.213,873.389L-344.974,868.793L-344.232,863.328L-344.823,860.433L-345.638,859.327L-345.867,859.405L-345.787,860.359L-346.491,860.846L-346.753,861.548L-348.027,862.444L-348.865,863.743L-349.49,865.914L-349.62,870.605L-348.73,875.89L-345.194,881.474L-343.801,882.574L-343.234,882.514L-341.71,883.599L-341.076,883.376L-340.128,884.144L-339.136,884.21L-337.97,883.552" style="fill:none;fill-rule:nonzero;stroke:black;stroke-width:4px;"/>
                </g>
                <g transform="matrix(1,0,0,1,627.03,-692.186)">
                    <path d="M65.434,873.442L64.574,873.453L64.935,873.739L64.969,874.462L64.98,873.898L65.103,874.355L65.6,874.051L65.701,874.262L66.429,872.941L68.402,870.618L70.161,869.237L71.051,868.986L72.112,867.922L72.437,868.052L73,867.012L73.849,866.281L74.055,865.563L74.536,865.356L74.117,866.401L74.332,866.007L75.747,870.254L77.333,878.728L78.555,882.947L79.594,884.714L79.3,883.87L79.781,883.895L79.921,884.195L81.721,881.394L84.353,876.276L84.653,875.112L86.715,872.832L89.209,868.098L89.347,868.299L89.424,868.051L89.628,868.817L89.593,867.67L89.891,868.27L90.458,868.242L93.446,870.973L95.583,875.241L96.914,876.906L97.277,876.858L99.071,880.51L99.877,881.515L99.785,881.853L100.385,880.611L102.306,873.778L104.551,869.713L106.073,867.999L106.476,868.097L106.293,867.351L106.221,868.284L106.281,868.044L106.711,868.654L109.679,870.477L116.125,875.711L117.034,875.399L117.564,875.6L117.801,875.264L118.453,875.645L119.001,875.088L119.413,875.333L121.291,872.931L122.61,869.444L122.709,868.135L122.335,866.708L122.152,866.921L121.271,865.251L120.368,864.321L117.435,866.164L116.039,867.687L114.965,869.655L114.823,872.281L115.183,874.642L116.17,877.184L118.802,878.852L123.571,880.901L128.12,880.625L131.702,879.111L132.428,878.46L134.909,877.57L136.951,875.674L137.62,874.599L139.659,869.892L141.681,860.921L141.556,858.725L140.639,857.563L140.584,858.133L140.35,857.436L139.101,859.235L138.493,862.286L138.584,867.427L139.951,877.586L141.38,879.477L145.281,881.62L148.205,882.382L151.926,882.325L153.889,881.776L155.506,880.816L157.145,879.457L158.421,877.89L159.544,874.961L159.888,871.955L159.617,866.992L158.844,865.142L157.789,865.47L157.319,866.124L156.864,865.902L155.629,866.095L153.381,867.265L152.415,868.255L151.08,870.626L149.944,875.023L150.236,877.22L151.441,878.692L153.086,879.487L155.83,879.871L158.975,878.671L163.258,876.297L167.473,872.898L168.694,871.382L171.035,867.205L171.863,863.945L172.188,860.378L171.926,859.12L171.008,857.868L170.756,858.316L170.497,858.196L170.491,857.79L170.269,858.531L169.039,859.378L167.999,860.74L167.031,862.369L166.494,864.142L166.543,868.5L167.471,873.186L169.159,876.943L173.229,881.332L177.116,883.029L178.71,882.899" style="fill:none;fill-rule:nonzero;stroke:black;stroke-width:4px;"/>
                </g>
            </g>
        </g>
    </g>
</svg>
