<?xml version="1.0" encoding="UTF-8" standalone="no"?>
<!DOCTYPE svg PUBLIC "-//W3C//DTD SVG 1.1//EN" "http://www.w3.org/Graphics/SVG/1.1/DTD/svg11.dtd">
<svg width="100%" height="100%" viewBox="0 0 1286 38" version="1.1" xmlns="http://www.w3.org/2000/svg" xmlns:xlink="http://www.w3.org/1999/xlink" xml:space="preserve" xmlns:serif="http://www.serif.com/" style="fill-rule:evenodd;clip-rule:evenodd;stroke-linecap:round;stroke-linejoin:round;">
    <g transform="matrix(1,0,0,1,-9.07,-64.6165)">
        <g id="hell" transform="matrix(1,0,0,1,4.82,13.6595)">
            <rect x="4.25" y="50.957" width="1285.41" height="37.369" style="fill:none;"/>
            <clipPath id="_clip1">
                <rect x="4.25" y="50.957" width="1285.41" height="37.369"/>
            </clipPath>
            <g clip-path="url(#_clip1)">
                <g transform="matrix(1,0,0,1,627.25,-692.043)">
                    <path d="M73.464,773.887L72.664,775.326L72.521,775.069L72.609,775.639L72.858,774.993L73.043,775.519L73.331,775.385L73.458,775.68L73.851,775.133L76.408,773.523L78.596,772.627L81.828,770.318L84.855,766.521L86.951,761.761L87.533,759.383L88.24,751.959L88.04,751.503L88.294,751.755L90.537,769.38L91.376,774.03L91.653,774.294L91.597,773.885L91.84,774.271L93.67,771.319L98.043,765.45L101.039,762.44L101.435,762.598L102.736,761.015L104.128,760.547L104.44,761.235L104.998,760.641L105.999,760.943L107.897,763.316L109.535,766.846L110.821,768.372L111.179,768.265L112.394,770.128L115.433,772.468L118.659,772.683L119.317,772.067L120.721,772.211L121.423,771.804L123.48,771.506L125.13,770.589L125.758,770.76L127.541,768.922L128.421,768.713L130.484,767.164L131.032,767.177L132.372,765.135L133.807,762.032L134.328,760.108L134.359,758.761L134.14,758.904L133.691,757.1L130.449,759.594L128.997,761.71L128.221,764.45L128.473,767.576L130.132,770.448L130.657,770.495L132.071,772.095L135.273,773.333L138.147,773.059L140.48,772.073L141.254,771.361L142.796,770.953L143.434,770.051L145.222,769.311L145.985,768.444L148.543,766.696L151.058,763.743L152.533,760.113L153.026,758.019L154.162,751.261L154.052,750.557L153.668,750.447L153.707,749.786L153.429,750.265L153.368,749.935L153.262,750.775L152.763,750.987L151.348,752.786L150.337,756.128L149.706,760.846L149.747,764.664L150.791,768.659L151.176,768.875L151.79,770.827L152.867,772.254L155.177,773.839L156.9,774.011L159.296,773.616L160.723,773.126L161.341,772.331L162.984,771.57L164.249,770.451L167.457,766.292L168.696,762.82L169.388,759.492L170.044,749.564L169.822,750.544L169.324,750.669L168.087,751.98L167.139,754.498L166.79,758.56L167.338,763.314L168.346,766.645L170.124,770.367L170.951,771.32L171.505,771.41L173.037,773.152L173.649,773.249L175.527,774.588L179.648,774.028L184.788,772.428" style="fill:none;fill-rule:nonzero;stroke:black;stroke-width:4px;"/>
                </g>
                <g transform="matrix(1,0,0,1,627.25,-692.043)">
                    <path d="M-265.446,775.896L-264.806,776.446L-263.484,775.3L-260.341,773.768L-255.783,770.325L-251.022,765.646L-248.344,762.153L-247.154,759.119L-246.9,754.489L-247.302,749.721L-248.057,746.268L-249.083,745.957L-249.561,746.186L-249.635,746.889L-251.176,749.416L-251.813,752.587L-251.806,755.453L-250.723,761.072L-247.329,770.301L-246.976,774.349L-246.369,775.717L-245.89,776.006L-246.072,775.393L-245.905,775.88L-245.704,775.148L-244.519,774.166L-242.434,771.408L-241.461,770.575L-236.804,763.272L-234.025,760.331L-232.803,759.582L-232.568,759.808L-232.265,759.134L-232.282,759.899L-231.723,760.722L-230.575,761.207L-229.527,762.577L-228.835,762.944L-226.347,768.365L-224.937,770.299L-224.064,771.037L-223.78,770.848L-223.075,771.89L-222.662,771.803L-221.322,773.411L-219.983,773.938L-217.533,774.07L-214.606,772.926L-213.676,771.92L-211.866,771.28L-209.489,769.593L-206.555,765.365L-205.764,763.611L-205.641,761.433L-205.943,757.858L-206.532,756.873L-207.12,757.047L-207.487,757.695L-208.553,757.961L-209.888,759.271L-210.825,760.87L-211.482,764.256L-211.368,766.178L-210.824,767.94L-208.712,770.653L-208.112,770.741L-207.22,771.927L-205.217,773.381L-204.802,774.135L-201.206,774.572L-197.885,774.138L-194.456,772.561L-191.012,770.114L-187.914,766.42L-186.55,763.74L-185.615,760.258L-184.851,751.453L-185.04,750.578L-186.901,751.215L-188.073,752.133L-188.135,751.908L-188.442,752.645L-189.25,757.055L-189.601,761.157L-189.487,765.427L-188.596,768.12L-187.201,770.105L-185.844,771.373L-182.693,772.454L-182.125,772.273L-181.043,772.739L-180.209,772.669L-178.089,771.77L-174.37,769.074L-171.72,766.183L-168.535,761.883L-167.655,759.804L-167.154,757.03L-167.273,750.23L-167.888,749.256L-170.222,753.087L-170.754,754.975L-171.012,759.066L-170.443,762.486L-168.294,766.184L-166.36,768.44L-164.124,770.315L-163.512,771.299L-162.481,771.511L-161.308,771.312" style="fill:none;fill-rule:nonzero;stroke:black;stroke-width:4px;"/>
                </g>
                <g transform="matrix(1,0,0,1,627.25,-692.043)">
                    <path d="M388.728,775.676L389.297,776.252L390.049,774.982L392.438,773.5L397.236,769.136L404.143,762.331L405.739,760.108L407,756.881L407.432,754.206L407.605,750.667L407.387,748.766L406.906,748.135L407.043,749.3L406.439,753.252L407.031,761.305L407.033,770.263L407.548,772.895L408.401,774.833L412.417,767.035L413.976,764.945L418.577,761.212L419.28,761.023L420.773,761.597L421.088,762.201L421.714,762.156L422.932,763.237L423.312,763.061L426.148,767.653L427.513,771.271L429.07,772.987L430.151,773.143L430.448,773.639L435.907,771.899L437.032,770.991L441.835,768.756L443.075,767.555L443.629,767.42L444.836,766.064L445.633,763.284L445.912,759.321L445.052,757.275L444.519,756.866L443.939,757.05L443.871,757.5L443.29,757.581L441.948,758.815L440.162,762.168L439.853,764.211L439.968,765.911L441.066,768.972L442.075,770.515L444.714,773.392L447.701,775.35L448.6,775.739L452.285,776.051L454.849,775.307L460.281,772.135L461.293,770.99L463.888,769.539L466.15,766.616L467.757,762.915L468.694,759.341L469.623,752.365L469.666,751.168L469.516,750.77L469.277,750.853L469.303,750.372L468.885,751.121L469.071,751.272L468.222,752.095L467.101,754.042L465.712,759.261L466.071,764.299L466.692,766.72L468.079,769.615L470.219,772.303L471.511,773.151L472.663,773.435L474.231,773.538L476.783,772.914L479.298,771.83L482.321,769.876L484.161,767.804L484.753,767.591L485.766,766.236L487.283,763.06L488.404,755.049L488.522,751.061L488.229,751.36L488.11,751.125L488.313,751.418L488.108,752.007L486.619,752.884L485.618,756.145L485.154,759.723L485.794,764.058L488.703,772.137L490.118,774.441L491.506,775.701L492.773,776.186L493.271,776.726L495.187,776.351L499.038,776.229L501.925,775.543" style="fill:none;fill-rule:nonzero;stroke:black;stroke-width:4px;"/>
                </g>
                <g transform="matrix(1,0,0,1,627.25,-692.043)">
                    <path d="M551.999,776.569L552.169,776.234L552.442,776.444L552.423,777.047L558.66,773.104L561.888,769.954L565.864,764.839L566.961,761.732L567.512,758.741L567.311,753.953L566.782,750.143L566.845,751.585L565.695,754.772L565.33,760.257L566.736,770.114L567.378,773.119L567.972,774.018L568.157,773.115L568.215,773.681L568.676,773.534L569.021,772.729L571.246,770.263L574.011,766.318L575.589,765.17L578.89,761.618L579.484,761.632L580.033,760.713L580.445,760.729L580.453,760.389L580.547,760.885L583.626,763.127L585.057,764.889L585.499,764.851L587.906,768.455L591.036,771.685L593.404,772.649L596.686,772.47L597.614,772.133L600.054,771.142L601.866,770.005L604.521,767.542L605.728,765.376L606.636,762.424L606.116,759.683L605.774,759.187L602.92,760.739L602.336,761.682L601.21,762.449L600.582,767.242L600.918,770.275L602.109,773.029L604.826,774.932L608.725,776.652L610.681,776.825L611.718,776.504L617.972,773.242L620.254,771.443L621.458,769.727L623.139,765.676L623.652,763.58L624.99,756.139L624.796,753.863L622.68,758.161L622.461,760.345L622.765,763.866L624.699,771.697L625.554,773.468L626.898,774.64L628.584,774.632L630.118,773.882L632.157,773.512L635.223,771.969L639.644,767.598L642.4,764.284L644.102,761.703L646.057,756.53L646.032,751.348L646.016,752.212L644.336,754.678L643.624,756.349L643.097,758.796L643.081,762.03L643.771,766.057L645.358,769.535L646.803,771.8L649.43,774.619L651.509,775.534L660.661,772.937" style="fill:none;fill-rule:nonzero;stroke:black;stroke-width:4px;"/>
                </g>
                <g transform="matrix(1,0,0,1,627.25,-692.043)">
                    <path d="M-620.507,776.748L-620.75,776.894L-620.195,777.418L-620.3,777.174L-618.897,776.764L-616.891,775.189L-613.623,771.407L-611.649,767.886L-609.309,762.549L-608.683,759.561L-608.68,755.151L-609.532,752.826L-609.298,753.382L-609.987,756.572L-610.25,764.909L-608.707,772.34L-608.695,774.249L-608.262,775.113L-607.79,775.055L-608.306,774.806L-607.284,774.517L-604.973,771.659L-601.463,766.57L-597.7,762.467L-595.804,760.971L-594.618,761.602L-594.306,762.4L-592.783,763.467L-592.283,764.78L-590.898,766.669L-588.478,771.119L-586.189,772.874L-581.503,773.278L-576.561,771.62L-573.332,769.281L-570.053,764.548L-568.813,759.437L-569.048,758.315L-569.485,757.997L-569.962,758.479L-570.359,758.239L-572.209,758.823L-573.393,759.731L-575.633,764.463L-575.683,766.868L-575.279,768.039L-574.182,769.759L-572.479,771.078L-571.208,772.725L-568.763,773.945L-566.416,774.493L-563.621,774.663L-559.565,773.909L-557.567,773.023L-554.358,770.818L-551.23,768.204L-549.644,765.814L-547.969,762.402L-547.257,758.969L-547.211,754.549L-547.526,753.665L-547.236,752.751L-547.754,752.89L-549.155,754.805L-550.503,758.321L-550.782,759.991L-550.722,763.093L-549.911,766.37L-548.844,768.896L-547.662,769.818L-545.919,772.244L-543.979,772.629L-540.732,771.192L-537.792,769.135L-535.173,766.53L-535.128,765.706L-533.64,763.483L-533.208,762.086L-533.179,760.489L-532.689,759.5L-533.023,750.654L-533.356,749.932L-532.981,750.896L-534.094,752.149L-535.152,754.263L-536.013,755.115L-536.2,756.954L-536.004,760.64L-534.466,767.437L-532.295,771.493L-530.47,773.519L-529.757,773.708L-528.009,775.109L-527.646,775.233L-527.178,774.857L-526.328,775.026L-524.32,774.11L-522.748,772.958" style="fill:none;fill-rule:nonzero;stroke:black;stroke-width:4px;"/>
                </g>
                <g transform="matrix(1,0,0,1,627.25,-692.043)">
                    <path d="M-442.54,776.82L-442.284,777.613L-442.061,777.353L-442.284,777.309L-442.045,777.439L-441.5,777.011L-436.152,775.688L-432.577,772.817L-431.085,770.966L-428.297,768.599L-426.568,766.104L-425.802,764.306L-425.399,758.94L-425.899,754.842L-426.366,754.153L-426.531,752.698L-426.811,752.572L-427.162,752.882L-426.931,752.964L-426.952,753.878L-427.65,757.542L-427.349,762.951L-426.871,766.162L-426.136,768.372L-425.354,774.262L-424.474,775.873L-423.9,775.84L-424.121,776.076L-424.035,775.343L-424.402,775.181L-424.436,775.469L-424.158,775.472L-423.449,774.362L-421.394,772.679L-419.976,770.096L-419.118,769.398L-417.513,767.124L-415.323,763.144L-413.974,762.267L-411.866,762.909L-411.466,762.587L-410.013,764.47L-408.496,767.561L-407.433,770.663L-407.6,771.224L-406.773,772.259L-406.31,773.887L-405.147,775.722L-404.411,775.386L-403.336,775.82L-400.022,775.682L-397.904,775.319L-396.658,774.481L-396.054,774.521L-393.247,771.373L-392.947,770.595L-391.796,769.928L-390.528,768.165L-389.795,765.746L-389.446,762.434L-389.725,762.265L-389.71,761.548L-390.096,760.683L-391.447,760.606L-391.896,760.258L-393.328,762.042L-394.133,763.975L-394.308,765.352L-393.658,769.074L-392.092,772.394L-389.704,775.76L-387.876,776.774L-386.283,777.105L-385.575,776.822L-383.7,777.431L-379.902,777.245L-376.919,776.252L-372.945,773.958L-370.14,770.878L-368.222,769.634L-366.189,767.258L-364.583,763.198L-364.576,761.111L-364.907,759.418L-365.601,758.078L-366.821,757.05L-367.166,757.398L-367.471,757.241L-367.917,758.429L-368.604,758.788L-368.992,759.569L-368.94,760.3L-369.773,761.421L-370.126,764.933L-369.254,768.7L-368.641,769.436L-367.145,773.237L-365.484,775.145L-364.143,776.027L-362.196,776.532L-361.573,777.063L-359.42,776.854L-358.533,777.222L-355.698,776.285L-352.495,774.584L-348.816,770.526L-347.375,766.25L-347.123,755.553L-347.253,754.588L-347.548,754.365L-347.875,754.41L-348.44,755.421L-349.706,758.917L-349.789,763.326L-349.072,766.463L-347.866,769.502L-345.606,772.917L-344.806,774.773L-343.778,775.991L-342.702,776.701L-341.446,777.239L-341.014,777.083L-339.314,777.539L-336.852,776.977L-334.617,775.546" style="fill:none;fill-rule:nonzero;stroke:black;stroke-width:4px;"/>
                </g>
                <g transform="matrix(1,0,0,1,627.25,-692.043)">
                    <path d="M237.658,778L237.028,778.446L237.156,778.923L238.427,778.432L244.955,773.382L248.465,769.422L249.656,767.292L252.476,760.626L253.158,755.734L253.051,749.158L254.236,760.031L254.502,765.562L255.775,774.72L255.888,773.895L257.344,771.152L260.766,765.518L263.766,762.321L265.605,761.428L266.729,761.501L267.299,761.045L267.389,761.377L267.62,760.81L270.102,763.244L272.159,766.895L274.828,770.402L276.751,773.668L280.76,774.553L284.419,773.824L286.547,772.817L287.517,772.002L288.243,771.862L290.916,768.741L292.124,766.799L293.054,762.875L293.006,761.509L292.472,760.213L290.892,759.499L290.05,760.076L288.761,763.353L288.365,767.531L289.063,769.74L292.577,774.087L295.224,775.91L297.835,776.045L301.873,775.467L306.412,773.225L307.9,771.96L312.759,766.546L314.126,763.949L314.662,761.602L314.488,757.727L313.901,753.83L313.474,752.808L313.227,753.12L313.018,752.749L312.102,753.311L310.608,755.806L309.999,759.258L309.893,765.586L310.672,769.753L312.289,772.73L314.12,774.771L316.354,776.051L318.191,776.321L319.933,776.005L320.788,775.303L321.956,775.282L323.8,774.23L326.329,773.352L330.4,769.138L331.394,767.426L332.597,764.62L333.38,760.177L333.31,754.911L332.646,752.091L332.361,753.38L331.529,754.096L330.444,755.907L329.737,759.897L330.153,764.411L331.87,768.914L333.793,771.893L335.039,773.026L335.599,772.832L336.677,774.019L339.333,774.782L344.472,773.888" style="fill:none;fill-rule:nonzero;stroke:black;stroke-width:4px;"/>
                </g>
                <g transform="matrix(1,0,0,1,627.25,-692.043)">
                    <path d="M-98.997,778.16L-98.44,779.326L-98.632,778.745L-97.584,778.989L-94.732,776.961L-92.198,774.546L-87.365,767.644L-86.423,764.637L-86.082,761.978L-86.109,756.374L-86.347,753.58L-86.677,752.996L-86.102,753.989L-85.041,762.889L-83.346,770.852L-81.553,774.573L-81.622,773.703L-80.873,773.209L-79.032,770.884L-74.217,763.799L-73.638,763.602L-72.413,762.397L-69.795,761.795L-68.87,762.147L-67.745,763.658L-65.371,768.623L-62.32,773.29L-61.322,773.756L-59.641,773.837L-58.604,773.314L-57.546,773.322L-55.302,772.654L-52.302,771.251L-51.623,771.222L-47.601,766.668L-46.922,764.512L-46.415,759.758L-46.529,759.46L-47.583,759.135L-47.707,758.762L-48.635,759.447L-49.567,761.175L-50.592,763.757L-50.697,764.954L-50.045,767.415L-47.258,771.668L-45.783,772.573L-45.326,773.2L-42.509,773.885L-40.117,774.067L-37.83,773.82L-35.917,773.209L-32.535,771.234L-30.023,769.258L-27.537,766.177L-26.135,763.246L-25.408,759.008L-25.28,755.326L-25.967,754.088L-27.683,758.014L-28.473,761.462L-28.652,764.58L-28.184,767.718L-26.698,770.55L-23.583,773.893L-21.764,774.924L-21.221,774.626L-19.993,775.178L-17.436,774.893L-14.067,772.799L-11.263,770.542L-8.474,767.562L-6.591,764.107L-5.687,760.669L-5.526,756.138L-5.836,751.878L-5.964,752.493L-7.321,753.671L-8.129,754.886L-8.84,758.634L-8.408,764.71L-7.519,768.281L-7.183,768.505L-6.58,770.513L-3.536,776.154L-2.09,777.142L1.461,776.911L2.898,776.217L4.455,776.083" style="fill:none;fill-rule:nonzero;stroke:black;stroke-width:4px;"/>
                </g>
            </g>
        </g>
    </g>
</svg>
