<?xml version="1.0" encoding="UTF-8" standalone="no"?>
<!DOCTYPE svg PUBLIC "-//W3C//DTD SVG 1.1//EN" "http://www.w3.org/Graphics/SVG/1.1/DTD/svg11.dtd">
<svg width="100%" height="100%" viewBox="0 0 1286 34" version="1.1" xmlns="http://www.w3.org/2000/svg" xmlns:xlink="http://www.w3.org/1999/xlink" xml:space="preserve" xmlns:serif="http://www.serif.com/" style="fill-rule:evenodd;clip-rule:evenodd;stroke-linecap:round;stroke-linejoin:round;">
    <g transform="matrix(1,0,0,1,-5.07,0)">
        <g id="well" transform="matrix(1,0,0,1,-70.049,-693.91)">
            <rect x="75.119" y="693.91" width="1285.32" height="33.863" style="fill:none;"/>
            <clipPath id="_clip1">
                <rect x="75.119" y="693.91" width="1285.32" height="33.863"/>
            </clipPath>
            <g clip-path="url(#_clip1)">
                <g transform="matrix(1,0,0,1,702.119,0.91)">
                    <path d="M-441.271,714.102L-442.246,714.661L-442.782,714.316L-442.491,714.504L-442.333,714.144L-441.755,714.433L-439.632,713.078L-430.972,709.557L-429.598,707.712L-428.923,706.157L-428.834,704.98L-429.067,704.897L-428.701,704.852L-429.124,704.819L-428.888,705.405L-428.599,705.044L-428.867,705.061L-428.742,704.835L-428.983,705.104L-428.857,705.725L-426.257,715.238L-425.139,722.5L-424.681,722.735L-424.723,722.388L-424.445,722.338L-424.771,722.316L-424.857,721.906L-424.758,722.533L-423.808,721.356L-421.316,715.798L-419.507,710.676L-416.917,707.133L-416.256,706.746L-416.407,706.514L-416.988,706.98L-416.783,707.942L-415.627,709.102L-414.994,710.493L-414.765,710.436L-413.678,712.106L-411.343,716.418L-411.203,717.201L-407.431,722.868L-407.32,722.63L-407.724,722.228L-407.764,722.641L-407.516,722.331L-407.205,722.624L-404.755,718.288L-402.739,712.883L-402.183,712.093L-401.248,707.112L-401.737,707.196L-401.386,707.421L-401.46,708.256L-401.181,707.841L-400.472,707.917L-397.305,709.676L-393.709,712.98L-393.159,713.907L-390.793,715.376L-390.433,715.091L-389.275,716.071L-389.122,716.704L-387.976,716.807L-386.652,716.654L-384.654,715.164L-383.047,713.077L-383.048,712.405L-382.268,711.345L-382.053,708.737L-382.51,706.911L-383.138,705.964L-384.156,705.458L-384.368,705.997L-384.845,705.529L-387.641,706.284L-389.308,708.019L-390.089,710.372L-390.019,713.46L-388.331,717.409L-385.717,721.261L-382.352,723.837L-379.54,724.654L-376.631,723.793L-375.885,722.647L-375.512,722.909L-374.311,722.573L-373.348,721.62L-371.054,720.832L-367.91,717.784L-365.692,714.525L-364.771,712.665L-364.818,711.549L-364.098,708.691L-364.22,707.398L-363.492,701.781L-364.069,698.808L-364.224,699.429L-364.507,699.365L-364.067,699.782L-364.376,699.944L-364.131,700.217L-364.894,705.681L-364.47,710.113L-362.362,717.059L-361.737,717.491L-360.957,719.345L-360.449,719.202L-359.527,720.494L-357.586,721.692L-355.53,721.216L-351.203,719.239L-350.409,718.241L-348.615,716.927L-345.981,712.684L-344.295,708.136L-344.135,703.813L-344.581,701.927L-345.07,701.812L-345.468,700.897L-345.036,701.157L-345.327,701.436L-345.359,701.218L-345.154,700.929L-345.103,701.134L-345.827,702.321L-346.443,702.512L-348.182,704.982L-348.48,706.009L-348.201,706.922L-348.321,708.551L-347.298,712.01L-345.252,716.202L-342.98,718.867L-340.849,720.701L-338.34,721.546L-334.128,721.476L-329.914,720.246" style="fill:none;fill-rule:nonzero;stroke:black;stroke-width:4px;"/>
                </g>
                <g transform="matrix(1,0,0,1,702.119,0.91)">
                    <path d="M392.243,709.763L391.715,710.517L391.851,710.734L392.947,710.234L395.035,708.215L399.04,705.793L401.802,703.031L402.273,701.932L403.151,701.053L403.662,699.311L403.522,699.643L403.408,699.262L403.354,699.604L403.405,699.213L403.15,699.925L402.802,703.621L403.229,706.873L405.443,716.175L406.048,717.409L406.134,716.916L406.208,717.497L411.939,709.94L413.933,706.584L414.634,704.739L415.946,702.724L416.83,702.135L416.766,702.607L417.39,702.593L419.136,704.289L422.392,710.557L422.732,710.672L425.286,716.7L425.759,717.127L425.816,717.678L426.106,717.673L426.135,717.023L425.908,717.505L426.305,717.343L427.583,715.782L429.587,712.156L431.721,706.841L434.033,702.708L434.795,702.522L435.142,703.186L435.756,702.412L437.644,702.917L440.99,705.54L441.299,706.363L444.101,709.22L446.284,710.341L449.008,708.985L450.625,707.794L451.674,706.464L451.987,706.638L452.703,704.647L453.077,701.764L453.006,701.246L452.758,701.05L452.682,701.376L452.207,700.785L449.601,701.811L447.569,703.997L446.723,705.627L446.091,708.861L446.661,712.984L448.094,716.155L449.853,718.615L453.258,720.251L455.852,720.781L456.698,720.492L459.337,720.769L464.78,718.362L465.625,717.331L466.402,717.114L468.512,715.347L470.46,712.518L471.912,709.08L472.777,704.994L473.486,696.821L473.178,695.91L473.272,696.343L472.07,697.791L471.245,699.963L470.708,703.238L470.743,706.004L472.016,713.575L473.179,716.425L474.451,718.067L476.16,719.057L477.284,718.853L479.034,719.126L480.422,718.47L481.029,718.508L484.8,715.79L487.144,713.524L489.422,710.482L491.236,706.281L491.879,703.802L492.702,699.065L492.578,696.803L492.336,697.512L492.579,697.556L492.39,697.04L490.726,698.592L489.393,700.962L488.851,702.923L488.726,704.893L489.021,709.463L489.72,712.997L491.773,718.504L493.814,720.999L497.023,722.461L500.999,722.801L506.511,721.743" style="fill:none;fill-rule:nonzero;stroke:black;stroke-width:4px;"/>
                </g>
                <g transform="matrix(1,0,0,1,702.119,0.91)">
                    <path d="M563.04,715.053L563.79,714.575L564.209,714.858L563.995,714.733L564.076,714.945L563.548,715.183L563.828,714.778L564.077,715.197L564.879,713.536L569.348,709.319L572.064,705.078L573.493,701.599L573.202,702.263L573.312,701.736L573.474,702.127L574.321,707.648L574.49,711.145L576.677,720.922L577.106,722.221L577.667,722.924L577.691,722.614L577.746,723.208L577.952,722.182L580.583,719.103L585.448,708.85L586.518,707.31L586.819,707.466L586.742,708.257L586.408,708.151L586.695,707.795L586.892,708.21L587.543,708.214L591.399,713.353L593.6,718.977L594.28,719.675L594.773,721.29L595.209,721.453L595.299,721.135L595.072,721.14L595.391,721.154L596.9,718.91L598.957,713.267L600.112,708.562L600.305,708.74L601.344,705.794L601.8,706.895L602.928,706.768L605.956,708.306L608.137,710.613L610.467,712.373L613.104,712.788L615.86,709.574L616.814,707.761L616.918,704.154L616.552,702.679L615.715,701.697L615.329,702.306L611.979,704.005L611.353,704.945L609.794,709.629L609.998,715.266L610.741,717.015L613.161,719.208L615.808,719.805L619.246,719.494L621.126,718.818L624.625,716.515L626.802,714.307L629.416,710.668L630.227,708.885L630.403,706.717L630.023,702.493L629.334,700.438L629.01,701.455L627.169,703.205L625.741,706.386L625.539,709.728L626.652,714.468L628.728,718.013L631.48,720.339L634.222,721.752L636.48,721.531L640.319,720.501L644.94,718.201L646.13,717.223L647.738,714.642L648.661,712.068L649.19,708.799L649.222,700.596L648.906,699.703L646.916,702.17L645.926,704.952L645.897,706.268L646.988,710.279L649.152,715.375L651.565,719.479L654.049,721.481L656.443,721.69" style="fill:none;fill-rule:nonzero;stroke:black;stroke-width:4px;"/>
                </g>
                <g transform="matrix(1,0,0,1,702.119,0.91)">
                    <path d="M72.978,712.91L73.189,713.169L73.688,713.025L73.698,712.574L75.477,711.292L80.06,709.272L83.448,706.919L85.315,703.949L85.443,702.481L85.575,703.058L85.704,702.377L87.063,707.473L88.764,716.476L89.969,720.013L91.746,722.697L91.63,722.509L91.966,722.423L94.575,718.901L95.163,717.586L96.554,716.021L99.681,708.104L100.862,707.043L101.782,705.568L101.717,706.041L102.205,706.237L106.811,714.315L109.328,721.685L109.769,722.122L110.012,721.644L110.024,722.13L110.722,720.618L112.761,718.521L114.58,716.005L116.384,711.343L117.518,707.184L117.973,708.331L120.798,708.865L123.126,712.287L124.305,712.851L124.673,713.504L128.131,714.686L128.534,715.196L132.535,713.767L137.276,710.36L138.973,707.044L139.29,705.438L138.984,703.947L138.339,703.321L135.6,703.775L133.687,705.076L132.823,706.573L132.658,706.396L132.17,706.962L131.156,709.304L131.294,714.029L132.955,717.128L135.242,718.836L135.832,718.671L138.044,720.289L140.35,720.807L142.672,720.539L143.659,720.781L151.265,717.052L152.967,715.603L155.311,712.288L156.519,709.726L157.085,706.1L156.862,697.539L154.937,699.262L153.792,702.054L152.776,708.303L152.936,712.597L154.393,716.137L155.472,717.41L157.299,718.567L157.864,718.442L158.8,718.986L161.532,719.214L162.813,718.866L163.158,718.471L163.955,718.562L165.547,717.752L167.954,715.808L170.068,713.145L171.918,709.684L173.466,705.342L173.975,702.422L174.302,697.885L174.088,696.445L173.993,696.683L173.669,696.048L173.786,696.52L172.966,696.875L171.206,699.136L170.543,700.945L170.024,704.397L170.72,709.092L172.512,713.397L175.26,717.39L178.649,719.561L179.195,719.256L180.628,720.235L182.383,720.538L187.296,719.292" style="fill:none;fill-rule:nonzero;stroke:black;stroke-width:4px;"/>
                </g>
                <g transform="matrix(1,0,0,1,702.119,0.91)">
                    <path d="M246.485,709.875L245.766,709.567L246.178,710.032L246.594,709.539L246.679,709.745L246.917,709.436L247.729,709.387L248.728,708.117L250.117,707.411L250.636,706.67L251.955,706.251L254.398,704.77L256.463,702.095L256.98,699.834L257.17,700.28L257.056,700.09L256.835,700.735L259.865,715.19L261.301,719.169L261.141,718.916L261.335,718.977L261.5,718.142L261.845,718.224L262.639,717.423L263.254,716.194L264.432,714.958L266.06,711.947L268.047,705.787L270.131,701.238L269.983,702.309L270.151,701.511L270.275,702.576L270.674,702.802L275.367,712.284L276.471,713.89L277.669,715.204L278.016,715.242L278.809,716.873L278.88,716.257L278.936,716.925L281.108,711.195L283.533,706.72L285.076,704.692L286.838,703.504L289.926,703.068L292.078,703.969L293.285,704.846L293.835,704.628L296.158,707.286L296.442,708.018L297.598,708.594L299.631,710.505L300.369,710.546L300.836,711.044L301.519,710.753L304.448,708.349L304.787,708.482L305.623,707.346L306.492,704.635L306.69,702.786L306.301,701.314L305.787,700.554L305.618,700.81L305.336,699.916L304.592,699.62L302.87,699.481L302.267,699.996L299.715,702.973L298.987,704.503L298.511,705.903L298.399,708.148L299.18,712.874L300.432,716.741L302.884,719.273L303.43,719.128L304.526,719.846L307.047,720.461L309.745,720.197L312.305,719.285L314.168,718.131L315.1,718.047L319.005,714.404L321.237,711.775L322.227,709.963L322.98,706.351L323.042,700.282L322.734,698.176L322.668,698.802L321.406,700.448L320.13,704.558L319.552,709.292L319.804,714.267L320.703,717.793L321.858,720.005L323.251,721.823L325.185,723.118L326.43,723.276L330.256,722.063L332.459,720.63L335.103,718.08L338.8,712.155L340.04,708.256L340.483,704.341L340.402,701.072L339.956,699.443L339.59,699.618L339.542,699.377L339.81,700.21L338.192,701.769L337.288,703.359L336.501,706.076L336.402,708.664L336.992,713.289L338.662,718.055L339.636,719.209L342.049,720.523L343.103,720.23L343.659,720.595L346.721,720.696L351.361,719.962" style="fill:none;fill-rule:nonzero;stroke:black;stroke-width:4px;"/>
                </g>
                <g transform="matrix(1,0,0,1,702.119,0.91)">
                    <path d="M-97.357,714.607L-97.155,714.085L-96.726,714.41L-96.07,713.753L-93.342,712.396L-89.735,711.405L-86.125,710.83L-83.911,709.888L-81.337,706.711L-80.92,703.623L-81.057,704.37L-80.2,707.001L-79.302,708.851L-76.933,716.487L-74.611,722.491L-74.689,721.876L-74.556,722.053L-72.94,719.718L-72.357,719.375L-68.694,713.237L-65.709,709.109L-64.56,706.358L-62.266,710.115L-61.983,711.555L-60.361,715.035L-59.4,718.27L-57.155,723.234L-57.315,722.137L-57.018,722.604L-54.137,718.68L-50.535,706.095L-50.284,706.837L-47.415,708.19L-45.714,709.52L-43.77,711.493L-42.796,712.077L-42.097,713.221L-39.51,714.232L-38.573,714.967L-37.747,715.099L-34.244,714.542L-31.61,712.657L-31.199,711.916L-30.528,711.46L-30.193,711.586L-29.318,709.998L-28.715,706.601L-29.352,705.248L-30.167,704.657L-33.321,704.926L-34.636,705.919L-35.118,706.956L-35.262,706.764L-35.828,707.113L-36.771,709.411L-36.537,711.776L-35.815,714.03L-33.514,718.552L-32.562,719.857L-31.35,720.615L-30.96,721.34L-30.04,721.714L-29.526,721.465L-28.036,722.065L-27.351,721.826L-25.207,722.171L-20.642,720.592L-16.431,717.954L-13.922,715.482L-11.454,712.104L-10.594,709.609L-9.996,705.119L-9.995,701.051L-10.303,700.174L-10.817,699.758L-11.575,700.267L-13.551,703.731L-15.287,707.812L-15.689,710.254L-15.432,713.364L-14.524,716.757L-12.895,719.699L-10.704,721.986L-8.755,722.946L-8.286,722.681L-7.444,722.984L-4.591,722.233L-2.815,721.398L2.534,715.358L4.203,712.095L4.891,708.487L4.749,703.064L4.315,701.565L4.446,701.857L4.334,701.65L4.134,702.288L3.088,702.954L2.023,704.954L1.939,709.008L2.397,711.571L3.879,716.204L6.552,722.637L6.792,723.011L8.899,723.741L10.213,723.29L17.078,722.94" style="fill:none;fill-rule:nonzero;stroke:black;stroke-width:4px;"/>
                </g>
                <g transform="matrix(1,0,0,1,702.119,0.91)">
                    <path d="M-264.728,712.91L-263.781,712.585L-264.058,713.215L-263.631,712.88L-262.55,713.077L-257.229,710.54L-253.388,707.782L-252.633,706.773L-252.768,705.336L-252.57,705.091L-252.724,705.432L-252.497,705.551L-252.485,705.08L-251.83,708.417L-249.381,715.325L-247.773,721.616L-247.261,722.991L-246.797,723.441L-246.753,723.133L-246.607,723.578L-246.412,723.179L-246.731,723.776L-244.629,720.627L-240.003,710.751L-239.941,710.022L-238.669,707.872L-238.355,707.972L-238.668,708.597L-238.396,708.361L-237.377,709.87L-236.802,710.103L-235.779,711.502L-235.632,712.274L-234.14,713.699L-232.849,715.964L-232.548,715.687L-232.299,715.896L-231.058,718.201L-230.36,718.752L-228.17,721.832L-227.628,722.107L-227.696,721.101L-227.087,720.521L-225.285,716.64L-223.737,709.776L-222.373,706.804L-221.903,706.952L-221.976,707.461L-220.871,707.286L-219.679,707.776L-219.138,707.515L-214.257,711.507L-213.764,712.478L-210.33,714.016L-207.284,712.243L-205.838,711.116L-205.259,710.068L-204.621,707.301L-204.937,705.277L-206.092,704.532L-206.393,705.009L-206.607,704.488L-208.811,705.88L-211.092,708.201L-212.856,712.652L-212.979,713.915L-212.642,716.105L-211.344,719.174L-209.616,721.179L-208.293,722.046L-206.076,722.798L-201.675,722.22L-199.607,721.423L-198.715,721.484L-196.576,720.109L-195.898,720.048L-191.735,716.088L-189.78,713.045L-188.564,709.593L-188.281,706.926L-188.838,698.851L-188.979,699.477L-189.098,699.081L-189.639,699.879L-191.066,703.327L-191.27,706.737L-190.551,710.523L-189.577,713.408L-188.128,716.036L-187.195,718.618L-185.396,721.343L-182.746,722.554L-179.8,722.33L-175.91,720.69L-174.121,719.06L-170.308,713.612L-169.082,710.109L-168.626,706.573L-169.384,701.188L-169.141,701.43L-169.473,702.175L-169.549,701.863L-170.054,702.084L-171.116,703.646L-172.298,708.164L-172.382,710.078L-172.141,712.905L-169.866,717.995L-167.604,721.274L-166.756,721.609L-164.593,724.191L-163.274,724.706L-162.674,725.297L-160.223,725.418L-159.358,724.88L-157.181,724.288" style="fill:none;fill-rule:nonzero;stroke:black;stroke-width:4px;"/>
                </g>
                <g transform="matrix(1,0,0,1,702.119,0.91)">
                    <path d="M-624.881,714.964L-624.662,714.964L-624.773,715.501L-624.382,715.591L-620.489,713.293L-618.759,711.566L-615.75,706.703L-615.445,705.174L-615.593,703.709L-615.32,703.409L-615.864,703.775L-615.451,703.712L-614.342,711.234L-612.51,717.228L-609.854,724.18L-610.251,723.974L-609.344,723.859L-609.555,723.606L-609.327,722.538L-606.452,715.694L-605.137,710.981L-603.097,708.424L-602.602,707.249L-601.652,709.613L-598.972,712.817L-596.751,716.272L-595.541,718.592L-595.148,720.416L-594.389,721.611L-593.319,723.077L-592.289,723.342L-593.207,723.202L-592.856,723.274L-591.986,721.184L-589.647,718.23L-588.666,716.451L-587.987,714.98L-587.502,712.272L-586.546,709.664L-585.078,708.268L-583.65,707.453L-584.826,707.858L-581.725,709.996L-580.7,711.604L-578.806,713.518L-576.637,714.213L-574.036,715.845L-572.589,714.72L-569.016,712.863L-567.395,708.059L-568.774,705.943L-569.451,705.596L-571.995,707.414L-573.331,708.873L-574.682,713.641L-574.531,715.78L-572.31,721.178L-570.757,722.885L-567.985,723.472L-563.449,723.319L-560.482,722.34L-556.474,720.168L-553.879,718.208L-551.841,715.656L-550.599,712.265L-550,707.665L-550.298,703.745L-550.752,702.962L-551.719,702.306L-552.101,702.5L-551.574,702.906L-554.307,706.535L-555.149,709.889L-554.242,718.431L-553.339,721.712L-552.128,723.946L-550.976,724.979L-548.274,725.773L-545.781,725.216L-540.974,722.945L-536.58,718.869L-535.946,717.411L-533.569,715.475L-531.819,711.642L-531.772,705.873L-532.352,704.822L-532.021,702.8L-532.255,701.544L-532.635,701.772L-532.491,702.53L-532.737,702.277L-533.879,702.79L-534.434,703.929L-535.905,705.135L-536.47,706.916L-536.665,711.725L-534.686,719.13L-532.209,722.669L-531.54,722.952L-530.148,724.63L-529.686,724.807L-528.472,724.716L-527.974,725.161L-526.461,724.49L-520.398,723.153" style="fill:none;fill-rule:nonzero;stroke:black;stroke-width:4px;"/>
                </g>
            </g>
        </g>
    </g>
</svg>
