<?xml version="1.0" encoding="UTF-8" standalone="no"?>
<!DOCTYPE svg PUBLIC "-//W3C//DTD SVG 1.1//EN" "http://www.w3.org/Graphics/SVG/1.1/DTD/svg11.dtd">
<svg width="100%" height="100%" viewBox="0 0 1278 49" version="1.1" xmlns="http://www.w3.org/2000/svg" xmlns:xlink="http://www.w3.org/1999/xlink" xml:space="preserve" xmlns:serif="http://www.serif.com/" style="fill-rule:evenodd;clip-rule:evenodd;stroke-linecap:round;stroke-linejoin:round;">
    <g transform="matrix(1,0,0,1,-5.07,-132.739)">
        <g id="help" transform="matrix(1,0,0,1,4.873,26.372)">
            <rect x="0.197" y="106.367" width="1277.34" height="48.891" style="fill:none;"/>
            <clipPath id="_clip1">
                <rect x="0.197" y="106.367" width="1277.34" height="48.891"/>
            </clipPath>
            <g clip-path="url(#_clip1)">
                <g transform="matrix(1,0,0,1,627.197,-692.633)">
                    <path d="M-624.39,826.211L-624.803,826.429L-623.993,826.768L-620.587,824.851L-617.622,822.31L-615.157,819.203L-613.069,815.195L-610.914,809.713L-610.546,807.25L-611.097,803.383L-611.327,803.475L-611.055,803.786L-611.869,808.284L-610.807,815.624L-610.732,820.399L-610.245,823.458L-610.477,823.071L-610.09,823.078L-609.948,823.455L-603.737,814.236L-602.24,812.629L-599.477,811.009L-597.199,813.031L-596.203,815.538L-595.272,819.454L-594.071,821.384L-591.142,823.521L-589.845,824.036L-588.227,823.781L-584.851,822.48L-580.697,819.902L-578.392,817.376L-577.814,814.884L-578.065,809.665L-578.335,810.238L-579.877,811.447L-581.949,814.299L-580.909,819.263L-579.74,822.611L-578.687,824.333L-576.484,825.847L-574.11,826.217L-570.028,826.163L-567.151,825.497L-563.443,824.247L-561.602,822.846L-558.915,819.804L-557.068,817.033L-556.081,813.115L-555.969,811.126L-554.866,808.081L-554.934,807.637L-555.729,807.392L-555.617,807.796L-557.047,809.365L-558.106,811.801L-558.574,816.447L-558.417,818.099L-557.941,819.972L-556.75,822.006L-555.195,823.251L-553.832,825.382L-551.9,826.665L-548.301,827.635L-545.949,827.834L-543.391,827.239L-541.864,826.344L-539.892,824.213L-539.083,822.17L-538.708,820.675L-539.177,817.03L-538.774,816.671L-539.282,816.978L-539.08,816.871L-539.226,817.241L-539.114,816.741L-538.695,816.857L-538.545,817.263L-539.212,819.159L-539.281,820.673L-539.251,822.603L-538.673,823.447L-539.044,825.641L-538.953,828.938L-538.615,829.88L-538.401,833.911L-538.024,834.795L-538.16,836.047L-537.629,838.3L-537.964,842.164L-537.601,842.441L-537.821,843.061L-537.484,842.969L-537.856,843.283L-538.427,843.206L-537.696,842.665L-537.925,842.781L-538.648,839.957L-539.108,835.411L-538.65,834.602L-538.986,834.133L-541.113,823.353L-541.082,821.832L-541.543,819.516L-541.373,817.989L-540.573,815.285L-539.367,814.378L-539.113,813.637L-537.732,812.253L-534.872,811.473L-532.225,811.539L-530.099,812.942L-528.984,815.036L-529.22,815.889L-528.767,816.658L-528.658,819.741L-530.4,821.373L-533.915,823.352L-535.033,824.549L-536.306,825.238L-536.377,825.607L-534.943,825.941" style="fill:none;fill-rule:nonzero;stroke:black;stroke-width:4px;"/>
                </g>
                <g transform="matrix(1,0,0,1,627.197,-692.633)">
                    <path d="M547.227,831.585L547.114,831.05L547.288,832.006L547.713,831.375L552.445,827.917L558.177,821.798L561.444,817.269L562.572,814.041L562.928,811.82L563.42,805.135L563.386,803.427L563.192,803.775L563.483,804.01L563.438,803.343L563.11,807.201L563.789,817.919L563.715,823.862L565.203,828.117L565.515,826.714L566.339,826.189L566.854,825.088L569.175,822.489L570.03,820.952L570.569,820.835L572.971,817.155L573.872,816.72L574.501,817.117L577.191,817.373L578.24,818.616L578.421,819.473L580.438,823.173L582.457,825.471L585.039,826.358L585.979,826.014L586.991,826.291L587.406,825.827L588.538,825.889L590.844,824.817L592.396,823.295L593.727,822.685L594.803,821.699L595.58,820.69L596.502,818.539L596.985,816.222L596.894,814.313L596.042,811.272L595.682,811.366L593.33,814.541L592.417,815.167L591.427,816.511L590.19,820.532L590.25,824.418L590.638,825.76L591.266,826.882L591.68,826.958L592.55,828.795L594.097,829.766L595.543,830.496L597.984,830.844L600.265,830.567L603.235,829.01L606.728,826.174L609.641,823.656L610.935,821.67L612.015,818.945L613.121,812.889L613.271,809.568L613.011,807.005L613.047,807.62L611.661,809.704L610.838,813.254L610.834,819.293L612.264,824.966L613.644,827.184L615.309,828.369L618.878,829.301L620.918,829.145L623.836,828.197L627.231,826.26L632.2,819.271L632.899,816.601L632.834,814.23L632.921,814.67L631.788,816.629L630.955,819.062L630.6,822.871L631.701,838.431L631.694,843.326L632.919,834.031L633.437,823.219L633.458,819.076L633.062,815.623L633.363,813.682L633.954,813.163L634.955,812.968L638.108,812.862L644.705,815.668L646.189,817.01L647.708,819.264L648.535,821.958L648.267,823.409L647.087,824.723L642.591,826.514L639.302,826.894L629.877,828.859" style="fill:none;fill-rule:nonzero;stroke:black;stroke-width:4px;"/>
                </g>
                <g transform="matrix(1,0,0,1,627.197,-692.633)">
                    <path d="M-444.987,826.616L-445.268,825.76L-444.941,826.877L-444.549,827.114L-442.044,825.71L-441.283,824.945L-437.868,823.175L-435.842,821.188L-433.309,817.507L-431.947,814.174L-431.434,810.096L-431.607,805.645L-432.015,804.46L-432.488,804.01L-432.283,804.734L-431.953,804.559L-432.114,804.961L-431.768,804.955L-432.785,806.835L-433.471,809.631L-433.147,818.949L-431.949,824.282L-430.277,827.135L-429.664,827.254L-430.002,826.984L-428.653,826.159L-428.2,825.453L-426.185,824.419L-425.462,823.226L-425.118,823.261L-423.305,821.411L-422.463,819.864L-421.588,819.065L-419.863,815.902L-418.888,815.528L-418.45,816.261L-417.341,816.396L-415.365,817.368L-415.076,817.111L-413.46,818.917L-412.977,820.383L-409.811,824.458L-407.656,826.474L-407.074,826.457L-406.847,827.036L-406.52,826.805L-402.078,827.02L-397.864,826.251L-396.704,825.666L-395.343,824.392L-393.136,820.549L-393.114,819.859L-392.277,818.22L-392.229,816.069L-392.798,814.273L-392.987,812.259L-393.806,811.589L-393.818,812.322L-394.168,812.21L-396.938,813.772L-398.058,815.299L-398.81,818.602L-398.757,821.112L-399.041,821.71L-398.406,823.499L-396.42,825.736L-392.036,827.453L-388.757,827.298L-386.115,826.239L-384.07,824.998L-383.352,825.069L-381.339,822.943L-377.992,818.226L-376.991,816.244L-375.769,812.15L-375.425,808.239L-375.633,805.698L-375.269,804.11L-375.58,803.84L-375.477,804.508L-377.001,805.286L-378.141,806.726L-379.158,809.974L-379.263,821.578L-377.421,825.056L-376.102,826.11L-373.02,827.197L-369.494,827.496L-365.391,826.757L-363.057,825.852L-361.752,824.62L-360.519,822.623L-358.759,818.353L-357.971,814.918L-358.041,813.243L-358.329,813.039L-358.207,812.165L-357.999,812.828L-358.07,812.273L-357.963,812.579L-358.53,813.114L-358.338,813.724L-359.576,829.591L-359.507,831.877L-359.041,833.034L-359.491,838.994L-358.795,843.485L-359.014,843.545L-359.159,843.029L-359.59,843.067L-359.243,842.69L-359.895,841.308L-360.696,839.971L-360.886,840.114L-362.708,833.618L-363.053,829.33L-362.808,824.44L-362.316,822.67L-361.625,820.59L-360.309,818.622L-359.778,816.936L-358.769,815.474L-356.899,814.275L-353.691,813.961L-353.319,814.736L-352.937,814.903L-352.59,814.625L-351.896,814.98L-351.445,815.786L-350.203,816.84L-348.958,819.285L-349.004,822.442L-350.284,824.194L-351.676,825.09L-358.478,828.383L-358.999,828.871L-359.169,829.696L-358.523,830.379L-358.264,830.198" style="fill:none;fill-rule:nonzero;stroke:black;stroke-width:4px;"/>
                </g>
                <g transform="matrix(1,0,0,1,627.197,-692.633)">
                    <path d="M242.862,831.3L242.748,831.512L242.851,830.998L243.231,831.778L243.54,831.81L247.22,830.833L251.289,826.921L254.075,822.845L255.96,818.886L257.324,815.077L258.01,808.009L257.952,803.893L258.063,807.308L257.417,814.533L257.785,822.02L258.466,827.486L259.057,826.342L259.64,826.027L260.609,824.266L262.08,822.577L264.256,818.967L268.169,816.065L268.804,816.198L269.686,815.41L271.395,814.666L273.702,817.296L276.227,823.762L278.466,827.955L279.7,829.337L279.943,828.93L280.801,830.066L281.872,829.998L289.255,825.875L290.621,824.182L291.706,822.08L292.007,822.159L292.994,819.207L293.304,817.703L292.715,815.327L292.701,816.08L292.318,815.992L290.045,818.332L288.72,820.515L288.294,823.577L289.24,827.124L291.319,829.845L293.01,830.724L296.716,830.386L297.42,829.759L299.533,829.66L300.848,828.392L301.532,828.258L304.023,825.674L306.642,821.867L308.849,815.345L309.559,811.56L309.445,808.802L309.535,809.759L309.57,809.464L308.788,809.815L307.415,812.281L306.737,814.283L306.662,817.71L307.278,821.59L307.673,823.086L310.323,826.376L311.843,827.663L314.217,828.848L318.533,829.219L322.244,828.152L323.16,827.424L324.775,827.143L325.945,825.987L327.292,823.18L328.355,819.292L328.434,816.692L327.602,820.692L327.335,828.014L328.08,840.488L328.442,841.105L328.84,843.888L328.675,843.43L328.939,843.038L329.033,843.446L328.851,843.171L329.502,838.623L329.508,836.456L328.88,823.709L330.235,817.574L331.408,815.431L332.026,815.426L332.555,814.997L333.498,814.92L333.987,815.192L335.516,814.532L336.14,814.966L336.422,814.719L337.746,814.943L339.279,816.208L342.183,820.61L342.569,822.568L341.982,823.977L339.475,825.805L338.351,825.883L335.881,827.047L331.314,828.283L330.12,829.432L329.694,829.125L328.029,829.364L327.165,830.025L327.203,830.336" style="fill:none;fill-rule:nonzero;stroke:black;stroke-width:4px;"/>
                </g>
                <g transform="matrix(1,0,0,1,627.197,-692.633)">
                    <path d="M-270.589,828.086L-270.029,828.432L-269.908,828.931L-269.145,827.984L-268.44,827.977L-265.03,826.615L-260.288,822.704L-257.519,820.117L-256.377,818.611L-254.789,815.568L-254.223,811.86L-254.082,808.358L-254.425,805.269L-254.931,804.696L-254.888,806.375L-255.833,811.405L-255.713,816.201L-254.87,820.069L-254.373,826.075L-253.69,828.243L-253.173,828.582L-253.188,827.468L-253.023,827.741L-251.999,827.177L-249.376,824.702L-245.392,818.599L-242.489,814.797L-242.198,815.349L-241.822,814.913L-240.051,816.736L-239.39,817.424L-239.014,818.601L-237.957,819.257L-236.096,821.431L-232.631,823.973L-231.501,824.254L-231.052,825.034L-229.739,824.71L-228.681,824.993L-228.183,824.585L-225.902,825.115L-224.041,824.883L-222.224,824.18L-218.59,821.357L-216.636,818.288L-216.11,816.4L-215.899,813.648L-216.259,811.65L-216.591,811.369L-217.159,812.002L-218.59,812.396L-220.413,813.711L-221.721,816.029L-222.408,819.079L-222.228,820.815L-221.799,822.148L-219.959,824.887L-218.474,826.236L-216.812,827.165L-215.682,827.699L-212.969,828.259L-208.989,828.102L-208.189,827.478L-207.204,827.535L-205.97,826.943L-204.262,826.657L-200.201,823.127L-198.326,820.291L-197.361,816.648L-196.728,811.716L-197.114,808.313L-197.607,808.528L-197.612,808.822L-199.203,809.058L-200.472,810.359L-201.453,813.316L-201.605,816.24L-200.736,820.834L-199.673,823.136L-198.195,825.725L-196.063,827.703L-194.806,828.269L-192.353,828.616L-191.634,828.219L-190.715,828.342L-187.402,827.558L-186.401,826.529L-186.076,825.715L-183.892,823.665L-182.543,821.436L-181.841,818.277L-181.872,816.245L-182.116,816.588L-181.92,816.805L-181.663,815.879L-183.08,823.443L-183.212,829.405L-182.847,837.791L-181.684,843.335L-181.411,843.454L-181.497,843.773L-181.705,843.637L-181.65,844.386L-181.492,842.777L-181.709,843.342L-182.009,841.868L-182.222,838.14L-181.537,821.672L-180.841,817.595L-180.015,816.193L-178.595,815.3L-175.108,814.851L-171.701,815.747L-169.337,817.673L-168.382,819.092L-168.177,820.719L-168.619,822.729L-170.355,824.947L-171.889,825.851L-172.714,825.562L-174.861,827.057L-179.246,828.627L-182.409,829.254L-182.586,829.497L-182.138,829.552" style="fill:none;fill-rule:nonzero;stroke:black;stroke-width:4px;"/>
                </g>
                <g transform="matrix(1,0,0,1,627.197,-692.633)">
                    <path d="M-96.638,829.425L-96.595,828.859L-96.726,829.281L-96.518,828.925L-96.138,829.672L-93.568,829.3L-91.255,828.4L-86.277,825.358L-85.55,825.278L-83.381,822.926L-80.755,818.2L-79.581,814.149L-78.716,806.316L-79.145,802.816L-79.622,801.367L-79.515,803.011L-80.188,804.938L-80.513,807.7L-80.129,814.031L-79.198,818.837L-76.908,826.243L-75.859,831.078L-75.401,831.92L-75.404,831.018L-73.733,829.274L-72.703,827.369L-72.122,827.073L-70.713,824.17L-67.711,819.437L-66.642,817.998L-66.138,817.523L-65.813,817.767L-65.314,816.84L-64.646,816.37L-63.517,816.915L-61.536,818.83L-61.276,819.65L-60.512,820.386L-58.706,824.893L-55.924,828.631L-54.622,829.589L-52.362,829.957L-50.817,829.796L-50.379,830.35L-49.227,829.226L-45.247,826.523L-44.111,825.179L-43.633,825.124L-43.08,824.042L-42.099,821.198L-41.959,819.792L-42.235,817.02L-43.179,815.583L-43.337,816.054L-43.715,815.722L-46.099,816.099L-47.281,816.798L-48.205,818.071L-48.802,820.44L-48.925,822.411L-48.76,823.978L-47.974,826.175L-45.554,829.413L-44.092,830.811L-43.537,832.021L-43.273,831.868L-41.65,832.488L-38.212,832.666L-35.75,832.266L-32.741,831.121L-29.039,829.038L-25.901,825.555L-24.411,822.799L-23.346,819.757L-22.918,815.976L-22.888,810.497L-23.459,808.077L-24.074,809.095L-24.429,808.91L-25.844,810.799L-26.332,812.045L-26.583,815.512L-26.224,819.491L-25.235,822.594L-23.547,825.583L-20.63,829.222L-19.123,830.319L-15.867,831.242L-13.894,830.965L-12.608,830.185L-12.295,830.28L-10.066,826.883L-8.964,824.012L-8.117,819.2L-8.104,818.278L-8.544,817.696L-8.732,816.4L-8.254,830.205L-6.34,844.707L-6.107,838.654L-7.289,823.177L-7.016,819.26L-6.105,818.198L-5.954,817.495L-4.753,816.657L-3.257,816.289L-2.494,816.697L-0.702,816.169L1.415,817.283L3.627,819.402L4.607,821.109L4.861,822.328L4.366,825.195L2.074,827.384L-3.891,830.802L-4.843,831.783" style="fill:none;fill-rule:nonzero;stroke:black;stroke-width:4px;"/>
                </g>
                <g transform="matrix(1,0,0,1,627.197,-692.633)">
                    <path d="M62.047,831.389L62.52,831.498L62.787,831.14L62.516,832.107L63.284,832.364L63.309,832.012L64.366,831.333L65.025,830.375L66.083,830.12L69.606,827.479L74.079,821.897L75.616,818.921L76.596,814.625L76.659,810.367L76.221,806.936L77.586,821.266L78.679,826.348L79.685,828.922L83.294,825.091L89.212,817.082L89.596,817.024L90.999,815.532L91.205,816.45L91.512,815.433L93.66,817.947L96.312,822.643L97.737,824.356L99.348,825.661L101.431,828.416L102.809,829.231L103.684,829.346L106.004,828.974L106.605,828.497L107.889,828.242L108.622,828.755L114.743,823.597L115.782,822.551L116.608,820.859L117.099,818.859L116.917,816.545L116.552,815.648L116.176,815.282L115.896,815.495L115.625,814.743L115.352,815.18L115.005,814.479L112.938,815.73L110.697,818.618L109.594,822.136L109.54,823.585L110.015,825.732L111.614,828.587L113.853,829.715L115.188,830.17L116.369,830.121L118.573,830.925L121.432,830.314L128.181,826.415L130.224,824.831L133.281,821.598L134.592,819.237L135.397,816.389L135.957,812.325L135.866,807.842L134.707,809.453L133.497,813.032L132.949,815.714L132.784,819.226L133.762,822.392L135.003,824.709L137.094,827.346L139.141,828.307L143.414,829.247L146.014,829.216L149.393,828.643L152.055,827.715L155.828,825.108L157.468,823.609L158.917,821.586L159.789,816.126L159.078,819.515L158.972,824.894L160.15,840.152L161.308,844.993L160.474,839.028L159.195,823.324L159.221,821.145L159.789,818.653L161.781,816.742L163.768,815.845L164.313,816.105L165.815,815.531L166.408,814.736L168.71,814.497L169.81,815.119L170.345,816.091L170.578,815.945L171.24,816.341L172.272,817.464L173.297,820.459L173.403,824.006L173.234,824.866L172.273,826.437L168.76,827.663L160.505,829.436L159.407,830.159" style="fill:none;fill-rule:nonzero;stroke:black;stroke-width:4px;"/>
                </g>
                <g transform="matrix(1,0,0,1,627.197,-692.633)">
                    <path d="M391.857,828.264L392.227,828.553L392.205,828.2L392.57,828.681L392.219,828.915L392.36,829.266L392.324,828.947L392.54,829.261L393.914,828.925L399.696,826.297L402.121,824.751L404.744,822.44L407.729,819.086L409.78,815.999L410.819,812.62L411.921,806.846L411.997,804.702L411.655,802.412L411.479,812.452L412.029,821.733L413.187,826.041L413.922,826.766L413.76,826.046L414.001,826.932L414.395,825.742L417.572,822.468L420.89,819.727L424.012,817.742L424.695,817.867L426.175,816.951L427.585,816.665L427.997,816.026L428.287,816.884L428.452,816.604L429.575,816.964L430.443,818.474L432.417,824.605L433.512,826.864L434.065,827.188L434.984,828.568L436.175,829.375L437.673,829.997L439.087,829.897L444.833,825.492L445.375,825.412L446.807,823.168L447.901,819.974L448.407,817.005L447.933,815.264L447.609,814.89L447.216,815.068L447.094,814.617L445.067,817.51L443.661,820.47L443.039,823.424L443.18,826.041L443.687,827.484L444.749,829.07L446.726,830.98L448.956,831.462L449.684,830.994L451.115,831.157L451.979,831.598L454.549,830.329L460.506,826.243L462.514,824.565L463.789,822.841L466.123,818.325L466.768,816.042L467.173,808.521L467.205,808.897L466.84,808.661L465.186,810.601L464.603,812.175L463.689,819.298L464.064,822.066L465.055,825.36L466.023,826.95L468.508,829.471L470.27,830.679L471.204,831.103L471.869,830.944L472.832,831.492L475.949,831.431L477.935,829.861L482.063,824.337L483.023,821.113L482.48,817.531L482.657,816.869L482.145,824.524L482.235,835.532L482.728,841.492L483.74,844.284L483.745,846.258L483.838,845.942L483.719,846.14L483.508,845.871L483.52,845.229L482.009,841.869L480.469,834.823L479.904,828.518L480.167,821.925L481.321,820.035L482.425,818.983L482.802,819.146L483.744,817.272L485.176,816.384L486.616,816.653L487.383,817.298L488.097,817.098L490.348,818.089L491.759,819.507L492.94,822.246L493.843,825.818L493.51,829.001L492.802,830.308L491.119,831.508L490.428,831.571L488.539,832.641L484.143,833.465L479.224,833.759" style="fill:none;fill-rule:nonzero;stroke:black;stroke-width:4px;"/>
                </g>
            </g>
        </g>
    </g>
</svg>
