<?xml version="1.0" encoding="UTF-8" standalone="no"?>
<!DOCTYPE svg PUBLIC "-//W3C//DTD SVG 1.1//EN" "http://www.w3.org/Graphics/SVG/1.1/DTD/svg11.dtd">
<svg width="100%" height="100%" viewBox="0 0 1792 209" version="1.1" xmlns="http://www.w3.org/2000/svg" xmlns:xlink="http://www.w3.org/1999/xlink" xml:space="preserve" xmlns:serif="http://www.serif.com/" style="fill-rule:evenodd;clip-rule:evenodd;stroke-linejoin:round;stroke-miterlimit:2;">
    <g>
        <g transform="matrix(2.55135e-16,4.16667,-4.16667,2.55135e-16,60.8042,78.6063)">
            <path d="M0,-8.886L-0.054,-8.845C-0.24,-8.734 -0.433,-8.601 -0.642,-8.447C-1.227,-8.017 -1.597,-7.349 -1.658,-6.617C-1.713,-5.939 -1.499,-5.281 -1.084,-4.853C-0.377,-4.124 0.574,-3.844 1.591,-4.062C2.216,-4.197 2.765,-4.521 3.193,-4.965C3.118,-4.785 3.011,-4.595 2.861,-4.37C1.732,-2.669 1.457,-1.226 1.97,0.315C2.502,1.911 4.532,2.973 6.494,2.684C7.832,2.485 9.062,2.052 9.74,1.092C10.205,0.434 10.375,-0.3 10.232,-1.033C10.013,-2.149 10.417,-2.99 10.696,-3.544C11.041,-4.236 11.327,-4.952 10.619,-6.427L10.353,-6.964C9.791,-8.081 9.481,-8.699 9.929,-10.267C10.287,-11.513 10.711,-11.7 11.191,-11.802C11.385,-11.844 11.566,-11.802 11.676,-11.691L11.744,-11.51C11.531,-10.628 11.963,-10.119 12.398,-9.951C12.933,-9.742 13.567,-9.968 13.841,-10.462C13.977,-10.708 14.376,-11.433 14.795,-11.463C15.069,-11.484 15.36,-11.181 15.556,-10.924C15.972,-10.378 16.091,-9.861 15.868,-9.572C15.656,-9.298 15.187,-9.253 14.702,-9.458C14.023,-9.745 13.597,-9.592 13.361,-9.413C13.041,-9.171 12.892,-8.751 12.954,-8.26C13.037,-7.591 13.469,-6.999 14.055,-6.753C14.904,-6.396 15.914,-6.791 16.89,-7.173C17.614,-7.456 18.363,-7.749 18.894,-7.66C19.15,-7.619 19.26,-7.316 19.303,-7.139C19.43,-6.615 19.279,-5.959 18.981,-5.736C18.923,-5.693 18.749,-5.564 18.347,-5.796C17.528,-6.273 16.761,-6.428 16.189,-6.236C15.833,-6.116 15.57,-5.869 15.425,-5.522C15.261,-5.129 15.292,-4.698 15.514,-4.274C15.587,-4.133 15.687,-3.997 15.798,-3.867C14.801,-3.861 14.029,-3.613 13.548,-3.126C13.105,-2.678 12.959,-2.059 13.138,-1.384C13.393,-0.419 14.41,0.247 15.306,0.835C15.859,1.196 16.602,1.667 16.653,1.963C16.671,2.068 16.602,2.087 16.602,2.087C16.458,2.193 15.673,2.083 15.204,2.018C14.063,1.858 12.771,1.678 12.128,2.526C11.837,2.911 11.726,3.303 11.798,3.692C11.947,4.501 12.815,5.042 13.82,5.667L14.101,5.842C14.82,6.296 15.048,6.864 14.799,7.583C14.362,8.844 12.722,9.905 11.771,9.805C10.897,9.713 10.72,8.965 10.548,7.401C10.482,6.803 10.415,6.186 10.233,5.665C9.993,4.971 9.53,4.463 8.929,4.231C8.395,4.026 7.8,4.065 7.3,4.34C6.668,4.686 6.143,5.2 5.749,5.821L5.742,5.817C5.349,6.45 4.906,6.633 4.66,6.536C4.395,6.431 4.187,5.933 4.357,5.087C4.613,3.805 4.245,3.342 3.89,3.178C3.299,2.907 2.528,3.348 1.658,4.456C1.555,4.587 1.401,4.745 1.251,4.756C1.036,4.77 0.753,4.501 0.568,4.321L0.242,3.964C-0.182,3.454 -0.491,3.236 -1.672,3.276C-2.513,3.305 -3.518,3.599 -4.49,3.883C-5.33,4.13 -6.198,4.383 -6.904,4.448C-7.079,4.464 -7.306,4.457 -7.411,4.339C-7.479,4.26 -7.617,3.993 -7.435,3.208C-7.199,2.186 -6.436,0.325 -5.62,-0.507C-4.781,-1.363 -3.744,-1.97 -3.403,-1.984C-3.465,-1.83 -3.616,-1.587 -3.727,-1.411C-4.041,-0.911 -4.397,-0.344 -4.311,0.21C-4.2,0.919 -2.983,1.543 -1.987,1.403C-1.423,1.323 -0.147,0.878 -0.45,-1.54C-0.62,-2.886 -1.68,-4.202 -3.218,-4.974L-3.252,-4.99C-2.967,-5.341 -2.915,-5.827 -3.114,-6.294C-3.425,-7.027 -4.244,-7.509 -5.303,-7.586C-5.482,-7.599 -5.573,-7.669 -5.627,-7.837C-5.785,-8.32 -5.491,-9.173 -5.23,-9.395C-4.819,-9.744 -4.331,-9.611 -3.573,-9.349C-2.841,-9.097 -1.736,-8.714 -1.17,-9.92C-1.012,-10.259 -1.004,-10.645 -1.149,-11.034C-1.48,-11.919 -2.593,-12.822 -4.284,-13.571C-4.771,-13.786 -5.001,-14.042 -4.965,-14.329C-4.877,-15.029 -3.605,-15.913 -2.721,-16.064C-2.242,-16.144 -2.126,-16.054 -2.115,-16.044C-2.017,-15.954 -2.05,-15.517 -2.072,-15.226C-2.108,-14.747 -2.149,-14.204 -1.933,-13.732C-1.647,-13.11 -0.872,-12.841 -0.204,-13.132C0.369,-13.382 0.863,-14.091 0.374,-15.268C0.143,-15.825 0.064,-16.244 0.385,-16.613C0.462,-16.701 0.68,-16.855 0.951,-16.804C1.285,-16.742 1.601,-16.392 1.859,-15.81L1.701,-15.607C0.912,-14.423 1.324,-13.63 1.846,-12.628L2.216,-11.89C2.556,-11.169 1.583,-9.841 0,-8.886ZM1.076,-8.228C1.141,-8.214 1.227,-8.183 1.313,-8.044C1.528,-7.697 1.468,-7.357 1.324,-7.187C1.208,-7.052 1.046,-7.025 0.856,-7.105C0.648,-7.193 0.488,-7.392 0.449,-7.611C0.423,-7.745 0.396,-7.937 0.59,-8.12L0.615,-8.146C0.731,-8.226 0.852,-8.238 0.996,-8.234L1.076,-8.228ZM3.587,-15.413C3.758,-15.327 4.021,-15.122 3.875,-14.722C3.817,-14.564 3.673,-14.536 3.579,-14.536L3.526,-14.538C3.258,-14.568 2.928,-14.829 2.813,-15.423C2.932,-15.48 3.059,-15.509 3.183,-15.509C3.327,-15.509 3.466,-15.474 3.587,-15.413ZM6.074,-13.767C6.31,-13.486 6.39,-13.189 6.292,-12.952C6.237,-12.82 6.13,-12.728 6.019,-12.718L6.001,-12.718C5.847,-12.718 5.72,-12.88 5.658,-12.98C5.585,-13.095 5.536,-13.268 5.488,-13.435C5.424,-13.654 5.32,-14.007 5.071,-14.236C5.43,-14.224 5.741,-14.161 6.074,-13.767ZM3.2,-13.527C3.051,-13.314 2.907,-13.059 2.777,-12.779L2.644,-13.044C2.297,-13.71 2.119,-14.089 2.194,-14.505C2.481,-14.007 2.91,-13.747 3.3,-13.666L3.2,-13.527ZM3.915,-22.294C6.23,-20.548 6.337,-19.413 6.337,-17.396C6.337,-16.195 6.863,-15.384 7.943,-14.919C8.435,-14.706 8.958,-14.349 9.271,-14.136L9.495,-13.987L9.509,-13.974C9.45,-13.964 9.377,-13.956 9.272,-13.956C9.103,-13.956 8.87,-13.976 8.552,-14.036L8.348,-14.057C8.08,-14.057 7.917,-13.939 7.825,-13.829C7.521,-13.467 7.722,-12.933 7.917,-12.417C7.962,-12.298 8.023,-12.137 8.055,-12.025C7.083,-11.275 6.982,-10.413 7.171,-8.747C7.253,-8.02 7.073,-7.481 6.927,-7.048C6.82,-6.73 6.735,-6.454 6.753,-6.169C6.817,-5.191 8.583,-4.753 8.326,-4.685C8.217,-4.651 8.078,-4.617 7.862,-4.597C7.028,-4.519 6.716,-3.818 6.615,-3.587C6.328,-2.941 6.405,-1.99 6.496,-1.529C6.6,-1.001 6.342,-0.693 6.107,-0.527C5.71,-0.245 5.132,-0.198 4.763,-0.415C4.521,-0.558 4.373,-0.829 4.375,-1.123C4.379,-1.519 4.644,-1.884 5.122,-2.156C5.822,-2.552 5.697,-3.085 5.636,-3.343L5.611,-3.494L5.721,-3.586C6.071,-3.816 6.479,-4.81 6.529,-5.384C6.558,-5.737 6.477,-6.005 6.286,-6.183C5.775,-6.658 5.542,-7.041 5.466,-7.225C6.148,-7.687 6.553,-8.452 6.645,-9.54C6.736,-10.648 6.168,-11.417 5.199,-11.502C4.82,-11.535 4.468,-11.421 4.185,-11.173C3.809,-10.843 3.578,-10.292 3.549,-9.661L3.603,-9.171L3.617,-9.087C3.446,-9.245 3.291,-9.535 3.183,-10.103C3.004,-11.035 3.42,-12.374 3.909,-13.078C4.13,-13.398 4.322,-13.533 4.428,-13.55L4.499,-13.554C4.526,-13.52 4.586,-13.31 4.623,-13.185C4.685,-12.968 4.756,-12.723 4.897,-12.501C5.193,-12.03 5.63,-11.783 6.095,-11.822C6.544,-11.859 6.938,-12.161 7.124,-12.609C7.351,-13.158 7.216,-13.806 6.762,-14.346C6.096,-15.136 5.383,-15.14 4.863,-15.142L4.799,-15.12C4.74,-15.577 4.46,-15.98 3.995,-16.216C3.591,-16.421 3.083,-16.474 2.615,-16.319C2.142,-17.294 1.554,-17.607 1.117,-17.689C0.49,-17.806 -0.034,-17.501 -0.293,-17.204C-1.046,-16.339 -0.633,-15.347 -0.457,-14.923C-0.36,-14.689 -0.176,-14.126 -0.564,-13.956C-0.753,-13.874 -1.03,-13.921 -1.115,-14.107C-1.235,-14.369 -1.204,-14.77 -1.174,-15.158C-1.131,-15.732 -1.086,-16.324 -1.508,-16.708C-1.802,-16.978 -2.249,-17.056 -2.871,-16.951C-3.984,-16.763 -5.701,-15.692 -5.858,-14.441C-5.909,-14.033 -5.82,-13.268 -4.649,-12.747C-3.224,-12.117 -2.231,-11.358 -1.993,-10.718C-1.932,-10.558 -1.93,-10.421 -1.986,-10.302C-2.176,-9.896 -2.358,-9.882 -3.28,-10.201C-3.998,-10.449 -4.981,-10.787 -5.813,-10.081C-6.342,-9.63 -6.76,-8.404 -6.483,-7.557C-6.315,-7.044 -5.909,-6.728 -5.368,-6.689C-4.525,-6.628 -4.079,-6.263 -3.942,-5.942C-3.876,-5.788 -3.88,-5.64 -3.952,-5.554C-4.044,-5.444 -4.26,-5.414 -4.532,-5.482C-6.744,-6.12 -9.715,-5.97 -12.299,-3.765L-11.715,-3.081C-8.91,-5.474 -5.602,-5.163 -3.622,-4.169C-2.098,-3.405 -1.442,-2.214 -1.343,-1.427C-1.247,-0.663 -1.28,0.288 -1.981,0.483C-2.592,0.655 -3.345,0.231 -3.426,0.048C-3.456,-0.151 -3.171,-0.603 -2.965,-0.933C-2.649,-1.435 -2.352,-1.908 -2.519,-2.357C-2.58,-2.519 -2.725,-2.734 -3.08,-2.841C-4.23,-3.193 -6.243,-1.158 -6.262,-1.138C-7.248,-0.132 -8.054,1.89 -8.313,3.006C-8.518,3.892 -8.444,4.522 -8.088,4.929C-7.843,5.212 -7.49,5.354 -7.039,5.354L-6.823,5.343C-6.03,5.272 -5.119,5.005 -4.238,4.747C-3.319,4.479 -2.369,4.202 -1.641,4.176C-1.534,4.173 -1.439,4.171 -1.354,4.171C-0.756,4.171 -0.675,4.268 -0.45,4.54L-0.055,4.97C0.214,5.229 0.659,5.656 1.233,5.656L1.314,5.653C1.699,5.626 2.052,5.411 2.366,5.01C2.975,4.235 3.369,4.03 3.501,4.006C3.531,4.079 3.593,4.317 3.474,4.911C3.184,6.362 3.726,7.134 4.33,7.373C4.577,7.47 4.837,7.485 5.097,7.428L5.089,7.462C4.803,8.868 4.954,11.167 7.291,14.126L7.997,13.569C5.874,10.88 5.723,8.86 5.971,7.64C6.192,6.551 6.851,5.613 7.734,5.129C8,4.982 8.319,4.962 8.607,5.072C8.955,5.206 9.23,5.522 9.383,5.96C9.531,6.385 9.59,6.926 9.654,7.499C9.801,8.846 9.986,10.522 11.676,10.7C13.108,10.85 15.114,9.425 15.65,7.877C16.034,6.77 15.643,5.751 14.58,5.081L14.295,4.903C13.541,4.433 12.76,3.947 12.683,3.528C12.673,3.48 12.647,3.333 12.846,3.069C13.169,2.643 14.228,2.791 15.08,2.909C16.012,3.04 16.818,3.152 17.256,2.7C17.405,2.547 17.565,2.264 17.485,1.792C17.368,1.11 16.641,0.633 15.799,0.082C15.038,-0.417 14.175,-0.984 14.008,-1.615C13.911,-1.984 13.969,-2.273 14.189,-2.494C14.613,-2.924 15.797,-3.201 17.849,-2.684L17.849,-2.685L17.869,-2.68L17.869,-2.679C20.775,-2.081 23.029,-2.937 24.568,-5.218L23.822,-5.722C22.488,-3.744 20.601,-3.037 18.052,-3.56C17.301,-3.722 16.57,-4.198 16.311,-4.691C16.168,-4.965 16.234,-5.124 16.255,-5.175C16.3,-5.283 16.368,-5.345 16.476,-5.382C16.718,-5.464 17.218,-5.411 17.895,-5.018C18.692,-4.556 19.254,-4.818 19.519,-5.015C20.193,-5.519 20.361,-6.595 20.177,-7.351C20.015,-8.019 19.601,-8.454 19.041,-8.548C18.266,-8.677 17.4,-8.339 16.562,-8.011C15.753,-7.695 14.916,-7.368 14.404,-7.583C14.071,-7.724 13.881,-8.09 13.846,-8.372C13.823,-8.56 13.868,-8.668 13.904,-8.695C13.94,-8.722 14.08,-8.744 14.351,-8.628C15.218,-8.263 16.113,-8.419 16.579,-9.019C17.072,-9.656 16.957,-10.572 16.271,-11.47C15.79,-12.101 15.271,-12.401 14.73,-12.361C13.825,-12.294 13.267,-11.286 13.058,-10.906C12.99,-10.783 12.829,-10.747 12.724,-10.788C12.536,-10.863 12.587,-11.169 12.619,-11.298C12.705,-11.656 12.594,-12.036 12.321,-12.318C11.995,-12.654 11.501,-12.788 11.002,-12.683C10.273,-12.526 9.534,-12.155 9.064,-10.515C8.519,-8.607 8.973,-7.704 9.548,-6.56L9.807,-6.038C10.325,-4.96 10.195,-4.556 9.89,-3.945C9.588,-3.343 9.071,-2.277 9.349,-0.86C9.445,-0.368 9.33,0.114 9.005,0.573C8.462,1.342 7.468,1.63 6.362,1.794C4.68,2.042 3.175,1.083 2.825,0.03C2.402,-1.239 2.636,-2.406 3.611,-3.872C4.335,-4.964 4.296,-5.595 4.182,-6.816L4.173,-6.902C4.151,-7.15 3.932,-7.331 3.684,-7.308C3.437,-7.285 3.254,-7.066 3.278,-6.818L3.286,-6.732L3.3,-6.574C3.211,-5.704 2.218,-5.117 1.403,-4.943C0.905,-4.835 0.181,-4.843 -0.438,-5.48C-0.671,-5.72 -0.795,-6.126 -0.76,-6.542C-0.744,-6.75 -0.674,-7.095 -0.426,-7.413C-0.322,-6.912 0.029,-6.478 0.504,-6.277C0.69,-6.199 0.877,-6.16 1.059,-6.16C1.419,-6.16 1.758,-6.312 2.006,-6.601C2.444,-7.111 2.472,-7.881 2.078,-8.518C1.955,-8.716 1.793,-8.851 1.609,-8.952C1.883,-9.187 2.133,-9.434 2.351,-9.691C2.501,-9.06 2.817,-8.314 3.654,-8.056C4.003,-7.948 4.224,-8.079 4.324,-8.167C4.641,-8.447 4.561,-8.913 4.49,-9.324L4.449,-9.621C4.395,-9.995 4.551,-10.316 4.778,-10.495C4.881,-10.577 4.986,-10.618 5.121,-10.606C5.587,-10.566 5.798,-10.232 5.748,-9.615C5.673,-8.731 5.378,-8.161 4.844,-7.872C4.674,-7.781 4.562,-7.613 4.537,-7.413C4.468,-6.876 5.05,-6.117 5.631,-5.566C5.679,-5.318 5.36,-4.505 5.195,-4.316C4.585,-3.894 4.703,-3.384 4.76,-3.138L4.785,-3.007L4.678,-2.939C3.92,-2.509 3.482,-1.851 3.476,-1.132C3.47,-0.518 3.788,0.053 4.305,0.359C4.982,0.758 5.937,0.698 6.627,0.209C7.257,-0.238 7.531,-0.935 7.378,-1.703C7.287,-2.168 7.277,-2.859 7.437,-3.222C7.622,-3.638 7.783,-3.686 7.946,-3.701C9.208,-3.819 9.405,-4.372 9.431,-4.605C9.448,-4.756 9.439,-5.268 8.635,-5.529C8.187,-5.674 7.665,-6.083 7.65,-6.251C7.641,-6.347 7.711,-6.558 7.78,-6.761C7.945,-7.251 8.171,-7.923 8.066,-8.849C7.86,-10.656 8.072,-10.974 8.73,-11.422C9.148,-11.707 8.951,-12.23 8.759,-12.736C8.718,-12.843 8.665,-12.988 8.624,-13.117C8.864,-13.08 9.084,-13.058 9.268,-13.058C10.052,-13.058 10.358,-13.351 10.469,-13.636C10.621,-14.024 10.419,-14.472 9.968,-14.751L9.779,-14.879C9.439,-15.111 8.872,-15.498 8.299,-15.745C7.748,-15.984 7.238,-16.347 7.238,-17.396C7.238,-19.577 7.103,-21.017 4.457,-23.012L3.915,-22.294" style="fill:rgb(196,20,37);fill-rule:nonzero;"/>
        </g>
        <g transform="matrix(2.55135e-16,4.16667,-4.16667,2.55135e-16,259.475,144.427)">
            <path d="M0,-3.639C-0.273,-3.086 -0.359,-2.662 -1.57,-2.6L-16.409,-2.6L-16.384,-2.604C-17.135,-2.604 -17.64,-2.867 -17.959,-3.625C-18.009,-3.746 -18.194,-3.699 -18.169,-3.531C-18.088,-3.008 -18.097,-2.463 -18.093,-1.82C-18.097,-1.178 -18.088,-0.633 -18.169,-0.107C-18.194,0.059 -18.009,0.105 -17.959,-0.016C-17.64,-0.773 -17.135,-1.037 -16.384,-1.037L-1.9,-1.037C-0.369,-1.037 -0.297,-0.602 0,-0.002C0.082,0.166 0.25,0.15 0.218,-0.131C0.168,-0.564 0.168,-0.99 0.168,-1.818L0.168,-1.822C0.168,-2.65 0.168,-3.074 0.218,-3.51C0.25,-3.791 0.082,-3.805 0,-3.639" style="fill:rgb(35,31,32);fill-rule:nonzero;"/>
        </g>
        <g transform="matrix(2.55135e-16,4.16667,-4.16667,2.55135e-16,293.029,71.2854)">
            <path d="M0,-7.853L2.1,-7.853L2.1,-7.676C0.199,-6.939 -0.325,-5.418 -0.26,-3.869C-0.184,-2.01 1.143,-0.859 2.427,-0.771C4.238,-0.646 5.344,-1.654 7.625,-4.738C10.015,-7.968 11.015,-8.631 13.1,-8.631C15.043,-8.631 17.786,-7.099 17.786,-3.648C17.786,-2.158 17.256,-0.24 17.167,0.778L14.214,0.778L14.214,0.563C15.91,0.41 17.129,-0.83 17.129,-3.648C17.129,-6.304 15.043,-7.322 13.703,-7.232C12.032,-7.123 11.256,-6.496 9.25,-3.84C7.011,-0.879 5.805,0.407 3.312,0.407C0.79,0.407 -0.792,-1.834 -0.792,-3.869C-0.792,-6.142 -0.213,-6.939 0,-7.853" style="fill:rgb(35,31,32);fill-rule:nonzero;"/>
        </g>
        <g transform="matrix(2.55135e-16,4.16667,-4.16667,2.55135e-16,340.742,68.4188)">
            <path d="M0,-12.898C0,-11.971 0.073,-9.314 0.087,-8.121L0.087,-4.91C0.073,-3.715 0,-1.06 0,-0.131C0,0.799 0.369,0.998 1.83,1.297C2.066,1.346 2.111,1.193 1.918,1.09C1.488,0.859 0.99,0.592 0.99,-0.801L0.99,-5.439C1.239,-5.584 1.535,-5.646 1.887,-5.646L16.755,-5.646C17.914,-5.574 18.003,-5.152 18.273,-4.592C18.355,-4.42 18.523,-4.435 18.489,-4.725C18.441,-5.172 18.441,-5.609 18.441,-6.465L18.441,-6.469C18.441,-7.324 18.441,-7.764 18.489,-8.211C18.523,-8.502 18.355,-8.516 18.273,-8.344C17.976,-7.726 17.903,-7.264 16.372,-7.264L16.372,-7.26L1.863,-7.26L1.887,-7.264C1.535,-7.264 1.239,-7.326 0.99,-7.471L0.99,-12.404C0.99,-13.799 1.488,-13.789 1.918,-14.021C2.111,-14.123 2.069,-14.244 1.83,-14.226C0.458,-14.123 0,-13.83 0,-12.898" style="fill:rgb(35,31,32);fill-rule:nonzero;"/>
        </g>
        <g transform="matrix(2.55135e-16,4.16667,-4.16667,2.55135e-16,210.9,69.5604)">
            <path d="M0,0.973C0,5.25 3.545,8.524 8.968,8.229C13.922,7.959 17.937,4.584 17.937,-0C17.937,-3.679 14.299,-7.545 8.968,-7.256C3.752,-6.972 0,-3.679 0,0.973ZM8.981,-9.072C14.663,-9.072 18.542,-4.652 18.542,0.487C18.542,6.145 14.261,10.045 8.981,10.045C3.199,10.045 -0.579,5.766 -0.579,0.487C-0.579,-4.793 3.42,-9.072 8.981,-9.072" style="fill:rgb(35,31,32);fill-rule:nonzero;"/>
        </g>
        <g transform="matrix(2.55135e-16,4.16667,-4.16667,2.55135e-16,447.204,130.844)">
            <path d="M-3.055,-3.178L0,-3.178L0,-4.959L-3.055,-4.959L-3.055,-3.178ZM-3.055,-0.934L0,-0.934L0,-2.688L-3.055,-2.688L-3.055,-0.934ZM-3.618,-5.125L-3.092,-5.854C-3.018,-5.789 -2.944,-5.641 -2.908,-5.457L0.766,-5.457C0.794,-5.447 0.951,-5.272 0.951,-4.959L0.23,-4.959L0.23,-3.178L3.193,-3.178C3.23,-3.178 3.406,-3.113 3.406,-2.688L0.23,-2.688L0.23,-0.934L0.812,-0.934C0.822,-0.934 0.997,-0.869 0.997,-0.436L-3.553,-0.436L-3.286,-0.99L-3.286,-2.688L-5.131,-2.688L-5.049,-3.676C-4.883,-3.656 -4.799,-3.537 -4.772,-3.178L-3.286,-3.178L-3.286,-4.865L-3.618,-5.125ZM-5.058,2.25C-4.873,1.133 -4.375,0.773 -4.043,0.773C-3.858,0.773 -3.719,0.885 -3.719,1.041L-3.793,1.254C-4.209,1.41 -4.698,1.881 -4.956,2.297L-5.058,2.25ZM0.822,2.138C0.822,2.029 0.822,2.002 0.628,1.918C0.59,1.89 0.296,1.752 -3.489,0.09L-3.443,-0.084C-2.261,0.33 -0.046,1.17 0.397,1.308C0.683,1.392 0.961,1.457 1.2,1.457C1.56,1.447 1.975,1.254 2.63,1.254C2.843,1.254 3.396,1.254 3.396,1.705C3.396,1.863 3.221,1.945 2.935,1.955C2.603,1.918 2.298,1.9 2.048,1.9C1.172,1.9 1.071,2.066 1.025,2.555L0.822,2.555C0.822,2.24 0.812,2.138 0.812,2.138L0.822,2.138ZM-2.659,2.629C-2.52,1.531 -2.058,1.18 -1.735,1.18C-1.56,1.18 -1.43,1.291 -1.43,1.437L-1.496,1.64C-1.883,1.806 -2.335,2.26 -2.557,2.676L-2.659,2.629" style="fill:rgb(35,31,32);fill-rule:nonzero;"/>
        </g>
        <g transform="matrix(2.55135e-16,4.16667,-4.16667,2.55135e-16,489.546,136.344)">
            <path d="M-0.997,-3.575L0,-3.575L0,-5.088L-0.997,-5.088L-0.997,-3.575ZM-1.228,-5.088L-2.206,-5.088L-2.206,-3.575L-1.228,-3.575L-1.228,-5.088ZM-4.504,-3.575L-3.581,-3.575L-3.581,-4.838L-4.504,-4.838L-4.504,-3.575ZM-4.734,-4.838L-5.649,-4.838L-5.649,-3.575L-4.734,-3.575L-4.734,-4.838ZM-4.504,-1.867L-3.581,-1.867L-3.581,-3.084L-4.504,-3.084L-4.504,-1.867ZM-4.734,-3.084L-5.649,-3.084L-5.649,-1.867L-4.734,-1.867L-4.734,-3.084ZM-0.997,-1.635L0,-1.635L0,-3.084L-0.997,-3.084L-0.997,-1.635ZM-1.228,-3.084L-2.206,-3.084L-2.206,-1.635L-1.228,-1.635L-1.228,-3.084ZM0.525,-5.844L1.356,-5.854C1.439,-6.094 1.476,-6.112 1.551,-6.112C1.791,-6.112 1.864,-5.891 1.864,-5.301L1.864,-3.86C1.864,-3.205 1.763,-3.084 0.96,-3.084L0.23,-3.084L0.23,-1.635L0.572,-1.635C0.591,-1.635 0.748,-1.553 0.748,-1.147L-2.695,-1.147L-2.437,-1.682L-2.437,-3.084L-3.351,-3.084L-3.351,-1.867L-3.102,-1.867C-3.092,-1.867 -2.926,-1.793 -2.926,-1.367L-6.138,-1.367L-5.879,-1.912L-5.879,-4.746L-6.212,-4.996L-5.695,-5.735C-5.621,-5.67 -5.538,-5.522 -5.501,-5.328L-3.193,-5.328C-3.176,-5.328 -3,-5.18 -3,-4.838L-3.351,-4.838L-3.351,-3.575L-2.437,-3.575L-2.437,-5.004L-2.75,-5.244L-2.262,-5.938C-2.197,-5.881 -2.123,-5.742 -2.096,-5.586L0.396,-5.586C0.425,-5.586 0.591,-5.438 0.591,-5.088L0.23,-5.088L0.23,-3.575L0.969,-3.575C1.375,-3.575 1.402,-3.584 1.402,-3.86L1.402,-5.254L1.329,-5.494C1.256,-5.576 0.895,-5.698 0.525,-5.772L0.525,-5.844ZM-1.172,0.025C-0.664,-0.629 -0.166,-0.852 0.176,-0.852C0.452,-0.852 0.627,-0.703 0.627,-0.547L0.508,-0.325C0.01,-0.325 -0.692,-0.094 -1.117,0.146L-1.172,0.025ZM-5.003,-0.778C-4.938,-0.741 -4.91,-0.676 -4.91,-0.575L-4.929,-0.408C-4.199,0.045 -3.185,0.773 -2.391,1.42C-2.409,0.949 -2.428,0.414 -2.455,-0.141C-2.723,-0.012 -2.982,0.154 -3.176,0.312L-3.24,0.211C-2.778,-0.621 -2.271,-0.889 -1.939,-0.889C-1.717,-0.889 -1.578,-0.768 -1.578,-0.629L-1.68,-0.408C-1.856,-0.381 -2.059,-0.317 -2.262,-0.233L-2.142,0.506L1.901,0.506C1.901,0.506 2.076,0.56 2.076,0.994L-2.059,0.994L-1.91,2.029C-1.791,2.084 -1.735,2.168 -1.717,2.259L-2.363,2.508C-2.363,2.314 -2.372,2.029 -2.381,1.677C-3.276,1.125 -4.495,0.451 -5.381,0.025L-5.003,-0.778ZM-1.006,1.217C-0.896,1.234 -0.84,1.299 -0.84,1.502C-0.046,1.705 0.794,2.019 1.301,2.379L1.227,2.537C0.655,2.297 -0.295,2.084 -1.172,1.965L-1.006,1.217ZM-4.938,2.463C-4.856,2.185 -4.754,1.955 -4.643,1.789C-5.141,1.566 -5.834,1.291 -6.451,1.078L-6.138,0.265C-6.036,0.302 -5.99,0.377 -6.009,0.588C-5.501,0.892 -4.929,1.271 -4.514,1.603C-4.292,1.345 -4.07,1.244 -3.895,1.244C-3.711,1.244 -3.581,1.355 -3.581,1.494L-3.664,1.697C-4.061,1.779 -4.568,2.175 -4.846,2.537L-4.938,2.463" style="fill:rgb(35,31,32);fill-rule:nonzero;"/>
        </g>
        <g transform="matrix(2.55135e-16,4.16667,-4.16667,2.55135e-16,539.433,113.115)">
            <path d="M0,0.018C0.296,-1.266 0.868,-1.672 1.218,-1.672C1.403,-1.672 1.532,-1.56 1.532,-1.412L1.458,-1.201C0.997,-1.006 0.406,-0.416 0.092,0.074L0,0.018ZM2.456,0.359C2.639,-1.025 3.203,-1.469 3.544,-1.469C3.711,-1.469 3.831,-1.367 3.831,-1.209L3.775,-1.016C3.36,-0.758 2.834,-0.121 2.566,0.397L2.456,0.359ZM3.802,-3.562L4.319,-4.338C4.449,-4.293 4.513,-4.199 4.542,-4.016L4.79,-2.705L7.439,-2.705C7.467,-2.705 7.661,-2.641 7.661,-2.207L4.883,-2.207L5.427,0.711L5.216,0.82L4.652,-2.207L-0.876,-2.207L-0.794,-3.102C-0.664,-3.084 -0.6,-2.99 -0.563,-2.705L4.551,-2.705L4.449,-3.268L3.802,-3.562ZM2.16,2.066L3.323,2.066C3.766,0.986 4.319,0.654 4.652,0.654C4.845,0.654 4.957,0.756 4.957,0.895L4.874,1.107C4.449,1.236 3.858,1.68 3.489,2.066L7.467,2.066C7.467,2.066 7.651,2.113 7.651,2.565L3.323,2.565C4.301,2.953 5.178,3.506 5.917,4.217L5.788,4.356C4.772,3.6 3.479,3.072 2.16,2.768L2.16,4.209L1.928,4.264L1.928,2.565L0.249,2.565C0.425,3.119 0.591,3.709 0.692,4.264L0.536,4.318C0.203,3.238 -0.415,1.9 -0.859,1.227L-0.341,0.545L-0.277,0.729C-0.277,0.803 -0.286,0.885 -0.324,0.986C-0.194,1.283 -0.056,1.66 0.092,2.066L1.928,2.066L1.928,1.504L1.458,1.135L1.957,0.434C2.104,0.508 2.16,0.609 2.16,0.857L2.16,2.066" style="fill:rgb(35,31,32);fill-rule:nonzero;"/>
        </g>
        <g transform="matrix(2.55135e-16,4.16667,-4.16667,2.55135e-16,583.167,109.381)">
            <path d="M0,1.496C0.462,0.609 1.016,0.334 1.395,0.334C1.662,0.334 1.847,0.473 1.847,0.639L1.727,0.869C1.182,0.877 0.471,1.228 0.065,1.598L0,1.496ZM0.24,3.803C0.665,2.797 1.219,2.484 1.57,2.484C1.773,2.484 1.92,2.594 1.92,2.742L1.819,2.963C1.339,3.057 0.684,3.5 0.323,3.887L0.24,3.803ZM3.6,-1.984C3.332,-2.131 2.824,-2.324 2.447,-2.455L2.447,3.768C3.176,3.768 3.637,4.219 3.637,4.672C3.637,4.828 3.572,4.977 3.406,4.977C3.278,4.977 3.149,4.865 3.083,4.727C2.908,4.348 2.428,3.988 1.847,4.016L1.838,3.85C1.976,3.812 2.096,3.785 2.216,3.775L2.216,-0.553C1.598,-1.033 0.738,-1.568 0.084,-1.883L0.499,-2.713C0.564,-2.676 0.592,-2.611 0.592,-2.51L0.572,-2.354C1.08,-1.984 1.727,-1.402 2.216,-0.82L2.216,-2.418L1.819,-2.814L2.511,-3.525C2.576,-3.461 2.585,-3.35 2.604,-3.174C2.936,-2.926 3.416,-2.455 3.674,-2.113L3.6,-1.984ZM5.641,-2.242L5.096,-2.666L5.668,-3.469C5.797,-3.397 5.871,-3.295 5.871,-3.027L5.871,0.48L7.68,0.48C8.132,0.48 8.455,0.592 8.538,1.441C8.141,1.441 8.059,1.783 8.022,2.586L7.873,2.586L7.873,1.219C7.873,1.045 7.819,0.988 7.67,0.988L5.871,0.988L5.871,4.957L5.641,5.021L5.641,0.988L4.698,0.988L4.736,0.5C4.459,0.084 4.043,-0.461 3.711,-0.811L3.711,3.287L3.481,3.361L3.481,-0.922L3.139,-1.281L3.73,-1.9C3.794,-1.826 3.803,-1.707 3.813,-1.504C4.117,-1.125 4.487,-0.451 4.764,0.131L4.764,0.102C4.893,0.111 4.947,0.176 4.976,0.48L5.641,0.48L5.641,-2.242" style="fill:rgb(35,31,32);fill-rule:nonzero;"/>
        </g>
        <g transform="matrix(2.55135e-16,4.16667,-4.16667,2.55135e-16,621.846,125.919)">
            <path d="M0,0.099C0.998,-0.205 1.828,-0.703 2.483,-1.385C1.782,-2.024 0.961,-2.465 0,-2.742L0,0.099ZM-0.581,-3.094L0.01,-3.721C0.084,-3.647 0.111,-3.555 0.121,-3.342C1.154,-2.992 2.05,-2.485 2.788,-1.727C3.36,-2.428 3.785,-3.297 4.061,-4.303L4.154,-4.283C4.172,-4.043 4.32,-3.85 4.578,-3.758C4.237,-2.797 3.758,-1.994 3.111,-1.35C3.748,-0.582 4.237,0.404 4.578,1.67L4.403,1.734C4.016,0.57 3.48,-0.352 2.807,-1.063C2.068,-0.426 1.136,0.027 0,0.302L0,0.756L-0.231,0.82L-0.231,-1.117L-2.012,-1.117L-2.012,1.033L-1.919,0.904C-1.781,0.976 -1.717,1.07 -1.717,1.328L-1.717,2.351L0.471,2.351L0.121,0.976L0.277,0.939L0.841,2.351L3.721,2.351C4.163,2.351 4.486,2.463 4.578,3.174C4.2,3.174 4.09,3.394 4.053,4.068L3.895,4.068L3.895,3.045C3.895,2.896 3.85,2.851 3.711,2.851L1.034,2.851L1.422,3.885C1.533,3.912 1.606,3.986 1.635,4.078L0.933,4.402C0.877,4.078 0.748,3.525 0.592,2.851L-1.717,2.851L-1.717,4.291L-1.947,4.355L-1.947,2.851L-3.94,2.851L-3.867,1.927C-3.719,1.947 -3.654,2.002 -3.608,2.351L-1.947,2.351L-1.947,1.965L-2.427,1.605L-2.021,1.041L-2.252,1.105L-2.252,-1.117L-3.932,-1.117L-3.848,-2.059C-3.691,-2.051 -3.636,-1.94 -3.59,-1.617L-2.252,-1.617L-2.252,-3.074L-2.76,-3.471L-2.224,-4.239C-2.076,-4.164 -2.012,-4.063 -2.012,-3.805L-2.012,-1.617L-0.231,-1.617L-0.231,-2.715L-0.581,-3.094" style="fill:rgb(35,31,32);fill-rule:nonzero;"/>
        </g>
        <g transform="matrix(2.55135e-16,4.16667,-4.16667,2.55135e-16,647.929,120.844)">
            <path d="M0,-7.18L0.527,-7.938C0.674,-7.854 0.738,-7.762 0.738,-7.512L0.738,-6.959L4.985,-6.959C5.418,-6.959 5.714,-6.857 5.796,-6.129C5.362,-6.129 5.298,-5.861 5.271,-5.223L5.132,-5.223L5.132,-6.285C5.132,-6.424 5.105,-6.469 4.985,-6.469L0.738,-6.469L0.738,-5.232L0.508,-5.168L0.508,-6.783L0,-7.18ZM-1.929,-7.725C-1.79,-7.65 -1.725,-7.549 -1.725,-7.291L-1.725,-5.602C-1.624,-5.658 -1.532,-5.676 -1.449,-5.676C-1.264,-5.676 -1.144,-5.574 -1.144,-5.436L-1.218,-5.242C-1.606,-5.168 -2.086,-4.809 -2.335,-4.457L-2.418,-4.531C-2.298,-4.965 -2.132,-5.252 -1.956,-5.426L-1.956,-6.59L-2.464,-6.977L-1.929,-7.725ZM0.904,-4.439C1.827,-5.158 2.658,-5.389 3.194,-5.389C3.6,-5.389 3.849,-5.26 3.849,-5.121L3.738,-4.955C3.083,-4.918 1.819,-4.771 0.979,-4.301L0.904,-4.439ZM1.052,-2.98C1.163,-2.963 1.218,-2.906 1.246,-2.676C2.446,-2.492 3.683,-2.141 4.431,-1.643L4.347,-1.477C3.554,-1.826 2.188,-2.086 0.914,-2.188L1.052,-2.98ZM-0.433,0.666C-1.071,-0.018 -2.04,-0.719 -2.722,-1.043L-2.335,-1.809C-2.261,-1.762 -2.224,-1.717 -2.224,-1.605L-2.243,-1.457C-1.652,-1.033 -0.831,-0.258 -0.286,0.555L-0.433,0.666ZM-0.489,-5.537C-0.35,-5.463 -0.286,-5.361 -0.286,-5.113L-0.286,-3.82L5.575,-3.82C5.603,-3.82 5.779,-3.756 5.779,-3.332L-0.286,-3.332L-0.286,-1.836L-0.415,-1.809C-0.406,-1.762 -0.415,-1.725 -0.425,-1.623C-0.083,-1.439 0.314,-1.189 0.72,-0.895L0.84,-1.209C0.923,-1.172 0.987,-1.08 1.015,-0.922L5.621,-0.922C5.658,-0.914 5.796,-0.711 5.796,-0.525L5.796,-0.434L1.329,-0.434C1.736,-0.102 2.123,0.26 2.455,0.646L2.318,0.758C1.404,-0.045 0.046,-0.813 -0.895,-1.182L-0.526,-1.984L-0.516,-1.975L-0.516,-3.332L-2.714,-3.332L-2.63,-4.217C-2.501,-4.199 -2.436,-4.115 -2.409,-3.82L-0.516,-3.82L-0.516,-4.457L-0.987,-4.826L-0.489,-5.537" style="fill:rgb(35,31,32);fill-rule:nonzero;"/>
        </g>
        <g transform="matrix(2.55135e-16,4.16667,-4.16667,2.55135e-16,685.421,121.035)">
            <path d="M0,-8.52C0.139,-8.445 0.203,-8.344 0.203,-8.076L0.203,-4.449C1.994,-4.791 3.932,-5.76 5.252,-8.584L5.363,-8.566C5.391,-8.272 5.465,-8.076 5.76,-7.994C4.301,-5.309 2.077,-4.533 0.203,-4.256L0.203,-4.219C2.363,-3.961 4.338,-3.121 5.787,-0.074L5.621,0.045C4.154,-2.641 2.289,-3.434 0.203,-3.674L0.203,0L-0.027,0.064L-0.027,-3.693C-0.904,-3.775 -1.818,-3.775 -2.76,-3.775L-2.676,-4.736C-2.547,-4.717 -2.474,-4.652 -2.455,-4.348C-1.633,-4.33 -0.821,-4.32 -0.027,-4.236L-0.027,-7.191L-0.609,-7.643L0,-8.52" style="fill:rgb(35,31,32);fill-rule:nonzero;"/>
        </g>
        <g transform="matrix(2.55135e-16,4.16667,-4.16667,2.55135e-16,746.988,109.381)">
            <path d="M0,1.493C0.462,0.608 1.016,0.331 1.395,0.331C1.662,0.331 1.847,0.469 1.847,0.635L1.727,0.866C1.182,0.876 0.471,1.225 0.065,1.594L0,1.493ZM0.24,3.801C0.665,2.795 1.219,2.481 1.57,2.481C1.773,2.481 1.92,2.592 1.92,2.739L1.819,2.961C1.339,3.053 0.684,3.497 0.323,3.883L0.24,3.801ZM3.6,-1.986C3.332,-2.134 2.824,-2.328 2.447,-2.456L2.447,3.764C3.176,3.764 3.637,4.215 3.637,4.669C3.637,4.825 3.572,4.973 3.406,4.973C3.278,4.973 3.149,4.862 3.083,4.723C2.908,4.346 2.428,3.985 1.847,4.012L1.838,3.846C1.976,3.811 2.096,3.782 2.216,3.774L2.216,-0.556C1.598,-1.035 0.738,-1.572 0.084,-1.884L0.499,-2.716C0.564,-2.679 0.592,-2.615 0.592,-2.513L0.572,-2.355C1.08,-1.986 1.727,-1.406 2.216,-0.824L2.216,-2.419L1.819,-2.818L2.511,-3.527C2.576,-3.462 2.585,-3.353 2.604,-3.177C2.936,-2.927 3.416,-2.456 3.674,-2.115L3.6,-1.986ZM5.641,-2.246L5.096,-2.669L5.668,-3.472C5.797,-3.398 5.871,-3.296 5.871,-3.029L5.871,0.479L7.68,0.479C8.132,0.479 8.455,0.588 8.538,1.438C8.141,1.438 8.059,1.78 8.022,2.583L7.873,2.583L7.873,1.217C7.873,1.042 7.819,0.985 7.67,0.985L5.871,0.985L5.871,4.954L5.641,5.02L5.641,0.985L4.698,0.985L4.736,0.497C4.459,0.081 4.043,-0.462 3.711,-0.814L3.711,3.284L3.481,3.358L3.481,-0.925L3.139,-1.285L3.73,-1.904C3.794,-1.83 3.803,-1.708 3.813,-1.507C4.117,-1.128 4.487,-0.455 4.764,0.128L4.764,0.1C4.893,0.108 4.947,0.174 4.976,0.479L5.641,0.479L5.641,-2.246" style="fill:rgb(35,31,32);fill-rule:nonzero;"/>
        </g>
        <g transform="matrix(2.55135e-16,4.16667,-4.16667,2.55135e-16,776.375,121.573)">
            <path d="M0,-4.376L-0.479,-4.745L0.028,-5.474C0.176,-5.4 0.231,-5.298 0.231,-5.05L0.231,-1.579L0,-1.515L0,-4.376ZM-0.479,-5.105C-0.674,-5.169 -1.043,-5.253 -1.328,-5.308L-1.328,-1.597C-0.82,-1.589 -0.268,-1.376 -0.268,-0.886C-0.268,-0.72 -0.359,-0.611 -0.498,-0.611C-0.627,-0.611 -0.756,-0.702 -0.849,-0.821C-1.033,-1.089 -1.504,-1.357 -1.947,-1.357L-1.938,-1.523C-1.809,-1.552 -1.68,-1.579 -1.559,-1.589L-1.559,-3.148L-2.897,-3.148L-2.814,-4.089C-2.667,-4.079 -2.603,-3.97 -2.557,-3.646L-1.559,-3.646L-1.559,-5.253L-1.938,-5.622L-1.282,-6.314C-1.209,-6.239 -1.199,-6.138 -1.189,-5.964C-0.95,-5.788 -0.6,-5.464 -0.415,-5.234L-0.479,-5.105ZM3.729,-5.982L4.938,-5.972C5.021,-6.202 5.031,-6.239 5.114,-6.239C5.326,-6.239 5.428,-6.028 5.428,-5.437L5.428,-4.458C5.428,-3.905 5.308,-3.804 4.735,-3.804L1.838,-3.804L1.838,-3.009C1.865,-2.954 1.884,-2.87 1.893,-2.751C3.434,-2.667 4.947,-2.161 5.631,-0.185L5.474,-0.093C4.81,-1.681 3.388,-2.179 1.838,-2.226L1.838,-0.98L1.606,-0.915L1.606,-5.077L1.1,-5.464L1.635,-6.222C1.772,-6.148 1.838,-6.046 1.838,-5.788L1.838,-4.478L1.874,-4.292L4.744,-4.292C4.994,-4.292 5.003,-4.302 5.003,-4.495L5.003,-5.419C5.003,-5.521 4.984,-5.575 4.865,-5.63C4.754,-5.677 4.229,-5.788 3.729,-5.88L3.729,-5.982ZM-2.723,-0.378L-2.03,-1.025C-1.956,-0.95 -1.938,-0.821 -1.938,-0.611C-1.356,-0.314 -0.295,0.266 0.269,0.628C1.229,-0.655 1.967,-0.821 2.492,-0.821C3.342,-0.821 3.803,-0.489 3.877,0.442C3.535,0.442 3.453,0.534 3.388,1.106L3.24,1.106L3.24,0.266C3.24,-0.194 2.742,-0.259 2.437,-0.259C1.717,-0.259 1.025,0.063 0.296,0.839C-0.285,0.598 -1.375,0.212 -2.113,-0.038L-2.113,1.448L5.455,1.448C5.502,1.448 5.641,1.614 5.641,1.854L5.641,1.938L-2.611,1.938L-2.344,1.339L-2.344,-0.009L-2.723,-0.378" style="fill:rgb(35,31,32);fill-rule:nonzero;"/>
        </g>
        <g transform="matrix(2.55135e-16,4.16667,-4.16667,2.55135e-16,807.721,121.035)">
            <path d="M0,-8.519C0.139,-8.445 0.203,-8.343 0.203,-8.076L0.203,-4.449C1.994,-4.791 3.932,-5.759 5.252,-8.584L5.363,-8.566C5.391,-8.269 5.465,-8.076 5.76,-7.994C4.301,-5.308 2.077,-4.533 0.203,-4.255L0.203,-4.218C2.363,-3.961 4.338,-3.121 5.787,-0.074L5.621,0.045C4.154,-2.64 2.289,-3.433 0.203,-3.673L0.203,0L-0.027,0.065L-0.027,-3.693C-0.904,-3.775 -1.818,-3.775 -2.76,-3.775L-2.676,-4.736C-2.547,-4.716 -2.474,-4.652 -2.455,-4.347C-1.633,-4.33 -0.821,-4.32 -0.027,-4.236L-0.027,-7.191L-0.609,-7.642L0,-8.519" style="fill:rgb(35,31,32);fill-rule:nonzero;"/>
        </g>
        <g transform="matrix(2.55135e-16,4.16667,-4.16667,2.55135e-16,867.742,109.381)">
            <path d="M0,1.491C0.462,0.607 1.016,0.329 1.395,0.329C1.662,0.329 1.847,0.468 1.847,0.634L1.727,0.864C1.182,0.874 0.471,1.224 0.065,1.593L0,1.491ZM0.24,3.8C0.665,2.794 1.219,2.48 1.57,2.48C1.773,2.48 1.92,2.591 1.92,2.737L1.819,2.96C1.339,3.052 0.684,3.495 0.323,3.882L0.24,3.8ZM3.6,-1.987C3.332,-2.136 2.824,-2.329 2.447,-2.458L2.447,3.763C3.176,3.763 3.637,4.216 3.637,4.667C3.637,4.823 3.572,4.972 3.406,4.972C3.278,4.972 3.149,4.86 3.083,4.722C2.908,4.345 2.428,3.984 1.847,4.013L1.838,3.845C1.976,3.81 2.096,3.78 2.216,3.773L2.216,-0.558C1.598,-1.036 0.738,-1.573 0.084,-1.886L0.499,-2.716C0.564,-2.681 0.592,-2.616 0.592,-2.515L0.572,-2.356C1.08,-1.987 1.727,-1.405 2.216,-0.825L2.216,-2.421L1.819,-2.817L2.511,-3.528C2.576,-3.464 2.585,-3.354 2.604,-3.179C2.936,-2.929 3.416,-2.458 3.674,-2.116L3.6,-1.987ZM5.641,-2.245L5.096,-2.671L5.668,-3.474C5.797,-3.399 5.871,-3.298 5.871,-3.03L5.871,0.478L7.68,0.478C8.132,0.478 8.455,0.587 8.538,1.437C8.141,1.437 8.059,1.778 8.022,2.581L7.873,2.581L7.873,1.216C7.873,1.04 7.819,0.985 7.67,0.985L5.871,0.985L5.871,4.954L5.641,5.019L5.641,0.985L4.698,0.985L4.736,0.495C4.459,0.079 4.043,-0.464 3.711,-0.815L3.711,3.282L3.481,3.357L3.481,-0.927L3.139,-1.286L3.73,-1.905C3.794,-1.831 3.803,-1.71 3.813,-1.507C4.117,-1.13 4.487,-0.456 4.764,0.126L4.764,0.099C4.893,0.109 4.947,0.173 4.976,0.478L5.641,0.478L5.641,-2.245" style="fill:rgb(35,31,32);fill-rule:nonzero;"/>
        </g>
        <g transform="matrix(2.55135e-16,4.16667,-4.16667,2.55135e-16,840.238,69.0146)">
            <path d="M0,0.31C0,1.679 1.135,2.728 2.871,2.633C4.457,2.547 5.742,1.466 5.742,-0.002C5.742,-1.178 4.576,-2.416 2.871,-2.323C1.201,-2.233 0,-1.178 0,0.31ZM2.875,-2.905C4.693,-2.905 5.935,-1.489 5.935,0.156C5.935,1.966 4.566,3.215 2.875,3.215C1.023,3.215 -0.186,1.843 -0.186,0.156C-0.186,-1.534 1.095,-2.905 2.875,-2.905" style="fill:rgb(35,31,32);fill-rule:nonzero;"/>
        </g>
        <g transform="matrix(2.55135e-16,4.16667,-4.16667,2.55135e-16,857.55,68.5479)">
            <path d="M0,-2.322C0,-2.025 0.024,-0.533 0.028,-0.15C0.028,0.116 0.028,0.293 0.012,0.432L0.082,0.432C0.176,0.241 0.282,0.102 0.772,0.102L5.172,0.102C5.663,0.102 5.766,0.241 5.862,0.432L5.932,0.432C5.916,0.293 5.916,0.116 5.916,-0.15L5.916,-0.152C5.916,-0.416 5.916,-0.593 5.932,-0.732L5.862,-0.732C5.768,-0.543 5.743,-0.404 5.272,-0.4L2.846,-0.4L2.846,-1.541C2.846,-2.031 2.987,-2.054 3.178,-2.15L3.178,-2.218C3.039,-2.203 2.961,-2.197 2.696,-2.197C2.43,-2.197 2.354,-2.203 2.215,-2.218L2.215,-2.15C2.403,-2.054 2.543,-2.031 2.547,-1.558L2.547,-0.4L0.528,-0.4L0.536,-0.4L0.332,-0.4L0.319,-2.164C0.319,-2.609 0.479,-2.607 0.618,-2.681L0.61,-2.754C0.17,-2.72 0,-2.619 0,-2.322" style="fill:rgb(35,31,32);fill-rule:nonzero;"/>
        </g>
        <g transform="matrix(2.55135e-16,4.16667,-4.16667,2.55135e-16,628.017,93.0521)">
            <path d="M0,-1.164C-0.093,-0.974 -0.119,-0.836 -0.592,-0.832L-5.287,-0.832L-5.279,-0.832C-5.519,-0.832 -5.681,-0.918 -5.783,-1.16L-5.849,-1.162C-5.824,-0.994 -5.828,-0.789 -5.826,-0.582C-5.828,-0.377 -5.824,-0.174 -5.849,-0.008L-5.783,-0.004C-5.681,-0.246 -5.519,-0.332 -5.279,-0.332L-0.609,-0.332C-0.119,-0.332 -0.093,-0.191 0,0L0.069,0C0.055,-0.138 0.055,-0.316 0.055,-0.582C0.055,-0.847 0.055,-1.025 0.069,-1.164L0,-1.164" style="fill:rgb(35,31,32);fill-rule:nonzero;"/>
        </g>
        <g transform="matrix(2.55135e-16,4.16667,-4.16667,2.55135e-16,711.642,93.0521)">
            <path d="M0,-1.164C-0.093,-0.975 -0.119,-0.836 -0.592,-0.832L-5.287,-0.832L-5.279,-0.832C-5.519,-0.832 -5.681,-0.918 -5.783,-1.16L-5.849,-1.162C-5.824,-0.994 -5.828,-0.789 -5.826,-0.582C-5.828,-0.377 -5.824,-0.174 -5.849,-0.008L-5.783,-0.004C-5.681,-0.246 -5.519,-0.332 -5.279,-0.332L-0.609,-0.332C-0.119,-0.332 -0.093,-0.191 0,0L0.069,0C0.055,-0.139 0.055,-0.316 0.055,-0.582C0.055,-0.848 0.055,-1.025 0.069,-1.164L0,-1.164" style="fill:rgb(35,31,32);fill-rule:nonzero;"/>
        </g>
        <g transform="matrix(2.55135e-16,4.16667,-4.16667,2.55135e-16,669.292,69.3063)">
            <path d="M0,-2.811L0.691,-2.811L0.691,-2.728C0.065,-2.465 -0.107,-1.92 -0.086,-1.365C-0.06,-0.699 0.375,-0.287 0.797,-0.256C1.395,-0.211 1.781,-0.547 2.529,-1.65C3.316,-2.809 3.621,-3.047 4.307,-3.047C4.945,-3.047 5.846,-2.523 5.846,-1.287C5.846,-0.752 5.59,-0.129 5.561,0.236L4.59,0.236L4.59,0.141C5.147,0.086 5.631,-0.277 5.631,-1.287C5.631,-2.238 4.945,-2.602 4.506,-2.57C3.955,-2.531 3.676,-2.307 3.018,-1.355C2.283,-0.295 1.91,0.139 1.088,0.139C0.26,0.139 -0.262,-0.637 -0.262,-1.365C-0.262,-2.18 -0.07,-2.482 0,-2.811" style="fill:rgb(35,31,32);fill-rule:nonzero;"/>
        </g>
        <g transform="matrix(2.55135e-16,4.16667,-4.16667,2.55135e-16,687.529,68.6563)">
            <path d="M0,-4.123C0,-3.826 0.023,-2.976 0.027,-2.594L0.027,-1.566C0.023,-1.184 0,-0.334 0,-0.037C0,0.262 0.144,0.338 0.613,0.434L0.613,0.354C0.474,0.281 0.316,0.195 0.316,-0.252L0.316,-1.736C0.396,-1.783 0.49,-1.803 0.603,-1.803L5.256,-1.803C5.728,-1.799 5.754,-1.65 5.847,-1.455L5.916,-1.455C5.9,-1.598 5.9,-1.789 5.9,-2.064L5.9,-2.066C5.9,-2.338 5.9,-2.519 5.916,-2.664L5.847,-2.666C5.754,-2.473 5.728,-2.324 5.265,-2.318L0.596,-2.318L0.603,-2.32C0.49,-2.32 0.396,-2.338 0.316,-2.385L0.316,-3.965C0.316,-4.412 0.474,-4.408 0.613,-4.482L0.607,-4.557C0.168,-4.523 0,-4.422 0,-4.123" style="fill:rgb(35,31,32);fill-rule:nonzero;"/>
        </g>
        <g transform="matrix(2.55135e-16,4.16667,-4.16667,2.55135e-16,723.708,68.6563)">
            <path d="M0,-4.122C0,-3.825 0.023,-2.975 0.027,-2.594L0.027,-1.567C0.023,-1.184 0,-0.333 0,-0.036C0,0.261 0.144,0.337 0.613,0.433L0.613,0.355C0.474,0.281 0.316,0.195 0.316,-0.252L0.316,-1.737C0.396,-1.782 0.49,-1.801 0.603,-1.801L5.256,-1.801C5.728,-1.797 5.754,-1.651 5.847,-1.454L5.916,-1.456C5.9,-1.598 5.9,-1.79 5.9,-2.065C5.9,-2.338 5.9,-2.52 5.916,-2.663L5.847,-2.665C5.754,-2.471 5.728,-2.323 5.265,-2.317L0.596,-2.317L0.603,-2.319C0.49,-2.319 0.396,-2.338 0.316,-2.385L0.316,-3.965C0.316,-4.413 0.474,-4.407 0.613,-4.483L0.607,-4.555C0.168,-4.522 0,-4.42 0,-4.122" style="fill:rgb(35,31,32);fill-rule:nonzero;"/>
        </g>
        <g transform="matrix(2.55135e-16,4.16667,-4.16667,2.55135e-16,773.95,68.6563)">
            <path d="M0,-4.124C0,-3.827 0.023,-2.976 0.027,-2.595L0.027,-1.568C0.023,-1.185 0,-0.335 0,-0.038C0,0.261 0.144,0.337 0.613,0.432L0.613,0.354C0.474,0.28 0.316,0.194 0.316,-0.251L0.316,-1.737C0.396,-1.782 0.49,-1.804 0.603,-1.804L5.256,-1.804C5.728,-1.8 5.754,-1.651 5.847,-1.456L5.916,-1.456C5.9,-1.599 5.9,-1.79 5.9,-2.066C5.9,-2.341 5.9,-2.523 5.916,-2.665L5.847,-2.665C5.754,-2.474 5.728,-2.325 5.265,-2.319L0.596,-2.319L0.603,-2.321C0.49,-2.321 0.396,-2.341 0.316,-2.386L0.316,-3.966C0.316,-4.411 0.474,-4.409 0.613,-4.484L0.607,-4.556C0.168,-4.525 0,-4.421 0,-4.124" style="fill:rgb(35,31,32);fill-rule:nonzero;"/>
        </g>
        <g transform="matrix(2.55135e-16,4.16667,-4.16667,2.55135e-16,748.042,90.5854)">
            <path d="M0,-4.586L-4.695,-4.586L-4.687,-4.588C-4.927,-4.588 -5.089,-4.672 -5.191,-4.916L-5.257,-4.916C-5.232,-4.75 -5.236,-4.543 -5.234,-4.336C-5.236,-4.131 -5.232,-3.93 -5.257,-3.764L-5.191,-3.76C-5.089,-4.002 -4.927,-4.086 -4.687,-4.086L-1.695,-4.086C-0.742,-4.053 0.454,-3.342 0.454,-2.215C0.454,-1.282 -0.267,-0.493 -1.564,-0.493L-4.669,-0.493L-4.669,-0.494C-4.91,-0.494 -5.072,-0.578 -5.173,-0.821L-5.24,-0.823C-5.214,-0.657 -5.218,-0.45 -5.216,-0.244C-5.218,-0.037 -5.214,0.164 -5.24,0.332L-5.173,0.334C-5.072,0.091 -4.91,0.007 -4.669,0.007L-1.685,0.007C-0.013,0.007 0.774,-1.039 0.721,-2.203C0.721,-3.248 -0.171,-3.899 -1.003,-4.086L-0.017,-4.086C0.473,-4.086 0.499,-3.948 0.592,-3.756L0.661,-3.756C0.647,-3.895 0.647,-4.073 0.647,-4.336L0.647,-4.338C0.647,-4.604 0.647,-4.782 0.661,-4.92L0.592,-4.92C0.499,-4.729 0.473,-4.59 0,-4.586" style="fill:rgb(35,31,32);fill-rule:nonzero;"/>
        </g>
        <g transform="matrix(2.55135e-16,4.16667,-4.16667,2.55135e-16,797.104,90.5938)">
            <path d="M0,-3.239C0.139,-3.165 0.299,-3.167 0.299,-2.721L0.321,-0.759L-2.298,-0.759L-2.298,-1.901C-2.298,-2.391 -2.16,-2.415 -1.966,-2.511L-1.966,-2.579C-2.107,-2.563 -2.183,-2.557 -2.449,-2.557C-2.714,-2.557 -2.793,-2.563 -2.931,-2.579L-2.931,-2.511C-2.74,-2.417 -2.601,-2.391 -2.597,-1.919L-2.597,-0.759L-4.964,-0.759L-4.955,-2.524C-4.955,-2.971 -4.794,-2.966 -4.656,-3.042L-4.664,-3.114C-5.103,-3.081 -5.291,-2.981 -5.291,-2.682C-5.291,-2.384 -5.267,-0.891 -5.263,-0.511C-5.263,-0.245 -5.263,-0.069 -5.279,0.072L-5.209,0.072C-5.115,-0.12 -5.009,-0.261 -4.519,-0.261L-0.119,-0.261C0.372,-0.261 0.475,-0.12 0.571,0.072L0.641,0.072C0.625,-0.069 0.625,-0.245 0.625,-0.511C0.627,-0.891 0.653,-2.583 0.653,-2.88C0.653,-3.177 0.45,-3.278 0.01,-3.311L0,-3.239" style="fill:rgb(35,31,32);fill-rule:nonzero;"/>
        </g>
        <g transform="matrix(2.55135e-16,4.16667,-4.16667,2.55135e-16,642.408,68.8438)">
            <path d="M0,-4.466C-0.002,-4.261 0.002,-4.132 -0.026,-3.964L0.043,-3.96C0.144,-4.202 0.306,-4.288 0.547,-4.288L4.795,-4.288L-0.022,-0.255L-0.022,-0.075C-0.022,0.132 -0.02,0.333 -0.047,0.501L0.021,0.505C0.123,0.261 0.285,0.177 0.525,0.177L5.201,0.177C5.689,0.177 5.713,0.316 5.808,0.509L5.879,0.509C5.861,0.37 5.861,0.193 5.861,-0.073L5.861,-0.075C5.861,-0.339 5.861,-0.516 5.879,-0.655L5.808,-0.655C5.715,-0.466 5.689,-0.327 5.218,-0.323L0.814,-0.323L5.906,-4.52L5.906,-4.645L0.547,-4.645C0.306,-4.645 0.144,-4.731 0.043,-4.973L-0.026,-4.975C0.002,-4.807 -0.002,-4.673 0,-4.466" style="fill:rgb(35,31,32);fill-rule:nonzero;"/>
        </g>
        <g transform="matrix(2.55135e-16,4.16667,-4.16667,2.55135e-16,929.717,93.0521)">
            <path d="M0,-1.164C-0.093,-0.975 -0.119,-0.836 -0.592,-0.832L-5.287,-0.832L-5.279,-0.832C-5.519,-0.832 -5.681,-0.918 -5.783,-1.16L-5.849,-1.162C-5.824,-0.994 -5.828,-0.789 -5.826,-0.582C-5.828,-0.377 -5.824,-0.174 -5.849,-0.008L-5.783,-0.004C-5.681,-0.246 -5.519,-0.332 -5.279,-0.332L-0.609,-0.332C-0.119,-0.332 -0.093,-0.191 0,0L0.069,0C0.055,-0.139 0.055,-0.316 0.055,-0.582C0.055,-0.848 0.055,-1.025 0.069,-1.164L0,-1.164" style="fill:rgb(35,31,32);fill-rule:nonzero;"/>
        </g>
        <g transform="matrix(2.55135e-16,4.16667,-4.16667,2.55135e-16,886.608,69.3063)">
            <path d="M0,-2.813L0.691,-2.813L0.691,-2.731C0.065,-2.467 -0.107,-1.922 -0.086,-1.367C-0.06,-0.701 0.375,-0.289 0.797,-0.258C1.395,-0.213 1.781,-0.549 2.529,-1.653C3.316,-2.811 3.621,-3.047 4.307,-3.047C4.945,-3.047 5.846,-2.526 5.846,-1.287C5.846,-0.754 5.59,-0.131 5.561,0.234L4.59,0.234L4.59,0.138C5.147,0.086 5.631,-0.28 5.631,-1.287C5.631,-2.238 4.945,-2.604 4.506,-2.572C3.955,-2.533 3.676,-2.309 3.018,-1.358C2.283,-0.297 1.91,0.137 1.088,0.137C0.26,0.137 -0.262,-0.639 -0.262,-1.367C-0.262,-2.182 -0.07,-2.485 0,-2.813" style="fill:rgb(35,31,32);fill-rule:nonzero;"/>
        </g>
        <g transform="matrix(2.55135e-16,4.16667,-4.16667,2.55135e-16,940.825,90.5938)">
            <path d="M0,-3.238C0.139,-3.164 0.299,-3.166 0.299,-2.721L0.321,-0.758L-2.298,-0.758L-2.298,-1.9C-2.298,-2.391 -2.16,-2.414 -1.966,-2.51L-1.966,-2.578C-2.107,-2.562 -2.183,-2.557 -2.449,-2.557C-2.714,-2.557 -2.793,-2.562 -2.931,-2.578L-2.931,-2.51C-2.74,-2.416 -2.601,-2.391 -2.597,-1.918L-2.597,-0.758L-4.964,-0.758L-4.955,-2.523C-4.955,-2.971 -4.794,-2.965 -4.656,-3.041L-4.664,-3.113C-5.103,-3.08 -5.291,-2.98 -5.291,-2.682C-5.291,-2.383 -5.267,-0.891 -5.263,-0.51C-5.263,-0.244 -5.263,-0.068 -5.279,0.072L-5.209,0.072C-5.115,-0.119 -5.009,-0.26 -4.519,-0.26L-0.119,-0.26C0.372,-0.26 0.475,-0.119 0.571,0.072L0.641,0.072C0.625,-0.068 0.625,-0.244 0.625,-0.51C0.627,-0.891 0.653,-2.582 0.653,-2.879C0.653,-3.176 0.45,-3.277 0.01,-3.31L0,-3.238" style="fill:rgb(35,31,32);fill-rule:nonzero;"/>
        </g>
        <g transform="matrix(2.55135e-16,4.16667,-4.16667,2.55135e-16,1012.17,90.5938)">
            <path d="M0,-3.233C0.139,-3.161 0.299,-3.163 0.299,-2.718L0.321,-0.755L-2.298,-0.755L-2.298,-1.897C-2.298,-2.388 -2.16,-2.411 -1.966,-2.507L-1.966,-2.575C-2.107,-2.56 -2.183,-2.554 -2.449,-2.554C-2.714,-2.554 -2.793,-2.56 -2.931,-2.575L-2.931,-2.507C-2.74,-2.411 -2.601,-2.388 -2.597,-1.913L-2.597,-0.755L-4.964,-0.755L-4.955,-2.521C-4.955,-2.966 -4.794,-2.962 -4.656,-3.038L-4.664,-3.11C-5.103,-3.077 -5.291,-2.976 -5.291,-2.679C-5.291,-2.38 -5.267,-0.888 -5.263,-0.507C-5.263,-0.241 -5.263,-0.063 -5.279,0.075L-5.209,0.075C-5.115,-0.116 -5.009,-0.255 -4.519,-0.255L-0.119,-0.255C0.372,-0.255 0.475,-0.116 0.571,0.075L0.641,0.075C0.625,-0.063 0.625,-0.241 0.625,-0.507C0.627,-0.888 0.653,-2.579 0.653,-2.876C0.653,-3.173 0.45,-3.274 0.01,-3.308L0,-3.233" style="fill:rgb(35,31,32);fill-rule:nonzero;"/>
        </g>
        <g transform="matrix(2.55135e-16,4.16667,-4.16667,2.55135e-16,911.229,93.6646)">
            <path d="M0,-1.187C0,0.731 -1.365,1.928 -3.051,1.928C-4.895,1.928 -6.071,0.581 -6.071,-1.079C-6.071,-1.326 -6.051,-1.546 -6.022,-1.746C-5.893,-2.587 -5.692,-2.835 -5.574,-3.115L-4.807,-3.115L-4.807,-3.035C-5.428,-2.771 -5.668,-2.513 -5.824,-1.736C-5.905,-1.308 -5.885,-0.927 -5.885,-0.927C-5.86,0.419 -4.787,1.45 -3.055,1.356C-1.473,1.27 -0.213,0.21 -0.213,-1.234C-0.213,-1.527 -0.215,-1.744 -0.403,-2.193C-0.563,-2.578 -0.699,-2.792 -0.985,-3.115L-0.758,-3.115C-0.438,-2.747 -0.315,-2.497 -0.192,-2.22C-0.059,-1.917 0,-1.619 0,-1.187" style="fill:rgb(35,31,32);fill-rule:nonzero;"/>
        </g>
        <g transform="matrix(2.55135e-16,4.16667,-4.16667,2.55135e-16,993.742,93.6646)">
            <path d="M0,-1.189C0,0.729 -1.365,1.927 -3.051,1.927C-4.895,1.927 -6.071,0.579 -6.071,-1.081C-6.071,-1.327 -6.051,-1.548 -6.022,-1.747C-5.893,-2.589 -5.692,-2.837 -5.574,-3.116L-4.807,-3.116L-4.807,-3.036C-5.428,-2.773 -5.668,-2.515 -5.824,-1.737C-5.905,-1.31 -5.885,-0.929 -5.885,-0.929C-5.86,0.417 -4.787,1.448 -3.055,1.354C-1.473,1.268 -0.213,0.208 -0.213,-1.235C-0.213,-1.528 -0.215,-1.745 -0.403,-2.194C-0.563,-2.579 -0.699,-2.794 -0.985,-3.116L-0.758,-3.116C-0.438,-2.749 -0.315,-2.499 -0.192,-2.222C-0.059,-1.919 0,-1.62 0,-1.189" style="fill:rgb(35,31,32);fill-rule:nonzero;"/>
        </g>
        <g transform="matrix(2.55135e-16,4.16667,-4.16667,2.55135e-16,961.337,68.8438)">
            <path d="M0,-4.466C-0.002,-4.261 0.002,-4.132 -0.026,-3.964L0.043,-3.96C0.144,-4.202 0.306,-4.288 0.547,-4.288L4.795,-4.288L-0.022,-0.255L-0.022,-0.075C-0.022,0.132 -0.02,0.333 -0.047,0.501L0.021,0.505C0.123,0.261 0.285,0.177 0.525,0.177L5.201,0.177C5.689,0.177 5.713,0.316 5.808,0.509L5.879,0.509C5.861,0.37 5.861,0.193 5.861,-0.073L5.861,-0.075C5.861,-0.339 5.861,-0.516 5.879,-0.655L5.808,-0.655C5.715,-0.466 5.689,-0.327 5.218,-0.323L0.814,-0.323L5.906,-4.52L5.906,-4.645L0.547,-4.645C0.306,-4.645 0.144,-4.731 0.043,-4.973L-0.026,-4.975C0.002,-4.807 -0.002,-4.673 0,-4.466" style="fill:rgb(35,31,32);fill-rule:nonzero;"/>
        </g>
        <g transform="matrix(2.55135e-16,4.16667,-4.16667,2.55135e-16,1061.16,85.4521)">
            <path d="M0,2.862L-3.168,1.506L-3.168,1.436L0,0.131L0,2.862ZM1.078,-0.873L-4.164,1.309L-4.164,1.379L0.742,3.506L1.139,3.705C1.504,3.887 1.703,4.244 1.799,4.436L1.867,4.436C1.852,4.297 1.852,4.121 1.852,3.856L1.852,3.854C1.852,3.59 1.852,3.412 1.867,3.272L1.799,3.274C1.703,3.461 1.463,3.475 1.186,3.369L0.268,2.977L0.268,0.022L1.145,-0.34C1.588,-0.525 1.713,-0.398 1.807,-0.207L1.875,-0.207C1.861,-0.345 1.861,-0.609 1.861,-0.875C1.861,-1.14 1.861,-1.435 1.875,-1.574L1.807,-1.574C1.713,-1.383 1.705,-1.164 1.078,-0.873" style="fill:rgb(35,31,32);fill-rule:nonzero;"/>
        </g>
        <g transform="matrix(2.55135e-16,4.16667,-4.16667,2.55135e-16,1110.19,92.4521)">
            <path d="M0,0.876C0,1.598 -0.043,1.917 -0.188,2.231L-0.192,2.227L-5.412,2.227C-5.455,1.922 -5.494,1.499 -5.498,0.989C-5.518,-0.714 -4.573,-1.587 -2.715,-1.587C-0.787,-1.587 0,-0.617 0,0.876ZM-5.709,0.962C-5.719,1.309 -5.657,2.102 -5.651,2.485C-5.653,2.686 -5.651,2.881 -5.674,3.046L-5.608,3.049C-5.506,2.807 -5.344,2.721 -5.104,2.721L-0.483,2.721C0.008,2.721 0.033,2.862 0.127,3.053L0.195,3.053C0.181,2.915 0.181,2.471 0.181,2.471L0.168,2.463L0.179,2.469C0.179,1.838 0.24,1.149 0.24,0.862C0.24,-0.038 -0.071,-2.177 -2.842,-2.177C-5.614,-2.177 -5.686,0.145 -5.709,0.962" style="fill:rgb(35,31,32);fill-rule:nonzero;"/>
        </g>
        <g transform="matrix(2.55135e-16,4.16667,-4.16667,2.55135e-16,1072.37,68.8438)">
            <path d="M0,-4.465C-0.002,-4.26 0.002,-4.131 -0.026,-3.963L0.043,-3.959C0.144,-4.201 0.306,-4.287 0.547,-4.287L4.795,-4.287L-0.022,-0.254L-0.022,-0.074C-0.022,0.133 -0.02,0.334 -0.047,0.502L0.021,0.506C0.123,0.262 0.285,0.178 0.525,0.178L5.201,0.178C5.689,0.178 5.713,0.316 5.808,0.51L5.879,0.51C5.861,0.371 5.861,0.193 5.861,-0.072L5.861,-0.074C5.861,-0.338 5.861,-0.516 5.879,-0.654L5.808,-0.654C5.715,-0.465 5.689,-0.326 5.218,-0.322L0.814,-0.322L5.906,-4.52L5.906,-4.645L0.547,-4.645C0.306,-4.645 0.144,-4.731 0.043,-4.973L-0.026,-4.975C0.002,-4.807 -0.002,-4.672 0,-4.465" style="fill:rgb(35,31,32);fill-rule:nonzero;"/>
        </g>
        <g transform="matrix(2.55135e-16,4.16667,-4.16667,2.55135e-16,1135.06,68.6563)">
            <path d="M0,-4.126C0,-3.827 0.023,-2.978 0.027,-2.595L0.027,-1.568C0.023,-1.185 0,-0.335 0,-0.038C0,0.261 0.144,0.337 0.613,0.432L0.613,0.352C0.474,0.278 0.316,0.192 0.316,-0.253L0.316,-1.739C0.396,-1.784 0.49,-1.804 0.603,-1.804L5.256,-1.804C5.728,-1.802 5.754,-1.652 5.847,-1.456L5.916,-1.456C5.9,-1.601 5.9,-1.792 5.9,-2.066C5.9,-2.341 5.9,-2.523 5.916,-2.667L5.847,-2.667C5.754,-2.474 5.728,-2.325 5.265,-2.319L0.596,-2.319L0.603,-2.321C0.49,-2.321 0.396,-2.341 0.316,-2.386L0.316,-3.968C0.316,-4.413 0.474,-4.409 0.613,-4.484L0.607,-4.558C0.168,-4.525 0,-4.421 0,-4.126" style="fill:rgb(35,31,32);fill-rule:nonzero;"/>
        </g>
        <g transform="matrix(2.55135e-16,4.16667,-4.16667,2.55135e-16,1266.4,69.0146)">
            <path d="M0,0.315C0,1.684 1.135,2.731 2.871,2.635C4.457,2.549 5.742,1.469 5.742,0.002C5.742,-1.175 4.576,-2.414 2.871,-2.32C1.201,-2.23 0,-1.175 0,0.315ZM2.875,-2.902C4.693,-2.902 5.935,-1.486 5.935,0.159C5.935,1.969 4.566,3.217 2.875,3.217C1.023,3.217 -0.186,1.848 -0.186,0.159C-0.186,-1.533 1.095,-2.902 2.875,-2.902" style="fill:rgb(35,31,32);fill-rule:nonzero;"/>
        </g>
        <g transform="matrix(2.55135e-16,4.16667,-4.16667,2.55135e-16,1310.45,69.0146)">
            <path d="M0,0.311C0,1.68 1.135,2.729 2.871,2.633C4.457,2.547 5.742,1.467 5.742,-0.002C5.742,-1.18 4.576,-2.416 2.871,-2.322C1.201,-2.232 0,-1.18 0,0.311ZM2.875,-2.904C4.693,-2.904 5.935,-1.49 5.935,0.154C5.935,1.967 4.566,3.215 2.875,3.215C1.023,3.215 -0.186,1.844 -0.186,0.154C-0.186,-1.535 1.095,-2.904 2.875,-2.904" style="fill:rgb(35,31,32);fill-rule:nonzero;"/>
        </g>
        <g transform="matrix(2.55135e-16,4.16667,-4.16667,2.55135e-16,1157.31,90.5938)">
            <path d="M0,-3.233C0.139,-3.161 0.299,-3.163 0.299,-2.718L0.321,-0.755L-2.298,-0.755L-2.298,-1.897C-2.298,-2.388 -2.16,-2.411 -1.966,-2.507L-1.966,-2.575C-2.107,-2.56 -2.183,-2.554 -2.449,-2.554C-2.714,-2.554 -2.793,-2.56 -2.931,-2.575L-2.931,-2.507C-2.74,-2.411 -2.601,-2.388 -2.597,-1.913L-2.597,-0.755L-4.964,-0.755L-4.955,-2.52C-4.955,-2.966 -4.794,-2.962 -4.656,-3.038L-4.664,-3.11C-5.103,-3.077 -5.291,-2.976 -5.291,-2.679C-5.291,-2.38 -5.267,-0.888 -5.263,-0.507C-5.263,-0.241 -5.263,-0.063 -5.279,0.075L-5.209,0.075C-5.115,-0.116 -5.009,-0.255 -4.519,-0.255L-0.119,-0.255C0.372,-0.255 0.475,-0.116 0.571,0.075L0.641,0.075C0.625,-0.063 0.625,-0.241 0.625,-0.507C0.627,-0.888 0.653,-2.579 0.653,-2.876C0.653,-3.173 0.45,-3.274 0.01,-3.308L0,-3.233" style="fill:rgb(35,31,32);fill-rule:nonzero;"/>
        </g>
        <g transform="matrix(2.55135e-16,4.16667,-4.16667,2.55135e-16,1182.35,93.6646)">
            <path d="M0,-1.187C0,0.731 -1.365,1.928 -3.051,1.928C-4.895,1.928 -6.071,0.582 -6.071,-1.08C-6.071,-1.326 -6.051,-1.547 -6.022,-1.746C-5.893,-2.588 -5.692,-2.836 -5.574,-3.115L-4.807,-3.115L-4.807,-3.035C-5.428,-2.769 -5.668,-2.511 -5.824,-1.736C-5.905,-1.306 -5.885,-0.927 -5.885,-0.927C-5.86,0.418 -4.787,1.449 -3.055,1.358C-1.473,1.272 -0.213,0.209 -0.213,-1.234C-0.213,-1.527 -0.215,-1.744 -0.403,-2.193C-0.563,-2.578 -0.699,-2.793 -0.985,-3.115L-0.758,-3.115C-0.438,-2.746 -0.315,-2.498 -0.192,-2.22C-0.059,-1.918 0,-1.619 0,-1.187" style="fill:rgb(35,31,32);fill-rule:nonzero;"/>
        </g>
        <g transform="matrix(2.55135e-16,4.16667,-4.16667,2.55135e-16,1201.12,90.5146)">
            <path d="M0,-4.476L-4.66,-4.476L-4.652,-4.478C-4.893,-4.478 -5.055,-4.562 -5.156,-4.806L-5.223,-4.806C-5.197,-4.638 -5.201,-4.433 -5.199,-4.226C-5.201,-4.021 -5.197,-3.82 -5.223,-3.652L-5.156,-3.65C-5.055,-3.892 -4.893,-3.976 -4.652,-3.976L-2.69,-3.976L-2.69,-0.498L-4.652,-0.498C-4.893,-0.498 -5.055,-0.584 -5.156,-0.826L-5.223,-0.828C-5.197,-0.66 -5.201,-0.455 -5.199,-0.248C-5.201,-0.043 -5.197,0.159 -5.223,0.327L-5.156,0.33C-5.055,0.086 -4.893,0.002 -4.652,0.002L-0.018,0.002C0.473,0.002 0.498,0.143 0.592,0.334L0.66,0.334C0.646,0.196 0.646,0.018 0.646,-0.248C0.646,-0.513 0.646,-0.691 0.66,-0.83L0.592,-0.83C0.498,-0.64 0.473,-0.502 0,-0.498L-2.397,-0.498L-2.397,-3.976L-0.018,-3.976C0.473,-3.976 0.498,-3.838 0.592,-3.646L0.66,-3.644C0.646,-3.785 0.646,-3.961 0.646,-4.226C0.646,-4.494 0.646,-4.672 0.66,-4.81L0.592,-4.81C0.498,-4.619 0.473,-4.48 0,-4.476" style="fill:rgb(35,31,32);fill-rule:nonzero;"/>
        </g>
        <g transform="matrix(2.55135e-16,4.16667,-4.16667,2.55135e-16,1291.45,91.9563)">
            <path d="M0,1.167L-0.039,-0.345C-0.026,-0.765 -0.2,-0.937 -0.426,-1.04L-0.407,-1.101C0.14,-0.958 0.318,-0.863 0.308,-0.583C0.296,-0.249 0.306,0.647 0.302,1.03L0.302,1.407L0.3,1.686L0.3,1.688C0.3,1.952 0.3,2.13 0.314,2.268L0.246,2.268C0.152,2.077 0.127,1.936 -0.364,1.936L-4.998,1.936C-5.239,1.936 -5.401,2.022 -5.502,2.264L-5.569,2.262C-5.543,2.094 -5.547,1.893 -5.545,1.686C-5.547,1.481 -5.543,1.274 -5.569,1.108L-5.502,1.11C-5.401,1.35 -5.239,1.436 -4.998,1.436L-5.006,1.436L-0.346,1.436C-0.346,1.436 0,1.473 0,1.167" style="fill:rgb(35,31,32);fill-rule:nonzero;"/>
        </g>
        <g transform="matrix(2.55135e-16,4.16667,-4.16667,2.55135e-16,1328.32,83.2896)">
            <path d="M0,-4.248C-0.002,-4.041 0.001,-3.84 -0.026,-3.672L0.042,-3.668C0.144,-3.912 0.304,-3.996 0.546,-3.996L1.625,-3.996C1.773,-3.996 1.89,-3.973 1.976,-3.924C2.064,-3.875 2.13,-3.764 2.181,-3.592C2.232,-3.418 2.273,-3.164 2.273,-2.797C2.273,-1.033 1.164,-0.439 1.164,-0.439C0.681,-0.131 0.074,0.008 -0.577,0.041C-2.688,0.152 -3.42,-1.145 -3.42,-2.412C-3.42,-2.412 -3.493,-4.021 -2.346,-4.465L-2.346,-4.547L-3.104,-4.547C-3.364,-4.004 -3.612,-3.385 -3.612,-2.412C-3.612,-0.85 -2.661,0.578 -0.547,0.578C0.576,0.578 1.32,0.168 1.785,-0.391C1.785,-0.391 1.955,-0.586 2.062,-0.801C2.232,-1.143 2.361,-1.459 2.414,-1.77C2.466,-2.078 2.49,-2.393 2.49,-2.709C2.49,-3.659 2.332,-4.066 2.203,-4.496L0.546,-4.496C0.304,-4.496 0.144,-4.582 0.042,-4.824L-0.026,-4.826C0.001,-4.658 -0.002,-4.453 0,-4.248" style="fill:rgb(35,31,32);fill-rule:nonzero;"/>
        </g>
        <g transform="matrix(2.55135e-16,4.16667,-4.16667,2.55135e-16,1353,68.8521)">
            <path d="M0,-4.027C-0.002,-3.822 0.002,-3.621 -0.024,-3.452L0.043,-3.451C0.144,-3.693 0.232,-3.756 0.408,-3.676C0.408,-3.676 1.007,-3.369 2.707,-2.197L0.482,-0.601C0.234,-0.424 0.144,-0.328 0.043,-0.615L-0.024,-0.617C0.002,-0.418 -0.002,-0.26 0,-0.017C-0.002,0.225 0.002,0.379 -0.024,0.576L0.043,0.58C0.144,0.293 0.326,0.162 0.566,-0.031L3.099,-1.804L5.189,-1.804C5.679,-1.804 5.701,-1.666 5.797,-1.474L5.867,-1.474C5.851,-1.613 5.851,-1.791 5.851,-2.056C5.851,-2.322 5.851,-2.5 5.867,-2.638L5.797,-2.638C5.703,-2.449 5.677,-2.308 5.207,-2.306L3.027,-2.306L0.547,-3.914C0.24,-4.142 0.144,-4.363 0.043,-4.605L-0.024,-4.607C0.002,-4.439 -0.002,-4.234 0,-4.027" style="fill:rgb(35,31,32);fill-rule:nonzero;"/>
        </g>
        <g transform="matrix(2.55135e-16,4.16667,-4.16667,2.55135e-16,1228.39,68.8438)">
            <path d="M0,-4.464C-0.002,-4.259 0.002,-4.13 -0.026,-3.962L0.043,-3.959C0.144,-4.201 0.306,-4.287 0.547,-4.287L4.795,-4.287L-0.022,-0.253L-0.022,-0.074C-0.022,0.133 -0.02,0.334 -0.047,0.502L0.021,0.506C0.123,0.262 0.285,0.178 0.525,0.178L5.201,0.178C5.689,0.178 5.713,0.317 5.808,0.51L5.879,0.51C5.861,0.372 5.861,0.194 5.861,-0.072L5.861,-0.074C5.861,-0.337 5.861,-0.515 5.879,-0.654L5.808,-0.654C5.715,-0.464 5.689,-0.326 5.218,-0.322L0.814,-0.322L5.906,-4.519L5.906,-4.644L0.547,-4.644C0.306,-4.644 0.144,-4.73 0.043,-4.972L-0.026,-4.974C0.002,-4.806 -0.002,-4.671 0,-4.464" style="fill:rgb(35,31,32);fill-rule:nonzero;"/>
        </g>
        <g transform="matrix(2.55135e-16,4.16667,-4.16667,2.55135e-16,491.671,93.0521)">
            <path d="M0,-1.164C-0.093,-0.973 -0.119,-0.834 -0.592,-0.83L-5.287,-0.83L-5.279,-0.832C-5.519,-0.832 -5.681,-0.916 -5.783,-1.16L-5.849,-1.16C-5.824,-0.994 -5.828,-0.787 -5.826,-0.58C-5.828,-0.375 -5.824,-0.174 -5.849,-0.008L-5.783,-0.004C-5.681,-0.246 -5.519,-0.33 -5.279,-0.33L-0.609,-0.33C-0.119,-0.33 -0.093,-0.191 0,0L0.069,0C0.055,-0.139 0.055,-0.316 0.055,-0.58L0.055,-0.582C0.055,-0.848 0.055,-1.025 0.069,-1.164L0,-1.164" style="fill:rgb(35,31,32);fill-rule:nonzero;"/>
        </g>
        <g transform="matrix(2.55135e-16,4.16667,-4.16667,2.55135e-16,449.471,69.0146)">
            <path d="M0,0.313C0,1.682 1.135,2.729 2.871,2.634C4.457,2.548 5.742,1.468 5.742,0.001C5.742,-1.177 4.576,-2.415 2.871,-2.321C1.201,-2.232 0,-1.177 0,0.313ZM2.875,-2.903C4.693,-2.903 5.935,-1.487 5.935,0.157C5.935,1.968 4.566,3.216 2.875,3.216C1.023,3.216 -0.186,1.847 -0.186,0.157C-0.186,-1.532 1.095,-2.903 2.875,-2.903" style="fill:rgb(35,31,32);fill-rule:nonzero;"/>
        </g>
        <g transform="matrix(2.55135e-16,4.16667,-4.16667,2.55135e-16,471.625,89.5521)">
            <path d="M0,-2.542L-2.546,-0.161L-4.492,-2.069C-4.492,-2.069 -4.904,-2.448 -4.923,-2.909L-5,-2.911C-4.986,-2.723 -4.978,-1.901 -4.99,-1.793L-4.818,-1.793C-4.757,-1.782 -4.64,-1.786 -4.484,-1.653L-2.31,0.519L-4.429,0.519L-4.421,0.517C-4.662,0.517 -4.824,0.433 -4.925,0.191L-4.992,0.189C-4.966,0.357 -4.97,0.562 -4.968,0.767C-4.97,0.974 -4.966,1.175 -4.992,1.343L-4.925,1.345C-4.824,1.103 -4.662,1.019 -4.421,1.019L0.213,1.019C0.704,1.019 0.729,1.158 0.823,1.349L0.891,1.351C0.877,1.21 0.877,1.035 0.877,0.769L0.877,0.767C0.877,0.501 0.877,0.324 0.891,0.185L0.823,0.185C0.729,0.376 0.704,0.515 0.231,0.519L-2.263,0.519C-2.281,0.455 -2.287,0.273 -2.168,0.142C-2.041,0.001 -0.207,-1.627 0.438,-2.274C0.762,-2.596 1.016,-3.364 0.93,-3.893L0.832,-3.893C0.846,-3.272 0.381,-2.915 0,-2.542" style="fill:rgb(35,31,32);fill-rule:nonzero;"/>
        </g>
        <g transform="matrix(2.55135e-16,4.16667,-4.16667,2.55135e-16,547.383,85.4521)">
            <path d="M0,2.857L-3.168,1.502L-3.168,1.431L0,0.129L0,2.857ZM1.078,-0.877L-4.164,1.305L-4.164,1.375L0.742,3.502L1.139,3.703C1.504,3.885 1.703,4.242 1.799,4.433L1.867,4.433C1.852,4.295 1.852,4.117 1.852,3.851C1.852,3.586 1.852,3.408 1.867,3.269L1.799,3.269C1.703,3.459 1.463,3.471 1.186,3.365L0.268,2.973L0.268,0.017L1.145,-0.344C1.588,-0.529 1.713,-0.402 1.807,-0.211L1.875,-0.211C1.861,-0.35 1.861,-0.613 1.861,-0.879C1.861,-1.145 1.861,-1.438 1.875,-1.576L1.807,-1.576C1.713,-1.387 1.705,-1.168 1.078,-0.877" style="fill:rgb(35,31,32);fill-rule:nonzero;"/>
        </g>
        <g transform="matrix(2.55135e-16,4.16667,-4.16667,2.55135e-16,601.633,85.4521)">
            <path d="M0,2.862L-3.168,1.506L-3.168,1.436L0,0.131L0,2.862ZM1.078,-0.873L-4.164,1.309L-4.164,1.379L0.742,3.506L1.139,3.705C1.504,3.887 1.703,4.244 1.799,4.436L1.867,4.436C1.852,4.297 1.852,4.121 1.852,3.856L1.852,3.854C1.852,3.59 1.852,3.412 1.867,3.272L1.799,3.274C1.703,3.461 1.463,3.475 1.186,3.369L0.268,2.977L0.268,0.022L1.145,-0.34C1.588,-0.525 1.713,-0.398 1.807,-0.207L1.875,-0.207C1.861,-0.345 1.861,-0.609 1.861,-0.875C1.861,-1.14 1.861,-1.435 1.875,-1.574L1.807,-1.574C1.713,-1.382 1.705,-1.164 1.078,-0.873" style="fill:rgb(35,31,32);fill-rule:nonzero;"/>
        </g>
        <g transform="matrix(2.55135e-16,4.16667,-4.16667,2.55135e-16,505.696,68.8438)">
            <path d="M0,-4.464C-0.002,-4.259 0.002,-4.128 -0.026,-3.96L0.043,-3.958C0.144,-4.2 0.306,-4.286 0.547,-4.286L4.795,-4.286L-0.022,-0.253L-0.022,-0.072C-0.022,0.135 -0.02,0.335 -0.047,0.503L0.021,0.507C0.123,0.264 0.285,0.178 0.525,0.178L5.201,0.178C5.689,0.178 5.713,0.319 5.808,0.51L5.879,0.51C5.861,0.372 5.861,0.194 5.861,-0.072C5.861,-0.337 5.861,-0.515 5.879,-0.654L5.808,-0.654C5.715,-0.464 5.689,-0.324 5.218,-0.322L0.814,-0.322L5.906,-4.519L5.906,-4.644L0.547,-4.644C0.306,-4.644 0.144,-4.728 0.043,-4.972L-0.026,-4.974C0.002,-4.806 -0.002,-4.671 0,-4.464" style="fill:rgb(35,31,32);fill-rule:nonzero;"/>
        </g>
        <g transform="matrix(2.55135e-16,4.16667,-4.16667,2.55135e-16,551.192,68.7521)">
            <path d="M0,-8.711C0.026,-8.52 0.022,-8.369 0.024,-8.133C0.022,-7.899 0.026,-7.742 0,-7.549L0.067,-7.553C0.164,-7.785 0.418,-7.723 0.6,-7.641L5.207,-5.352L3.188,-4.455L0.608,-5.766C0.369,-5.891 0.192,-6.119 0.067,-6.49L0,-6.487C0.026,-6.295 0.022,-6.145 0.024,-5.91C0.022,-5.672 0.026,-5.518 0,-5.326L0.067,-5.326C0.164,-5.559 0.428,-5.487 0.6,-5.414L2.84,-4.301L0.6,-3.307C0.389,-3.223 0.168,-3.127 0.067,-3.414L0,-3.416C0.026,-3.217 0.022,-3.059 0.024,-2.817C0.022,-2.574 0.026,-2.42 0,-2.223L0.067,-2.219C0.168,-2.506 0.33,-2.645 0.571,-2.774L3.395,-4.028L5.207,-3.127L0.6,-1.082C0.389,-0.998 0.168,-0.903 0.067,-1.188L0,-1.19C0.026,-0.994 0.022,-0.834 0.024,-0.592C0.022,-0.348 0.026,-0.196 0,0.002L0.067,0.006C0.168,-0.28 0.33,-0.42 0.571,-0.549L5.985,-2.951C6.076,-2.992 6.033,-3.01 5.973,-3.043L3.737,-4.178L5.985,-5.176C6.076,-5.219 6.033,-5.235 5.973,-5.27L0.608,-7.99C0.369,-8.117 0.192,-8.344 0.067,-8.717L0,-8.711" style="fill:rgb(35,31,32);fill-rule:nonzero;"/>
        </g>
        <g transform="matrix(2.55135e-16,4.16667,-4.16667,2.55135e-16,1485.8,90.5854)">
            <path d="M0,-4.59L-4.695,-4.59L-4.687,-4.59C-4.927,-4.59 -5.089,-4.676 -5.191,-4.918L-5.257,-4.92C-5.232,-4.752 -5.236,-4.547 -5.234,-4.34C-5.236,-4.135 -5.232,-3.932 -5.257,-3.766L-5.191,-3.762C-5.089,-4.004 -4.927,-4.09 -4.687,-4.09L-1.695,-4.09C-0.742,-4.055 0.454,-3.344 0.454,-2.217C0.454,-1.285 -0.267,-0.496 -1.564,-0.496L-4.669,-0.496C-4.91,-0.496 -5.072,-0.581 -5.173,-0.824L-5.24,-0.826C-5.214,-0.658 -5.218,-0.453 -5.216,-0.248C-5.218,-0.041 -5.214,0.16 -5.24,0.328L-5.173,0.332C-5.072,0.088 -4.91,0.004 -4.669,0.004L-1.685,0.004C-0.013,0.004 0.774,-1.043 0.721,-2.207C0.721,-3.252 -0.171,-3.902 -1.003,-4.09L-0.017,-4.09C0.473,-4.09 0.499,-3.949 0.592,-3.758L0.661,-3.758C0.647,-3.896 0.647,-4.074 0.647,-4.34C0.647,-4.605 0.647,-4.783 0.661,-4.922L0.592,-4.922C0.499,-4.732 0.473,-4.594 0,-4.59" style="fill:rgb(35,31,32);fill-rule:nonzero;"/>
        </g>
        <g transform="matrix(2.55135e-16,4.16667,-4.16667,2.55135e-16,1451.5,85.4521)">
            <path d="M0,3.048L-3.168,1.693L-3.168,1.623L0,0.318L0,3.048ZM1.078,-0.686L-4.164,1.496L-4.164,1.566L0.742,3.693L1.139,3.894C1.504,4.076 1.674,4.238 1.551,4.433L1.821,4.246C1.806,4.107 1.852,4.308 1.852,4.043C1.852,3.777 1.852,3.599 1.867,3.461L1.799,3.461C1.703,3.65 1.463,3.662 1.186,3.556L0.268,3.164L0.268,0.209L1.145,-0.153C1.588,-0.338 1.713,-0.211 1.807,-0.02L1.875,-0.02C1.861,-0.159 1.861,-0.422 1.861,-0.688C1.861,-0.954 1.861,-1.247 1.875,-1.385L1.807,-1.385C1.713,-1.196 1.705,-0.977 1.078,-0.686" style="fill:rgb(35,31,32);fill-rule:nonzero;"/>
        </g>
        <g transform="matrix(2.55135e-16,4.16667,-4.16667,2.55135e-16,1527.1,85.4521)">
            <path d="M0,2.86L-3.168,1.505L-3.168,1.435L0,0.13L0,2.86ZM1.078,-0.874L-4.164,1.308L-4.164,1.378L0.742,3.505L1.139,3.704C1.504,3.886 1.703,4.243 1.799,4.435L1.867,4.435C1.852,4.296 1.852,4.12 1.852,3.855L1.852,3.853C1.852,3.589 1.852,3.411 1.867,3.271L1.799,3.272C1.703,3.46 1.463,3.474 1.186,3.368L0.268,2.976L0.268,0.021L1.145,-0.341C1.588,-0.526 1.713,-0.399 1.807,-0.208L1.875,-0.208C1.861,-0.347 1.861,-0.61 1.861,-0.876C1.861,-1.142 1.861,-1.437 1.875,-1.575L1.807,-1.575C1.713,-1.384 1.705,-1.165 1.078,-0.874" style="fill:rgb(35,31,32);fill-rule:nonzero;"/>
        </g>
        <g transform="matrix(2.55135e-16,4.16667,-4.16667,2.55135e-16,1472.09,92.4521)">
            <path d="M0,0.875C0,1.598 -0.043,1.916 -0.188,2.23L-0.192,2.227L-5.412,2.227C-5.455,1.922 -5.494,1.497 -5.498,0.988C-5.518,-0.715 -4.573,-1.588 -2.715,-1.588C-0.787,-1.588 0,-0.617 0,0.875ZM-5.709,0.96C-5.719,1.309 -5.657,2.101 -5.651,2.485C-5.653,2.686 -5.651,2.881 -5.674,3.045L-5.608,3.049C-5.506,2.806 -5.344,2.721 -5.104,2.721L-0.483,2.721C0.008,2.721 0.033,2.861 0.127,3.053L0.195,3.053C0.181,2.914 0.181,2.471 0.181,2.471L0.168,2.462L0.179,2.469C0.179,1.838 0.24,1.149 0.24,0.861C0.24,-0.04 -0.071,-2.178 -2.842,-2.178C-5.614,-2.178 -5.686,0.145 -5.709,0.96" style="fill:rgb(35,31,32);fill-rule:nonzero;"/>
        </g>
        <g transform="matrix(2.55135e-16,4.16667,-4.16667,2.55135e-16,1532.85,68.6563)">
            <path d="M0,-4.127C0,-3.828 0.023,-2.978 0.027,-2.597L0.027,-1.569C0.023,-1.186 0,-0.336 0,-0.039C0,0.259 0.144,0.335 0.613,0.431L0.613,0.352C0.474,0.278 0.316,0.192 0.316,-0.254L0.316,-1.74C0.396,-1.785 0.49,-1.805 0.603,-1.805L5.256,-1.805C5.728,-1.803 5.754,-1.652 5.847,-1.458L5.916,-1.458C5.9,-1.601 5.9,-1.794 5.9,-2.066C5.9,-2.342 5.9,-2.523 5.916,-2.668L5.847,-2.668C5.754,-2.474 5.728,-2.326 5.265,-2.32L0.596,-2.32L0.603,-2.322C0.49,-2.322 0.396,-2.342 0.316,-2.387L0.316,-3.969C0.316,-4.414 0.474,-4.41 0.613,-4.485L0.607,-4.558C0.168,-4.525 0,-4.423 0,-4.127" style="fill:rgb(35,31,32);fill-rule:nonzero;"/>
        </g>
        <g transform="matrix(2.55135e-16,4.16667,-4.16667,2.55135e-16,1555.1,90.5938)">
            <path d="M0,-3.235C0.139,-3.163 0.299,-3.165 0.299,-2.719L0.321,-0.757L-2.298,-0.757L-2.298,-1.899C-2.298,-2.389 -2.16,-2.413 -1.966,-2.508L-1.966,-2.577C-2.107,-2.561 -2.183,-2.555 -2.449,-2.555C-2.714,-2.555 -2.793,-2.561 -2.931,-2.577L-2.931,-2.508C-2.74,-2.413 -2.601,-2.389 -2.597,-1.915L-2.597,-0.757L-4.964,-0.757L-4.955,-2.522C-4.955,-2.967 -4.794,-2.964 -4.656,-3.04L-4.664,-3.112C-5.103,-3.079 -5.291,-2.977 -5.291,-2.68C-5.291,-2.382 -5.267,-0.889 -5.263,-0.508C-5.263,-0.243 -5.263,-0.065 -5.279,0.074L-5.209,0.074C-5.115,-0.118 -5.009,-0.257 -4.519,-0.257L-0.119,-0.257C0.372,-0.257 0.475,-0.118 0.571,0.074L0.641,0.074C0.625,-0.065 0.625,-0.243 0.625,-0.508C0.627,-0.889 0.653,-2.581 0.653,-2.878C0.653,-3.175 0.45,-3.276 0.01,-3.309L0,-3.235" style="fill:rgb(35,31,32);fill-rule:nonzero;"/>
        </g>
        <g transform="matrix(2.55135e-16,4.16667,-4.16667,2.55135e-16,1391.47,83.2896)">
            <path d="M0,-4.244C-0.002,-4.039 0.001,-3.838 -0.026,-3.67L0.042,-3.666C0.144,-3.908 0.304,-3.994 0.546,-3.994L1.625,-3.994C1.773,-3.994 1.89,-3.97 1.976,-3.922C2.064,-3.873 2.13,-3.762 2.181,-3.588C2.232,-3.416 2.273,-3.162 2.273,-2.795C2.273,-1.031 1.164,-0.438 1.164,-0.438C0.681,-0.129 0.074,0.01 -0.577,0.045C-2.688,0.156 -3.42,-1.143 -3.42,-2.41C-3.42,-2.41 -3.493,-4.02 -2.346,-4.463L-2.346,-4.545L-3.104,-4.545C-3.364,-4 -3.612,-3.383 -3.612,-2.41C-3.612,-0.848 -2.661,0.58 -0.547,0.58C0.576,0.58 1.32,0.17 1.785,-0.389C1.785,-0.389 1.955,-0.584 2.062,-0.799C2.232,-1.141 2.361,-1.457 2.414,-1.768C2.466,-2.076 2.49,-2.389 2.49,-2.707C2.49,-3.658 2.332,-4.063 2.203,-4.494L0.546,-4.494C0.304,-4.494 0.144,-4.578 0.042,-4.822L-0.026,-4.824C0.001,-4.656 -0.002,-4.449 0,-4.244" style="fill:rgb(35,31,32);fill-rule:nonzero;"/>
        </g>
        <g transform="matrix(2.55135e-16,4.16667,-4.16667,2.55135e-16,1433.61,80.9521)">
            <path d="M0,3.627L-2.36,3.627L-2.353,3.627L-2.699,3.628C-2.971,2.653 -2.561,1.788 -1.439,1.75C-0.422,1.715 0.103,2.428 0,3.627ZM2.081,0.667L-0.052,2.167C-0.303,1.599 -0.772,1.229 -1.448,1.229C-2.593,1.229 -2.944,2.034 -2.944,2.949C-2.944,3.202 -2.883,3.551 -2.883,3.877C-2.885,4.083 -2.891,4.282 -2.916,4.45L-2.848,4.449C-2.746,4.207 -2.593,4.127 -2.353,4.127L2.278,4.127C2.768,4.127 2.801,4.282 2.886,4.459L2.955,4.458C2.939,4.319 2.939,4.144 2.939,3.877L2.939,3.876C2.939,3.612 2.939,3.434 2.955,3.295L2.886,3.295C2.801,3.479 2.779,3.627 2.287,3.627L0.144,3.627C0.178,3.275 0.16,2.939 0.097,2.635C0.719,2.245 2.137,1.209 2.137,1.209C2.935,0.6 2.981,0.046 2.949,-0.832L2.877,-0.832C2.925,-0.039 2.508,0.348 2.081,0.667" style="fill:rgb(35,31,32);fill-rule:nonzero;"/>
        </g>
        <g transform="matrix(2.55135e-16,4.16667,-4.16667,2.55135e-16,1587.86,90.5854)">
            <path d="M0,-4.588L-4.695,-4.588L-4.687,-4.589C-4.927,-4.589 -5.089,-4.674 -5.191,-4.917L-5.257,-4.918C-5.232,-4.751 -5.236,-4.545 -5.234,-4.338C-5.236,-4.133 -5.232,-3.931 -5.257,-3.765L-5.191,-3.761C-5.089,-4.003 -4.927,-4.088 -4.687,-4.088L-1.695,-4.088C-0.742,-4.054 0.454,-3.343 0.454,-2.216C0.454,-1.283 -0.267,-0.494 -1.564,-0.494L-4.669,-0.494L-4.669,-0.495C-4.91,-0.495 -5.072,-0.58 -5.173,-0.822L-5.24,-0.824C-5.214,-0.657 -5.218,-0.451 -5.216,-0.246C-5.218,-0.039 -5.214,0.162 -5.24,0.33L-5.173,0.333C-5.072,0.09 -4.91,0.006 -4.669,0.006L-1.685,0.006C-0.013,0.006 0.774,-1.041 0.721,-2.205C0.721,-3.25 -0.171,-3.9 -1.003,-4.088L-0.017,-4.088C0.473,-4.088 0.499,-3.948 0.592,-3.757L0.661,-3.757C0.647,-3.895 0.647,-4.073 0.647,-4.338L0.647,-4.339C0.647,-4.604 0.647,-4.782 0.661,-4.921L0.592,-4.921C0.499,-4.73 0.473,-4.592 0,-4.588" style="fill:rgb(35,31,32);fill-rule:nonzero;"/>
        </g>
        <g transform="matrix(2.55135e-16,4.16667,-4.16667,2.55135e-16,1737.74,93.0521)">
            <path d="M0,-1.164C-0.093,-0.974 -0.119,-0.836 -0.592,-0.832L-5.287,-0.832L-5.279,-0.832C-5.519,-0.832 -5.681,-0.918 -5.783,-1.16L-5.849,-1.162C-5.824,-0.994 -5.828,-0.789 -5.826,-0.582C-5.828,-0.377 -5.824,-0.174 -5.849,-0.008L-5.783,-0.004C-5.681,-0.246 -5.519,-0.332 -5.279,-0.332L-0.609,-0.332C-0.119,-0.332 -0.093,-0.191 0,0L0.069,0C0.055,-0.138 0.055,-0.316 0.055,-0.582C0.055,-0.847 0.055,-1.025 0.069,-1.164L0,-1.164" style="fill:rgb(35,31,32);fill-rule:nonzero;"/>
        </g>
        <g transform="matrix(2.55135e-16,4.16667,-4.16667,2.55135e-16,1642.99,93.0521)">
            <path d="M0,-1.165C-0.093,-0.975 -0.119,-0.836 -0.592,-0.832L-5.287,-0.832L-5.279,-0.832C-5.519,-0.832 -5.681,-0.918 -5.783,-1.161L-5.849,-1.163C-5.824,-0.995 -5.828,-0.79 -5.826,-0.582C-5.828,-0.377 -5.824,-0.174 -5.849,-0.008L-5.783,-0.004C-5.681,-0.247 -5.519,-0.332 -5.279,-0.332L-0.609,-0.332C-0.119,-0.332 -0.093,-0.192 0,0L0.069,0C0.055,-0.138 0.055,-0.317 0.055,-0.582C0.055,-0.848 0.055,-1.026 0.069,-1.165L0,-1.165" style="fill:rgb(35,31,32);fill-rule:nonzero;"/>
        </g>
        <g transform="matrix(2.55135e-16,4.16667,-4.16667,2.55135e-16,1719.77,69.3063)">
            <path d="M0,-2.812L0.691,-2.812L0.691,-2.73C0.065,-2.466 -0.107,-1.921 -0.086,-1.366C-0.06,-0.7 0.375,-0.288 0.797,-0.257C1.395,-0.211 1.781,-0.548 2.529,-1.652C3.316,-2.81 3.621,-3.047 4.307,-3.047C4.945,-3.047 5.846,-2.525 5.846,-1.287C5.846,-0.753 5.59,-0.13 5.561,0.235L4.59,0.235L4.59,0.139C5.147,0.086 5.631,-0.279 5.631,-1.287C5.631,-2.238 4.945,-2.603 4.506,-2.572C3.955,-2.532 3.676,-2.308 3.018,-1.357C2.283,-0.296 1.91,0.137 1.088,0.137C0.26,0.137 -0.262,-0.638 -0.262,-1.366C-0.262,-2.181 -0.07,-2.484 0,-2.812" style="fill:rgb(35,31,32);fill-rule:nonzero;"/>
        </g>
        <g transform="matrix(2.55135e-16,4.16667,-4.16667,2.55135e-16,1747.37,68.6563)">
            <path d="M0,-4.124C0,-3.825 0.023,-2.976 0.027,-2.595L0.027,-1.568C0.023,-1.185 0,-0.334 0,-0.037C0,0.261 0.144,0.337 0.613,0.432L0.613,0.353C0.474,0.279 0.316,0.193 0.316,-0.252L0.316,-1.739C0.396,-1.783 0.49,-1.803 0.603,-1.803L5.256,-1.803C5.728,-1.801 5.754,-1.651 5.847,-1.456L5.916,-1.456C5.9,-1.6 5.9,-1.792 5.9,-2.065C5.9,-2.339 5.9,-2.521 5.916,-2.665L5.847,-2.665C5.754,-2.472 5.728,-2.323 5.265,-2.318L0.596,-2.318L0.603,-2.32C0.49,-2.32 0.396,-2.339 0.316,-2.384L0.316,-3.966C0.316,-4.411 0.474,-4.407 0.613,-4.484L0.607,-4.556C0.168,-4.523 0,-4.421 0,-4.124" style="fill:rgb(35,31,32);fill-rule:nonzero;"/>
        </g>
        <g transform="matrix(2.55135e-16,4.16667,-4.16667,2.55135e-16,1679.29,90.5938)">
            <path d="M0,-3.236C0.139,-3.163 0.299,-3.165 0.299,-2.72L0.321,-0.757L-2.298,-0.757L-2.298,-1.9C-2.298,-2.39 -2.16,-2.413 -1.966,-2.509L-1.966,-2.578C-2.107,-2.562 -2.183,-2.556 -2.449,-2.556C-2.714,-2.556 -2.793,-2.562 -2.931,-2.578L-2.931,-2.509C-2.74,-2.413 -2.601,-2.39 -2.597,-1.915L-2.597,-0.757L-4.964,-0.757L-4.955,-2.523C-4.955,-2.968 -4.794,-2.964 -4.656,-3.04L-4.664,-3.113C-5.103,-3.079 -5.291,-2.978 -5.291,-2.681C-5.291,-2.382 -5.267,-0.89 -5.263,-0.509C-5.263,-0.244 -5.263,-0.066 -5.279,0.074L-5.209,0.074C-5.115,-0.119 -5.009,-0.257 -4.519,-0.257L-0.119,-0.257C0.372,-0.257 0.475,-0.119 0.571,0.074L0.641,0.074C0.625,-0.066 0.625,-0.244 0.625,-0.509C0.627,-0.89 0.653,-2.581 0.653,-2.878C0.653,-3.175 0.45,-3.277 0.01,-3.31L0,-3.236" style="fill:rgb(35,31,32);fill-rule:nonzero;"/>
        </g>
        <g transform="matrix(2.55135e-16,4.16667,-4.16667,2.55135e-16,1770.52,68.8521)">
            <path d="M0,-4.027C-0.002,-3.822 0.002,-3.621 -0.024,-3.453L0.043,-3.449C0.144,-3.693 0.232,-3.756 0.408,-3.676C0.408,-3.676 1.007,-3.369 2.707,-2.195L0.482,-0.601C0.234,-0.424 0.144,-0.328 0.043,-0.613L-0.024,-0.617C0.002,-0.418 -0.002,-0.26 0,-0.015C-0.002,0.225 0.002,0.379 -0.024,0.576L0.043,0.58C0.144,0.295 0.326,0.162 0.566,-0.031L3.099,-1.805L5.189,-1.805C5.679,-1.805 5.701,-1.666 5.797,-1.474L5.867,-1.474C5.851,-1.613 5.851,-1.789 5.851,-2.056C5.851,-2.32 5.851,-2.5 5.867,-2.639L5.797,-2.639C5.703,-2.449 5.677,-2.308 5.207,-2.306L3.027,-2.306L0.547,-3.912C0.24,-4.142 0.144,-4.361 0.043,-4.605L-0.024,-4.607C0.002,-4.439 -0.002,-4.234 0,-4.027" style="fill:rgb(35,31,32);fill-rule:nonzero;"/>
        </g>
        <g transform="matrix(2.55135e-16,4.16667,-4.16667,2.55135e-16,1616.03,68.8438)">
            <path d="M0,-4.466C-0.002,-4.26 0.002,-4.132 -0.026,-3.964L0.043,-3.96C0.144,-4.202 0.306,-4.288 0.547,-4.288L4.795,-4.288L-0.022,-0.255L-0.022,-0.075C-0.022,0.132 -0.02,0.333 -0.047,0.501L0.021,0.505C0.123,0.261 0.285,0.177 0.525,0.177L5.201,0.177C5.689,0.177 5.713,0.316 5.808,0.509L5.879,0.509C5.861,0.37 5.861,0.193 5.861,-0.073L5.861,-0.075C5.861,-0.339 5.861,-0.516 5.879,-0.655L5.808,-0.655C5.715,-0.466 5.689,-0.327 5.218,-0.323L0.814,-0.323L5.906,-4.52L5.906,-4.645L0.547,-4.645C0.306,-4.645 0.144,-4.731 0.043,-4.973L-0.026,-4.975C0.002,-4.807 -0.002,-4.673 0,-4.466" style="fill:rgb(35,31,32);fill-rule:nonzero;"/>
        </g>
        <g transform="matrix(2.55135e-16,4.16667,-4.16667,2.55135e-16,1715.73,80.9521)">
            <path d="M0,3.521L-2.36,3.521L-2.353,3.52L-2.699,3.522C-2.971,2.546 -2.561,1.681 -1.439,1.644C-0.422,1.609 0.103,2.322 0,3.521ZM2.081,0.56L-0.052,2.059C-0.303,1.492 -0.772,1.123 -1.448,1.123C-2.593,1.123 -2.944,1.927 -2.944,2.841C-2.944,3.095 -2.883,3.445 -2.883,3.771C-2.885,3.976 -2.891,4.175 -2.916,4.343L-2.848,4.342C-2.746,4.099 -2.593,4.021 -2.353,4.021L2.278,4.021C2.768,4.021 2.801,4.175 2.886,4.351L2.955,4.351C2.939,4.212 2.939,4.038 2.939,3.771L2.939,3.77C2.939,3.505 2.939,3.328 2.955,3.189L2.886,3.189C2.801,3.373 2.779,3.521 2.287,3.521L0.144,3.521C0.178,3.169 0.16,2.833 0.097,2.529C0.719,2.138 2.137,1.104 2.137,1.104C2.935,0.494 2.981,-0.061 3.005,-0.83L2.933,-0.83C2.925,-0.145 2.508,0.242 2.081,0.56" style="fill:rgb(35,31,32);fill-rule:nonzero;"/>
        </g>
        <g transform="matrix(2.55135e-16,4.16667,-4.16667,2.55135e-16,1665.27,93.6979)">
            <path d="M0,0.625L-5.386,3.014C-5.67,3.147 -5.815,3.342 -5.916,3.584L-5.983,3.586C-5.957,3.418 -5.961,3.196 -5.959,2.99L-5.959,2.996C-5.961,2.789 -5.957,2.562 -5.983,2.394L-5.916,2.396C-5.832,2.656 -5.611,2.574 -5.485,2.535L-5.397,2.5L-0.793,0.46L-5.397,-1.891L-5.485,-1.926C-5.611,-1.965 -5.837,-1.99 -5.916,-1.811L-5.983,-1.809C-5.957,-1.977 -5.961,-2.164 -5.959,-2.371L-5.959,-2.365C-5.961,-2.57 -5.957,-2.793 -5.983,-2.961L-5.916,-2.959C-5.832,-2.721 -5.67,-2.375 -5.386,-2.241L0,0.555L0,0.625" style="fill:rgb(35,31,32);fill-rule:nonzero;"/>
        </g>
    </g>
</svg>
